G04 Layer_Color=32896*
%FSLAX44Y44*%
%MOMM*%
G71*
G01*
G75*
%ADD18C,0.2540*%
D18*
X298704Y121906D02*
Y137142D01*
X293626Y132063D01*
X288547Y137142D01*
Y121906D01*
X280930D02*
X275851D01*
X273312Y124446D01*
Y129524D01*
X275851Y132063D01*
X280930D01*
X283469Y129524D01*
Y124446D01*
X280930Y121906D01*
X268234Y132063D02*
Y121906D01*
Y126985D01*
X265695Y129524D01*
X263155Y132063D01*
X260616D01*
X250460D02*
X245381D01*
X242842Y129524D01*
Y121906D01*
X250460D01*
X252999Y124446D01*
X250460Y126985D01*
X242842D01*
X237764Y121906D02*
X232685D01*
X235224D01*
Y137142D01*
X237764D01*
X199676Y134602D02*
X202215Y137142D01*
X207294D01*
X209833Y134602D01*
Y132063D01*
X207294Y129524D01*
X202215D01*
X199676Y126985D01*
Y124446D01*
X202215Y121906D01*
X207294D01*
X209833Y124446D01*
X194598Y132063D02*
Y124446D01*
X192059Y121906D01*
X184441D01*
Y132063D01*
X179363Y116828D02*
Y132063D01*
X171745D01*
X169206Y129524D01*
Y124446D01*
X171745Y121906D01*
X179363D01*
X164128Y116828D02*
Y132063D01*
X156510D01*
X153971Y129524D01*
Y124446D01*
X156510Y121906D01*
X164128D01*
X146353D02*
X141275D01*
X138736Y124446D01*
Y129524D01*
X141275Y132063D01*
X146353D01*
X148892Y129524D01*
Y124446D01*
X146353Y121906D01*
X133657Y132063D02*
Y121906D01*
Y126985D01*
X131118Y129524D01*
X128579Y132063D01*
X126040D01*
X115883Y134602D02*
Y132063D01*
X118422D01*
X113344D01*
X115883D01*
Y124446D01*
X113344Y121906D01*
X105726Y132063D02*
X103187D01*
Y129524D01*
X105726D01*
Y132063D01*
Y124446D02*
X103187D01*
Y121906D01*
X105726D01*
Y124446D01*
X291087Y83307D02*
X296165D01*
X298704Y80768D01*
Y70611D01*
X296165Y68072D01*
X291087D01*
X288547Y70611D01*
Y80768D01*
X291087Y83307D01*
X283469Y68072D02*
X278391D01*
X280930D01*
Y83307D01*
X283469D01*
X270773Y68072D02*
X265695D01*
X268234D01*
Y78229D01*
X270773D01*
X258077D02*
X252999Y68072D01*
X247920Y78229D01*
X235224Y68072D02*
X240303D01*
X242842Y70611D01*
Y75690D01*
X240303Y78229D01*
X235224D01*
X232685Y75690D01*
Y73150D01*
X242842D01*
X227607Y78229D02*
Y68072D01*
Y73150D01*
X225068Y75690D01*
X222529Y78229D01*
X219989D01*
X197137Y83307D02*
Y68072D01*
X192059Y73150D01*
X186980Y68072D01*
Y83307D01*
X179363Y68072D02*
X174284D01*
X171745Y70611D01*
Y75690D01*
X174284Y78229D01*
X179363D01*
X181902Y75690D01*
Y70611D01*
X179363Y68072D01*
X164128D02*
X159049D01*
X156510Y70611D01*
Y75690D01*
X159049Y78229D01*
X164128D01*
X166667Y75690D01*
Y70611D01*
X164128Y68072D01*
X141275Y83307D02*
Y68072D01*
X148892D01*
X151432Y70611D01*
Y75690D01*
X148892Y78229D01*
X141275D01*
X334776Y359921D02*
X332237Y362461D01*
Y367539D01*
X334776Y370078D01*
X344933D01*
X347472Y367539D01*
Y362461D01*
X344933Y359921D01*
X337315Y352304D02*
Y347225D01*
X339855Y344686D01*
X347472D01*
Y352304D01*
X344933Y354843D01*
X342394Y352304D01*
Y344686D01*
X332237Y339608D02*
X347472D01*
Y331990D01*
X344933Y329451D01*
X342394D01*
X339855D01*
X337315Y331990D01*
Y339608D01*
X347472Y324373D02*
Y319294D01*
Y321834D01*
X337315D01*
Y324373D01*
X347472Y311677D02*
X337315D01*
Y304059D01*
X339855Y301520D01*
X347472D01*
X332237Y281207D02*
Y271050D01*
Y276128D01*
X347472D01*
Y258354D02*
Y263433D01*
X344933Y265972D01*
X339855D01*
X337315Y263433D01*
Y258354D01*
X339855Y255815D01*
X342394D01*
Y265972D01*
X347472Y250737D02*
X337315D01*
Y248197D01*
X339855Y245658D01*
X347472D01*
X339855D01*
X337315Y243119D01*
X339855Y240580D01*
X347472D01*
X352550Y235501D02*
X337315D01*
Y227884D01*
X339855Y225345D01*
X344933D01*
X347472Y227884D01*
Y235501D01*
X334776Y194875D02*
X332237Y197414D01*
Y202492D01*
X334776Y205031D01*
X337315D01*
X339855Y202492D01*
Y197414D01*
X342394Y194875D01*
X344933D01*
X347472Y197414D01*
Y202492D01*
X344933Y205031D01*
X347472Y182179D02*
Y187257D01*
X344933Y189796D01*
X339855D01*
X337315Y187257D01*
Y182179D01*
X339855Y179640D01*
X342394D01*
Y189796D01*
X347472Y174561D02*
X337315D01*
Y166944D01*
X339855Y164405D01*
X347472D01*
Y159326D02*
Y151709D01*
X344933Y149170D01*
X342394Y151709D01*
Y156787D01*
X339855Y159326D01*
X337315Y156787D01*
Y149170D01*
X347472Y141552D02*
Y136474D01*
X344933Y133934D01*
X339855D01*
X337315Y136474D01*
Y141552D01*
X339855Y144091D01*
X344933D01*
X347472Y141552D01*
X337315Y128856D02*
X347472D01*
X342394D01*
X339855Y126317D01*
X337315Y123778D01*
Y121238D01*
X332237Y98386D02*
X342394D01*
X347472Y93308D01*
X342394Y88229D01*
X332237D01*
X347472Y83151D02*
Y78073D01*
Y80612D01*
X332237D01*
X334776Y83151D01*
X307091Y347726D02*
X322326D01*
Y337569D01*
Y332491D02*
Y327413D01*
Y329952D01*
X312169D01*
Y332491D01*
Y317256D02*
Y312178D01*
X314708Y309638D01*
X322326D01*
Y317256D01*
X319787Y319795D01*
X317248Y317256D01*
Y309638D01*
X322326Y304560D02*
X312169D01*
Y302021D01*
X314708Y299482D01*
X322326D01*
X314708D01*
X312169Y296942D01*
X314708Y294403D01*
X322326D01*
X309630Y263933D02*
X307091Y266472D01*
Y271551D01*
X309630Y274090D01*
X312169D01*
X314708Y271551D01*
Y266472D01*
X317248Y263933D01*
X319787D01*
X322326Y266472D01*
Y271551D01*
X319787Y274090D01*
X309630Y256316D02*
X312169D01*
Y258855D01*
Y253776D01*
Y256316D01*
X319787D01*
X322326Y253776D01*
Y243620D02*
Y238541D01*
X319787Y236002D01*
X314708D01*
X312169Y238541D01*
Y243620D01*
X314708Y246159D01*
X319787D01*
X322326Y243620D01*
X307091Y220767D02*
X322326D01*
Y228385D01*
X319787Y230924D01*
X314708D01*
X312169Y228385D01*
Y220767D01*
X307091Y205532D02*
X322326D01*
Y213150D01*
X319787Y215689D01*
X314708D01*
X312169Y213150D01*
Y205532D01*
Y197915D02*
Y192836D01*
X314708Y190297D01*
X322326D01*
Y197915D01*
X319787Y200454D01*
X317248Y197915D01*
Y190297D01*
X312169Y185219D02*
X322326D01*
X317248D01*
X314708Y182679D01*
X312169Y180140D01*
Y177601D01*
X307091Y159827D02*
X322326D01*
Y167444D01*
X319787Y169984D01*
X314708D01*
X312169Y167444D01*
Y159827D01*
M02*
