G04 Layer_Color=16711935*
%FSLAX44Y44*%
%MOMM*%
G71*
G01*
G75*
%ADD41C,2.2000*%
%ADD42C,3.7000*%
%ADD43C,1.9000*%
%ADD44C,0.8096*%
%ADD45C,0.8000*%
%ADD46C,0.9620*%
D41*
X91186Y102362D02*
D03*
X116586D02*
D03*
X167386D02*
D03*
X141986D02*
D03*
X183896Y211074D02*
D03*
Y185674D02*
D03*
Y160274D02*
D03*
D42*
X124460Y331978D02*
D03*
D43*
Y288778D02*
D03*
X94460D02*
D03*
X154460D02*
D03*
Y258778D02*
D03*
X124460D02*
D03*
X94460D02*
D03*
D44*
X314198Y372872D02*
D03*
X299974Y351536D02*
D03*
X204724Y241046D02*
D03*
X281686Y304292D02*
D03*
X266954Y281940D02*
D03*
X327152Y288544D02*
D03*
X305562Y254508D02*
D03*
X89916Y329946D02*
D03*
X82550Y348234D02*
D03*
X173990Y262128D02*
D03*
X184150Y299974D02*
D03*
X225298Y378206D02*
D03*
X196850Y359156D02*
D03*
X231648Y212344D02*
D03*
X233680Y186182D02*
D03*
X276098Y216662D02*
D03*
X216662Y172212D02*
D03*
X328422Y190500D02*
D03*
X329692Y170688D02*
D03*
X255778Y188722D02*
D03*
X100584Y312928D02*
D03*
X157988Y148336D02*
D03*
X94742Y124206D02*
D03*
X267970Y143256D02*
D03*
X208026Y195834D02*
D03*
X159004Y212344D02*
D03*
X139954Y169418D02*
D03*
X185928Y110998D02*
D03*
X210312Y89916D02*
D03*
X80518Y233934D02*
D03*
X140716Y237490D02*
D03*
X296672Y220726D02*
D03*
X254254Y211328D02*
D03*
D45*
X311150Y232156D02*
D03*
X309372Y340614D02*
D03*
X227330Y337566D02*
D03*
X247142Y283210D02*
D03*
X263398Y212852D02*
D03*
X350520Y292862D02*
D03*
X364442Y278686D02*
D03*
X262636Y90678D02*
D03*
X306832Y210820D02*
D03*
X150622Y180848D02*
D03*
X186436Y136906D02*
D03*
X144272D02*
D03*
X73406Y276098D02*
D03*
Y125984D02*
D03*
X247142Y179070D02*
D03*
D46*
X287782Y191262D02*
D03*
M02*
