G04 Layer_Physical_Order=2*
G04 Layer_Color=16711680*
%FSLAX25Y25*%
%MOIN*%
G70*
G01*
G75*
%ADD19C,0.01000*%
%ADD21C,0.02000*%
%ADD23C,0.07874*%
%ADD24C,0.11811*%
%ADD25C,0.06693*%
%ADD26C,0.02400*%
%ADD27C,0.02362*%
%ADD28C,0.03000*%
%ADD29C,0.02500*%
G36*
X175796Y85800D02*
Y19604D01*
X145400D01*
Y38200D01*
X142600Y41000D01*
X108100D01*
X104324Y37224D01*
X104095Y37378D01*
X104013Y37394D01*
X91037Y50370D01*
X113957Y73290D01*
X114119Y73322D01*
X114814Y73786D01*
X115278Y74481D01*
X115441Y75300D01*
X115436Y75328D01*
X121160Y81053D01*
X123407Y78807D01*
X123407Y78807D01*
X123771Y78564D01*
X124200Y78478D01*
X124200Y78478D01*
X140500D01*
X140500Y78478D01*
X140929Y78564D01*
X141293Y78807D01*
X147008Y84522D01*
X147200Y84484D01*
X147895Y84622D01*
X148484Y85016D01*
X148878Y85605D01*
X149016Y86300D01*
X148878Y86995D01*
X148484Y87584D01*
X147895Y87978D01*
X147708Y88015D01*
X147544Y88557D01*
X150693Y91707D01*
X150693Y91707D01*
X150936Y92071D01*
X151022Y92500D01*
X151022Y92500D01*
Y112035D01*
X152803Y113817D01*
X152816Y113816D01*
X153405Y113422D01*
X154100Y113284D01*
X154795Y113422D01*
X155384Y113816D01*
X155778Y114405D01*
X155916Y115100D01*
X155778Y115795D01*
X155384Y116384D01*
X154795Y116778D01*
X154100Y116916D01*
X153405Y116778D01*
X152816Y116384D01*
X152707Y116222D01*
X152500D01*
X152500Y116222D01*
X152071Y116136D01*
X151707Y115893D01*
X151707Y115893D01*
X149107Y113293D01*
X148864Y112929D01*
X148778Y112500D01*
X148778Y112500D01*
Y92965D01*
X148254Y92440D01*
X147793Y92687D01*
X147816Y92800D01*
X147678Y93495D01*
X147284Y94084D01*
X146695Y94478D01*
X146000Y94616D01*
X145808Y94578D01*
X133222Y107165D01*
Y114800D01*
X133222Y114800D01*
X133136Y115229D01*
X132893Y115593D01*
X132893Y115593D01*
X130478Y118008D01*
X130516Y118200D01*
X130378Y118895D01*
X129984Y119484D01*
X129395Y119878D01*
X128700Y120016D01*
X128005Y119878D01*
X127416Y119484D01*
X127022Y118895D01*
X126884Y118200D01*
X127022Y117505D01*
X127416Y116916D01*
X128005Y116522D01*
X128700Y116384D01*
X128892Y116422D01*
X130978Y114335D01*
Y106700D01*
X130978Y106700D01*
X131064Y106271D01*
X131307Y105907D01*
X144222Y92992D01*
X144184Y92800D01*
X144322Y92105D01*
X144716Y91516D01*
X145305Y91122D01*
X146000Y90984D01*
X146113Y91007D01*
X146360Y90546D01*
X141883Y86069D01*
X140745D01*
X140637Y86231D01*
X140048Y86625D01*
X139353Y86763D01*
X138658Y86625D01*
X138069Y86231D01*
X137675Y85642D01*
X137537Y84947D01*
X137675Y84252D01*
X138069Y83663D01*
X138658Y83270D01*
X139353Y83131D01*
X140048Y83270D01*
X140637Y83663D01*
X140745Y83826D01*
X142347D01*
X142347Y83826D01*
X142454Y83847D01*
X142700Y83386D01*
X140035Y80722D01*
X124665D01*
X122747Y82639D01*
X123653Y83547D01*
X124007Y84076D01*
X124131Y84700D01*
Y90636D01*
X124178Y90705D01*
X124316Y91400D01*
X124178Y92095D01*
X123784Y92684D01*
X123195Y93078D01*
X122500Y93216D01*
X121805Y93078D01*
X121216Y92684D01*
X120822Y92095D01*
X120684Y91400D01*
X120822Y90705D01*
X120869Y90636D01*
Y85376D01*
X120187Y84694D01*
X120105Y84678D01*
X119516Y84284D01*
X119122Y83695D01*
X119106Y83613D01*
X115393Y79900D01*
X114931Y80092D01*
Y109100D01*
X114807Y109724D01*
X114453Y110254D01*
X100900Y123807D01*
X101092Y124269D01*
X113600D01*
X114224Y124393D01*
X114753Y124747D01*
X122413Y132406D01*
X122495Y132422D01*
X123084Y132816D01*
X123478Y133405D01*
X123616Y134100D01*
X123478Y134795D01*
X123084Y135384D01*
X122495Y135778D01*
X121800Y135916D01*
X121105Y135778D01*
X120516Y135384D01*
X120122Y134795D01*
X120106Y134713D01*
X112924Y127531D01*
X97176D01*
X91194Y133513D01*
X91178Y133595D01*
X90784Y134184D01*
X90195Y134578D01*
X89500Y134716D01*
X88805Y134578D01*
X88216Y134184D01*
X87822Y133595D01*
X87684Y132900D01*
X87822Y132205D01*
X88216Y131616D01*
X88805Y131222D01*
X88887Y131206D01*
X95346Y124747D01*
X111669Y108424D01*
Y78792D01*
X111207Y78600D01*
X105394Y84413D01*
X105378Y84495D01*
X104984Y85084D01*
X104395Y85478D01*
X103700Y85616D01*
X103005Y85478D01*
X102416Y85084D01*
X102022Y84495D01*
X101884Y83800D01*
X102022Y83105D01*
X102416Y82516D01*
X103005Y82122D01*
X103087Y82106D01*
X110263Y74930D01*
X87066Y51734D01*
X87066Y51734D01*
X68919Y33586D01*
X45281D01*
X42629Y36238D01*
X42912Y36662D01*
X44015Y36205D01*
X44800Y36102D01*
Y41000D01*
Y45898D01*
X44469Y45854D01*
X44235Y46328D01*
X60453Y62546D01*
X60807Y63076D01*
X60931Y63700D01*
Y70436D01*
X60978Y70505D01*
X61116Y71200D01*
X60978Y71895D01*
X60584Y72484D01*
X59995Y72878D01*
X59300Y73016D01*
X58605Y72878D01*
X58016Y72484D01*
X57622Y71895D01*
X57484Y71200D01*
X57622Y70505D01*
X57669Y70436D01*
Y64376D01*
X37966Y44673D01*
X37588Y44963D01*
X36484Y45420D01*
X35300Y45576D01*
X34116Y45420D01*
X33012Y44963D01*
X32064Y44236D01*
X31337Y43288D01*
X30880Y42184D01*
X30724Y41000D01*
X30880Y39816D01*
X31337Y38712D01*
X32064Y37764D01*
X33012Y37037D01*
X34116Y36580D01*
X35300Y36424D01*
X36484Y36580D01*
X36816Y36717D01*
X43166Y30366D01*
X43778Y29957D01*
X44500Y29814D01*
X69700D01*
X70422Y29957D01*
X71034Y30366D01*
X88730Y48063D01*
X101706Y35087D01*
X101722Y35005D01*
X101876Y34776D01*
X99700Y32600D01*
Y32500D01*
X92000D01*
X89500Y30000D01*
Y19604D01*
X22004D01*
Y152396D01*
X175796D01*
Y85800D01*
D02*
G37*
%LPC*%
G36*
X72242Y84876D02*
X71057Y84720D01*
X69954Y84263D01*
X69006Y83536D01*
X68279Y82588D01*
X67822Y81484D01*
X67666Y80300D01*
X67822Y79116D01*
X68279Y78012D01*
X69006Y77064D01*
X69954Y76337D01*
X71057Y75880D01*
X71918Y75766D01*
X72074Y75746D01*
Y75242D01*
X71918Y75221D01*
X70957Y75095D01*
X69760Y74599D01*
X68732Y73810D01*
X67943Y72782D01*
X67447Y71585D01*
X67344Y70800D01*
X72242D01*
X77140D01*
X77036Y71585D01*
X76540Y72782D01*
X75752Y73810D01*
X74724Y74599D01*
X73526Y75095D01*
X72565Y75221D01*
X72410Y75242D01*
Y75746D01*
X72565Y75766D01*
X73426Y75880D01*
X74530Y76337D01*
X75478Y77064D01*
X76205Y78012D01*
X76662Y79116D01*
X76818Y80300D01*
X76662Y81484D01*
X76205Y82588D01*
X75478Y83536D01*
X74530Y84263D01*
X73426Y84720D01*
X72242Y84876D01*
D02*
G37*
G36*
X97300Y113316D02*
X96605Y113178D01*
X96016Y112784D01*
X95622Y112195D01*
X95484Y111500D01*
X95622Y110805D01*
X96016Y110216D01*
X96178Y110107D01*
Y71893D01*
X96016Y71784D01*
X95622Y71195D01*
X95484Y70500D01*
X95622Y69805D01*
X96016Y69216D01*
X96605Y68822D01*
X97300Y68684D01*
X97995Y68822D01*
X98584Y69216D01*
X98978Y69805D01*
X99116Y70500D01*
X98978Y71195D01*
X98584Y71784D01*
X98422Y71893D01*
Y110107D01*
X98584Y110216D01*
X98978Y110805D01*
X99116Y111500D01*
X98978Y112195D01*
X98584Y112784D01*
X97995Y113178D01*
X97300Y113316D01*
D02*
G37*
G36*
X37089Y106788D02*
X36059Y106652D01*
X35099Y106254D01*
X34274Y105622D01*
X33642Y104797D01*
X33244Y103837D01*
X33108Y102807D01*
X33244Y101777D01*
X33642Y100817D01*
X34274Y99992D01*
X35099Y99360D01*
X36059Y98962D01*
X37089Y98827D01*
X38119Y98962D01*
X39079Y99360D01*
X39904Y99992D01*
X40536Y100817D01*
X40934Y101777D01*
X41069Y102807D01*
X40934Y103837D01*
X40536Y104797D01*
X39904Y105622D01*
X39079Y106254D01*
X38119Y106652D01*
X37089Y106788D01*
D02*
G37*
G36*
X60711D02*
X59681Y106652D01*
X58721Y106254D01*
X57896Y105622D01*
X57264Y104797D01*
X56866Y103837D01*
X56731Y102807D01*
X56866Y101777D01*
X57264Y100817D01*
X57896Y99992D01*
X58721Y99360D01*
X59681Y98962D01*
X60711Y98827D01*
X61741Y98962D01*
X62701Y99360D01*
X63526Y99992D01*
X64158Y100817D01*
X64556Y101777D01*
X64692Y102807D01*
X64556Y103837D01*
X64158Y104797D01*
X63526Y105622D01*
X62701Y106254D01*
X61741Y106652D01*
X60711Y106788D01*
D02*
G37*
G36*
X48900D02*
X47870Y106652D01*
X46910Y106254D01*
X46085Y105622D01*
X45453Y104797D01*
X45055Y103837D01*
X44919Y102807D01*
X45055Y101777D01*
X45453Y100817D01*
X46085Y99992D01*
X46910Y99360D01*
X47870Y98962D01*
X48900Y98827D01*
X49930Y98962D01*
X50890Y99360D01*
X51715Y99992D01*
X52347Y100817D01*
X52745Y101777D01*
X52881Y102807D01*
X52745Y103837D01*
X52347Y104797D01*
X51715Y105622D01*
X50890Y106254D01*
X49930Y106652D01*
X48900Y106788D01*
D02*
G37*
G36*
X65800Y45898D02*
Y41500D01*
X70198D01*
X70095Y42285D01*
X69599Y43482D01*
X68810Y44510D01*
X67782Y45299D01*
X66585Y45795D01*
X65800Y45898D01*
D02*
G37*
G36*
X70198Y40500D02*
X65800D01*
Y36102D01*
X66585Y36205D01*
X67782Y36701D01*
X68810Y37490D01*
X69599Y38518D01*
X70095Y39715D01*
X70198Y40500D01*
D02*
G37*
G36*
X28900Y110516D02*
X28205Y110378D01*
X27616Y109984D01*
X27222Y109395D01*
X27084Y108700D01*
X27222Y108005D01*
X27616Y107416D01*
X27778Y107307D01*
Y50993D01*
X27616Y50884D01*
X27222Y50295D01*
X27084Y49600D01*
X27222Y48905D01*
X27616Y48316D01*
X28205Y47922D01*
X28900Y47784D01*
X29595Y47922D01*
X30184Y48316D01*
X30578Y48905D01*
X30716Y49600D01*
X30578Y50295D01*
X30184Y50884D01*
X30022Y50993D01*
Y107307D01*
X30184Y107416D01*
X30578Y108005D01*
X30716Y108700D01*
X30578Y109395D01*
X30184Y109984D01*
X29595Y110378D01*
X28900Y110516D01*
D02*
G37*
G36*
X45800Y45898D02*
Y41000D01*
Y36102D01*
X46585Y36205D01*
X47782Y36701D01*
X48810Y37490D01*
X49599Y38518D01*
X50095Y39715D01*
X50221Y40676D01*
X50242Y40832D01*
X50746D01*
X50766Y40676D01*
X50880Y39816D01*
X51337Y38712D01*
X52064Y37764D01*
X53012Y37037D01*
X54116Y36580D01*
X55300Y36424D01*
X56484Y36580D01*
X57588Y37037D01*
X58536Y37764D01*
X59263Y38712D01*
X59720Y39816D01*
X59834Y40676D01*
X59854Y40832D01*
X60358D01*
X60379Y40676D01*
X60505Y39715D01*
X61001Y38518D01*
X61790Y37490D01*
X62818Y36701D01*
X64015Y36205D01*
X64800Y36102D01*
Y41000D01*
Y45898D01*
X64015Y45795D01*
X62818Y45299D01*
X61790Y44510D01*
X61001Y43482D01*
X60505Y42285D01*
X60379Y41324D01*
X60358Y41168D01*
X59854D01*
X59834Y41324D01*
X59720Y42184D01*
X59263Y43288D01*
X58536Y44236D01*
X57588Y44963D01*
X56484Y45420D01*
X55300Y45576D01*
X54116Y45420D01*
X53012Y44963D01*
X52064Y44236D01*
X51337Y43288D01*
X50880Y42184D01*
X50766Y41324D01*
X50746Y41168D01*
X50242D01*
X50221Y41324D01*
X50095Y42285D01*
X49599Y43482D01*
X48810Y44510D01*
X47782Y45299D01*
X46585Y45795D01*
X45800Y45898D01*
D02*
G37*
G36*
X77140Y69800D02*
X72242D01*
X67344D01*
X67447Y69015D01*
X67943Y67818D01*
X68732Y66790D01*
X69760Y66001D01*
X70957Y65505D01*
X71918Y65379D01*
X72074Y65358D01*
Y64854D01*
X71918Y64834D01*
X71057Y64720D01*
X69954Y64263D01*
X69006Y63536D01*
X68279Y62588D01*
X67822Y61484D01*
X67666Y60300D01*
X67822Y59116D01*
X68279Y58012D01*
X69006Y57064D01*
X69954Y56337D01*
X71057Y55880D01*
X71745Y55789D01*
X71955Y55257D01*
X71766Y55022D01*
X58193D01*
X58084Y55184D01*
X57495Y55578D01*
X56800Y55716D01*
X56105Y55578D01*
X55516Y55184D01*
X55122Y54595D01*
X54984Y53900D01*
X55122Y53205D01*
X55516Y52616D01*
X56105Y52222D01*
X56800Y52084D01*
X57495Y52222D01*
X58084Y52616D01*
X58193Y52778D01*
X72007D01*
X72116Y52616D01*
X72705Y52222D01*
X73400Y52084D01*
X74095Y52222D01*
X74684Y52616D01*
X75078Y53205D01*
X75216Y53900D01*
X75078Y54595D01*
X74684Y55184D01*
X74095Y55578D01*
X74033Y55590D01*
X73982Y56110D01*
X74530Y56337D01*
X75478Y57064D01*
X76205Y58012D01*
X76662Y59116D01*
X76818Y60300D01*
X76662Y61484D01*
X76205Y62588D01*
X75478Y63536D01*
X74530Y64263D01*
X73426Y64720D01*
X72565Y64834D01*
X72410Y64854D01*
Y65358D01*
X72565Y65379D01*
X73526Y65505D01*
X74724Y66001D01*
X75752Y66790D01*
X76540Y67818D01*
X77036Y69015D01*
X77140Y69800D01*
D02*
G37*
G36*
X49400Y118920D02*
Y115118D01*
X53202D01*
X53119Y115749D01*
X52683Y116802D01*
X51989Y117707D01*
X51084Y118401D01*
X50030Y118837D01*
X49400Y118920D01*
D02*
G37*
G36*
X48400D02*
X47769Y118837D01*
X46716Y118401D01*
X45811Y117707D01*
X45117Y116802D01*
X44681Y115749D01*
X44598Y115118D01*
X48400D01*
Y118920D01*
D02*
G37*
G36*
X48900Y138163D02*
X47625Y138037D01*
X46398Y137665D01*
X45268Y137061D01*
X44278Y136248D01*
X43465Y135258D01*
X42861Y134128D01*
X42489Y132901D01*
X42363Y131626D01*
X42489Y130351D01*
X42861Y129124D01*
X43465Y127994D01*
X44278Y127004D01*
X45268Y126191D01*
X46398Y125587D01*
X47625Y125215D01*
X48900Y125089D01*
X50175Y125215D01*
X51402Y125587D01*
X52532Y126191D01*
X53522Y127004D01*
X54335Y127994D01*
X54939Y129124D01*
X55311Y130351D01*
X55437Y131626D01*
X55311Y132901D01*
X54939Y134128D01*
X54335Y135258D01*
X53522Y136248D01*
X52532Y137061D01*
X51402Y137665D01*
X50175Y138037D01*
X48900Y138163D01*
D02*
G37*
G36*
X125100Y150216D02*
X124405Y150078D01*
X123816Y149684D01*
X123707Y149522D01*
X119000D01*
X118571Y149436D01*
X118207Y149193D01*
X118207Y149193D01*
X115807Y146793D01*
X115564Y146429D01*
X115478Y146000D01*
X115478Y146000D01*
Y142248D01*
X113850Y140620D01*
X113658Y140658D01*
X112963Y140519D01*
X112374Y140126D01*
X111980Y139537D01*
X111842Y138842D01*
X111980Y138147D01*
X112374Y137558D01*
X112963Y137164D01*
X113658Y137026D01*
X114353Y137164D01*
X114942Y137558D01*
X115336Y138147D01*
X115474Y138842D01*
X115436Y139033D01*
X117393Y140990D01*
X117393Y140990D01*
X117636Y141354D01*
X117722Y141783D01*
Y145535D01*
X119465Y147278D01*
X120378D01*
X120645Y146778D01*
X120522Y146595D01*
X120384Y145900D01*
X120522Y145205D01*
X120916Y144616D01*
X121078Y144507D01*
Y142965D01*
X118092Y139978D01*
X117900Y140016D01*
X117205Y139878D01*
X116616Y139484D01*
X116222Y138895D01*
X116084Y138200D01*
X116222Y137505D01*
X116616Y136916D01*
X117205Y136522D01*
X117900Y136384D01*
X118595Y136522D01*
X119184Y136916D01*
X119578Y137505D01*
X119716Y138200D01*
X119678Y138392D01*
X122993Y141707D01*
X122993Y141707D01*
X123236Y142071D01*
X123322Y142500D01*
X123322Y142500D01*
Y144507D01*
X123484Y144616D01*
X123878Y145205D01*
X124016Y145900D01*
X123906Y146455D01*
X124280Y146771D01*
X124311Y146785D01*
X124405Y146722D01*
X125100Y146584D01*
X125795Y146722D01*
X126384Y147116D01*
X126778Y147705D01*
X126916Y148400D01*
X126778Y149095D01*
X126384Y149684D01*
X125795Y150078D01*
X125100Y150216D01*
D02*
G37*
G36*
X107400Y147816D02*
X106705Y147678D01*
X106116Y147284D01*
X105722Y146695D01*
X105584Y146000D01*
X105722Y145305D01*
X106116Y144716D01*
X106278Y144607D01*
Y139400D01*
X106278Y139400D01*
X106364Y138971D01*
X106607Y138607D01*
X107622Y137592D01*
X107584Y137400D01*
X107722Y136705D01*
X108116Y136116D01*
X108705Y135722D01*
X109400Y135584D01*
X110095Y135722D01*
X110684Y136116D01*
X111078Y136705D01*
X111216Y137400D01*
X111078Y138095D01*
X110684Y138684D01*
X110095Y139078D01*
X109400Y139216D01*
X109208Y139178D01*
X108522Y139865D01*
Y144607D01*
X108684Y144716D01*
X109078Y145305D01*
X109216Y146000D01*
X109078Y146695D01*
X108684Y147284D01*
X108095Y147678D01*
X107400Y147816D01*
D02*
G37*
G36*
X48400Y114118D02*
X44598D01*
X44681Y113488D01*
X45117Y112434D01*
X45811Y111529D01*
X46716Y110835D01*
X47769Y110399D01*
X48400Y110316D01*
Y114118D01*
D02*
G37*
G36*
X138000Y117116D02*
X137305Y116978D01*
X136716Y116584D01*
X136322Y115995D01*
X136184Y115300D01*
X136322Y114605D01*
X136716Y114016D01*
X137305Y113622D01*
X138000Y113484D01*
X138695Y113622D01*
X139284Y114016D01*
X139388Y114026D01*
X142216Y111198D01*
X142197Y111003D01*
X141803Y110414D01*
X141665Y109719D01*
X141803Y109024D01*
X142197Y108435D01*
X142786Y108041D01*
X143481Y107903D01*
X144176Y108041D01*
X144765Y108435D01*
X145159Y109024D01*
X145297Y109719D01*
X145159Y110414D01*
X144765Y111003D01*
X144603Y111112D01*
Y111519D01*
X144517Y111948D01*
X144274Y112312D01*
X144274Y112312D01*
X140493Y116093D01*
X140129Y116336D01*
X139700Y116422D01*
X139700Y116422D01*
X139393D01*
X139284Y116584D01*
X138695Y116978D01*
X138000Y117116D01*
D02*
G37*
G36*
X53202Y114118D02*
X49400D01*
Y110316D01*
X50030Y110399D01*
X51084Y110835D01*
X51989Y111529D01*
X52683Y112434D01*
X53119Y113488D01*
X53202Y114118D01*
D02*
G37*
G36*
X60711Y118599D02*
X59681Y118463D01*
X58721Y118065D01*
X57896Y117433D01*
X57264Y116608D01*
X56866Y115648D01*
X56731Y114618D01*
X56866Y113588D01*
X57264Y112628D01*
X57896Y111803D01*
X58721Y111171D01*
X59681Y110773D01*
X60711Y110638D01*
X61741Y110773D01*
X62701Y111171D01*
X63526Y111803D01*
X64158Y112628D01*
X64556Y113588D01*
X64692Y114618D01*
X64556Y115648D01*
X64158Y116608D01*
X63526Y117433D01*
X62701Y118065D01*
X61741Y118463D01*
X60711Y118599D01*
D02*
G37*
G36*
X37089D02*
X36059Y118463D01*
X35099Y118065D01*
X34274Y117433D01*
X33642Y116608D01*
X33244Y115648D01*
X33108Y114618D01*
X33244Y113588D01*
X33642Y112628D01*
X34274Y111803D01*
X35099Y111171D01*
X36059Y110773D01*
X37089Y110638D01*
X38119Y110773D01*
X39079Y111171D01*
X39904Y111803D01*
X40536Y112628D01*
X40934Y113588D01*
X41069Y114618D01*
X40934Y115648D01*
X40536Y116608D01*
X39904Y117433D01*
X39079Y118065D01*
X38119Y118463D01*
X37089Y118599D01*
D02*
G37*
%LPD*%
D19*
X97300Y70500D02*
Y111500D01*
X139700Y115300D02*
X143481Y111519D01*
X138000Y115300D02*
X139700D01*
X143481Y109719D02*
Y111519D01*
X56800Y53900D02*
X73400D01*
X28900Y49600D02*
Y108700D01*
X107400Y139400D02*
X109400Y137400D01*
X107400Y139400D02*
Y146000D01*
X132100Y106700D02*
Y114800D01*
X128700Y118200D02*
X132100Y114800D01*
Y106700D02*
X146000Y92800D01*
X117900Y138200D02*
X122200Y142500D01*
X113658Y138842D02*
X116600Y141783D01*
Y146000D01*
X122200Y142500D02*
Y145900D01*
X116600Y146000D02*
X119000Y148400D01*
X125100D01*
X139353Y84947D02*
X142347D01*
X140500Y79600D02*
X147200Y86300D01*
X124200Y79600D02*
X140500D01*
X120800Y83000D02*
X124200Y79600D01*
X142347Y84947D02*
X149900Y92500D01*
Y112500D01*
X152500Y115100D01*
X154100D01*
D21*
X35900Y40300D02*
X59300Y63700D01*
X122500Y84700D02*
Y91400D01*
X120800Y83000D02*
X122500Y84700D01*
X88400Y50400D02*
X88700D01*
X89500Y132900D02*
X96500Y125900D01*
X113600D02*
X121800Y134100D01*
X96500Y125900D02*
X113600D01*
X113300Y75300D02*
Y75500D01*
X112200Y75300D02*
X113300D01*
X103700Y83800D02*
X112200Y75300D01*
X88700Y50400D02*
X103400Y35700D01*
X113300Y75500D02*
X120800Y83000D01*
X59300Y63700D02*
Y71200D01*
X96500Y125900D02*
X113300Y109100D01*
Y75500D02*
Y109100D01*
D23*
X35300Y41000D02*
D03*
X45300D02*
D03*
X65300D02*
D03*
X55300D02*
D03*
X72242Y60300D02*
D03*
Y70300D02*
D03*
Y80300D02*
D03*
D24*
X48900Y131626D02*
D03*
D25*
Y114618D02*
D03*
X37089D02*
D03*
X60711D02*
D03*
Y102807D02*
D03*
X48900D02*
D03*
X37089D02*
D03*
D26*
X80600Y94900D02*
D03*
X110900Y119800D02*
D03*
X105100Y111000D02*
D03*
X128800Y113600D02*
D03*
X120300Y100200D02*
D03*
X35400Y129900D02*
D03*
X32500Y137100D02*
D03*
X68500Y103200D02*
D03*
X72500Y118100D02*
D03*
X88700Y148900D02*
D03*
X77500Y141400D02*
D03*
X91200Y83600D02*
D03*
X92000Y73300D02*
D03*
X108700Y85300D02*
D03*
X85300Y67800D02*
D03*
X129300Y75000D02*
D03*
X129800Y67200D02*
D03*
X100700Y74300D02*
D03*
X39600Y123200D02*
D03*
X62200Y58400D02*
D03*
X37300Y48900D02*
D03*
X105500Y56400D02*
D03*
X81900Y77100D02*
D03*
X62600Y83600D02*
D03*
X55100Y66700D02*
D03*
X73200Y43700D02*
D03*
X82800Y35400D02*
D03*
X31700Y92100D02*
D03*
X55400Y93500D02*
D03*
X116800Y86900D02*
D03*
X100100Y83200D02*
D03*
X150100Y54300D02*
D03*
X127900Y53300D02*
D03*
X161400Y93600D02*
D03*
X157600Y132700D02*
D03*
X151100Y129100D02*
D03*
X162000Y78600D02*
D03*
X114100Y148400D02*
D03*
X139100Y126800D02*
D03*
D27*
X122500Y91400D02*
D03*
X121800Y134100D02*
D03*
X89500Y132900D02*
D03*
X97300Y111500D02*
D03*
X103700Y83800D02*
D03*
X138000Y115300D02*
D03*
X143481Y109719D02*
D03*
X103400Y35700D02*
D03*
X120800Y83000D02*
D03*
X59300Y71200D02*
D03*
X73400Y53900D02*
D03*
X56800D02*
D03*
X28900Y108700D02*
D03*
Y49600D02*
D03*
X97300Y70500D02*
D03*
X109400Y137400D02*
D03*
X113658Y138842D02*
D03*
X117900Y138200D02*
D03*
X128700Y118200D02*
D03*
X146000Y92800D02*
D03*
X107400Y146000D02*
D03*
X122200Y145900D02*
D03*
X125100Y148400D02*
D03*
X147200Y86300D02*
D03*
X139353Y84947D02*
D03*
X154100Y115100D02*
D03*
D28*
X113300Y75300D02*
D03*
D29*
X88400Y50400D02*
X113300Y75300D01*
X69700Y31700D02*
X88400Y50400D01*
X44500Y31700D02*
X69700D01*
X35900Y40300D02*
X44500Y31700D01*
M02*
