G04 Layer_Color=8388736*
%FSLAX25Y25*%
%MOIN*%
G70*
G01*
G75*
%ADD34O,0.07087X0.02677*%
%ADD35O,0.01969X0.07874*%
%ADD36O,0.07874X0.01969*%
%ADD37O,0.03150X0.06693*%
%ADD38R,0.06299X0.06890*%
%ADD39R,0.04331X0.03543*%
%ADD40R,0.03543X0.04331*%
%ADD41R,0.10236X0.03780*%
%ADD42R,0.03937X0.03937*%
%ADD43C,0.08661*%
%ADD44C,0.12598*%
%ADD45C,0.07480*%
%ADD46C,0.03187*%
%ADD47C,0.03150*%
%ADD48C,0.03787*%
D34*
X131255Y27461D02*
D03*
Y30020D02*
D03*
Y32579D02*
D03*
Y35139D02*
D03*
X113145Y27461D02*
D03*
Y30020D02*
D03*
Y32579D02*
D03*
Y35139D02*
D03*
D35*
X93973Y131245D02*
D03*
X95942D02*
D03*
X97910D02*
D03*
X99879D02*
D03*
X101847D02*
D03*
X103816D02*
D03*
X105784D02*
D03*
X107753D02*
D03*
X109721D02*
D03*
X111690D02*
D03*
X113658D02*
D03*
X115627D02*
D03*
Y99355D02*
D03*
X113658D02*
D03*
X111690D02*
D03*
X109721D02*
D03*
X107753D02*
D03*
X105784D02*
D03*
X103816D02*
D03*
X101847D02*
D03*
X99879D02*
D03*
X97910D02*
D03*
X95942D02*
D03*
X93973D02*
D03*
D36*
X120745Y126127D02*
D03*
Y124158D02*
D03*
Y122190D02*
D03*
Y120221D02*
D03*
Y118253D02*
D03*
Y116284D02*
D03*
Y114316D02*
D03*
Y112347D02*
D03*
Y110379D02*
D03*
Y108410D02*
D03*
Y106442D02*
D03*
Y104473D02*
D03*
X88855D02*
D03*
Y106442D02*
D03*
Y108410D02*
D03*
Y110379D02*
D03*
Y112347D02*
D03*
Y114316D02*
D03*
Y116284D02*
D03*
Y118253D02*
D03*
Y120221D02*
D03*
Y122190D02*
D03*
Y124158D02*
D03*
Y126127D02*
D03*
D37*
X50600Y76330D02*
D03*
X45600D02*
D03*
X40600D02*
D03*
X35600D02*
D03*
X50600Y55070D02*
D03*
X45600D02*
D03*
X40600D02*
D03*
X35600D02*
D03*
D38*
X118890Y76399D02*
D03*
Y45100D02*
D03*
X137000Y76399D02*
D03*
Y45100D02*
D03*
D39*
X106100Y70944D02*
D03*
Y76456D02*
D03*
X82600Y138609D02*
D03*
Y133097D02*
D03*
X80300Y114356D02*
D03*
Y108844D02*
D03*
X130000Y122844D02*
D03*
Y128356D02*
D03*
D40*
X46156Y92300D02*
D03*
X40644D02*
D03*
X137756Y108500D02*
D03*
X132244D02*
D03*
X137856Y101000D02*
D03*
X132344D02*
D03*
X112044Y91200D02*
D03*
X117556D02*
D03*
X95156Y141100D02*
D03*
X89644D02*
D03*
X130091Y84947D02*
D03*
X135603D02*
D03*
X99544Y27800D02*
D03*
X105056D02*
D03*
D41*
X153823Y110600D02*
D03*
X169177D02*
D03*
X153823Y105600D02*
D03*
X169177D02*
D03*
X153823Y100600D02*
D03*
X169177D02*
D03*
X153823Y95600D02*
D03*
X169177D02*
D03*
X153823Y90600D02*
D03*
X169177D02*
D03*
D42*
X46769Y84800D02*
D03*
X55431D02*
D03*
X39831Y84900D02*
D03*
X31169D02*
D03*
D43*
X35300Y41000D02*
D03*
X45300D02*
D03*
X65300D02*
D03*
X55300D02*
D03*
X72242Y60300D02*
D03*
Y70300D02*
D03*
Y80300D02*
D03*
D44*
X48900Y131626D02*
D03*
D45*
Y114618D02*
D03*
X37089D02*
D03*
X60711D02*
D03*
Y102807D02*
D03*
X48900D02*
D03*
X37089D02*
D03*
D46*
X80600Y94900D02*
D03*
X110900Y119800D02*
D03*
X105100Y111000D02*
D03*
X128800Y113600D02*
D03*
X120300Y100200D02*
D03*
X35400Y129900D02*
D03*
X32500Y137100D02*
D03*
X68500Y103200D02*
D03*
X72500Y118100D02*
D03*
X88700Y148900D02*
D03*
X77500Y141400D02*
D03*
X91200Y83600D02*
D03*
X92000Y73300D02*
D03*
X108700Y85300D02*
D03*
X85300Y67800D02*
D03*
X129300Y75000D02*
D03*
X129800Y67200D02*
D03*
X100700Y74300D02*
D03*
X39600Y123200D02*
D03*
X62200Y58400D02*
D03*
X37300Y48900D02*
D03*
X105500Y56400D02*
D03*
X81900Y77100D02*
D03*
X62600Y83600D02*
D03*
X55100Y66700D02*
D03*
X73200Y43700D02*
D03*
X82800Y35400D02*
D03*
X31700Y92100D02*
D03*
X55400Y93500D02*
D03*
X116800Y86900D02*
D03*
X100100Y83200D02*
D03*
X150100Y54300D02*
D03*
X127900Y53300D02*
D03*
X161400Y93600D02*
D03*
X157600Y132700D02*
D03*
X151100Y129100D02*
D03*
X162000Y78600D02*
D03*
X114100Y148400D02*
D03*
X139100Y126800D02*
D03*
D47*
X122500Y91400D02*
D03*
X121800Y134100D02*
D03*
X89500Y132900D02*
D03*
X97300Y111500D02*
D03*
X103700Y83800D02*
D03*
X138000Y115300D02*
D03*
X143481Y109719D02*
D03*
X103400Y35700D02*
D03*
X120800Y83000D02*
D03*
X59300Y71200D02*
D03*
X73400Y53900D02*
D03*
X56800D02*
D03*
X28900Y108700D02*
D03*
Y49600D02*
D03*
X97300Y70500D02*
D03*
X109400Y137400D02*
D03*
X113658Y138842D02*
D03*
X117900Y138200D02*
D03*
X128700Y118200D02*
D03*
X146000Y92800D02*
D03*
X107400Y146000D02*
D03*
X122200Y145900D02*
D03*
X125100Y148400D02*
D03*
X147200Y86300D02*
D03*
X139353Y84947D02*
D03*
X154100Y115100D02*
D03*
D48*
X113300Y75300D02*
D03*
M02*
