G04 Layer_Color=16711935*
%FSLAX25Y25*%
%MOIN*%
G70*
G01*
G75*
%ADD43C,0.08661*%
%ADD44C,0.12598*%
%ADD45C,0.07480*%
%ADD46C,0.03187*%
%ADD47C,0.03150*%
%ADD48C,0.03787*%
D43*
X35300Y41000D02*
D03*
X45300D02*
D03*
X65300D02*
D03*
X55300D02*
D03*
X72242Y60300D02*
D03*
Y70300D02*
D03*
Y80300D02*
D03*
D44*
X48900Y131626D02*
D03*
D45*
Y114618D02*
D03*
X37089D02*
D03*
X60711D02*
D03*
Y102807D02*
D03*
X48900D02*
D03*
X37089D02*
D03*
D46*
X80600Y94900D02*
D03*
X110900Y119800D02*
D03*
X105100Y111000D02*
D03*
X128800Y113600D02*
D03*
X120300Y100200D02*
D03*
X35400Y129900D02*
D03*
X32500Y137100D02*
D03*
X68500Y103200D02*
D03*
X72500Y118100D02*
D03*
X88700Y148900D02*
D03*
X77500Y141400D02*
D03*
X91200Y83600D02*
D03*
X92000Y73300D02*
D03*
X108700Y85300D02*
D03*
X85300Y67800D02*
D03*
X129300Y75000D02*
D03*
X129800Y67200D02*
D03*
X100700Y74300D02*
D03*
X39600Y123200D02*
D03*
X62200Y58400D02*
D03*
X37300Y48900D02*
D03*
X105500Y56400D02*
D03*
X81900Y77100D02*
D03*
X62600Y83600D02*
D03*
X55100Y66700D02*
D03*
X73200Y43700D02*
D03*
X82800Y35400D02*
D03*
X31700Y92100D02*
D03*
X55400Y93500D02*
D03*
X116800Y86900D02*
D03*
X100100Y83200D02*
D03*
X150100Y54300D02*
D03*
X127900Y53300D02*
D03*
X161400Y93600D02*
D03*
X157600Y132700D02*
D03*
X151100Y129100D02*
D03*
X162000Y78600D02*
D03*
X114100Y148400D02*
D03*
X139100Y126800D02*
D03*
D47*
X122500Y91400D02*
D03*
X121800Y134100D02*
D03*
X89500Y132900D02*
D03*
X97300Y111500D02*
D03*
X103700Y83800D02*
D03*
X138000Y115300D02*
D03*
X143481Y109719D02*
D03*
X103400Y35700D02*
D03*
X120800Y83000D02*
D03*
X59300Y71200D02*
D03*
X73400Y53900D02*
D03*
X56800D02*
D03*
X28900Y108700D02*
D03*
Y49600D02*
D03*
X97300Y70500D02*
D03*
X109400Y137400D02*
D03*
X113658Y138842D02*
D03*
X117900Y138200D02*
D03*
X128700Y118200D02*
D03*
X146000Y92800D02*
D03*
X107400Y146000D02*
D03*
X122200Y145900D02*
D03*
X125100Y148400D02*
D03*
X147200Y86300D02*
D03*
X139353Y84947D02*
D03*
X154100Y115100D02*
D03*
D48*
X113300Y75300D02*
D03*
M02*
