M48
;Layer_Color=9474304
;FILE_FORMAT=2:5
INCH,LZ
;TYPE=PLATED
T1F00S00C0.01181
T2F00S00C0.01200
T3F00S00C0.01600
T4F00S00C0.04016
T5F00S00C0.04528
;TYPE=NON_PLATED
T6F00S00C0.11811
%
T01
X00289Y00496
X00568Y00539
X00734
X00593Y00712
X00973Y00705
X01037Y00838
X01208Y0083
X01225Y00914
X0139353Y0084947
X01472Y00863
X0146Y00928
X0143481Y0109719
X0138Y01153
X01287Y01182
X01218Y01341
X01179Y01382
X0113658Y0138842
X01094Y01374
X01074Y0146
X01222Y01459
X01251Y01484
X00895Y01329
X00973Y01115
X01541Y01151
X01034Y00357
X00289Y01087
T02
X00373Y00489
X00622Y00584
X00551Y00667
X00626Y00836
X00554Y00935
X00685Y01032
X00725Y01181
X00775Y01414
X00887Y01489
X01141Y01484
X01109Y01198
X01051Y0111
X01203Y01002
X01168Y00869
X01087Y00853
X01001Y00832
X00912Y00836
X0092Y00733
X01007Y00743
X00819Y00771
X00853Y00678
X01055Y00564
X01279Y00533
X01298Y00672
X01293Y0075
X01288Y01136
X01391Y01268
X01511Y01291
X01501Y00543
X00828Y00354
X00732Y00437
X00806Y00949
X00317Y00921
X00396Y01232
X00354Y01299
X00325Y01371
X01576Y01327
X01614Y00936
X0162Y00786
T03
X01133Y00753
T04
X0037089Y0102807
X00489
X0060711
Y0114618
X00489
X0037089
T05
X00353Y0041
X00453
X00553
X00653
X0072242Y00603
Y00703
Y00803
T06
X00489Y0131626
M30
