M48
;Layer_Color=9474304
;FILE_FORMAT=4:4
METRIC,LZ
;TYPE=PLATED
T1F00S00C0.3000
T2F00S00C0.3048
T3F00S00C0.4064
T4F00S00C1.0200
T5F00S00C1.1500
T6F00S00C3.0000
%
T01
X00073406Y00125984
X00144272Y00136906
X00186436
X00150622Y00180848
X00247142Y0017907
X00263398Y00212852
X00306832Y0021082
X0031115Y00232156
X00364442Y00278686
X0035052Y00292862
X00309372Y00340614
X0022733Y00337566
X00247142Y0028321
X00073406Y00276098
X00262636Y00090678
T02
X00094742Y00124206
X00157988Y00148336
X00139954Y00169418
X00159004Y00212344
X00140716Y0023749
X0017399Y00262128
X0018415Y00299974
X0019685Y00359156
X00225298Y00378206
X00314198Y00372872
X00299974Y00351536
X00281686Y00304292
X00266954Y0028194
X00305562Y00254508
X00296672Y00220726
X00276098Y00216662
X00254254Y00211328
X00231648Y00212344
X0023368Y00186182
X00255778Y00188722
X00208026Y00195834
X00216662Y00172212
X0026797Y00143256
X00329692Y00170688
X00328422Y001905
X00327152Y00288544
X00204724Y00241046
X00080518Y00233934
X00100584Y00312928
X00089916Y00329946
X0008255Y00348234
X00185928Y00110998
X00210312Y00089916
T03
X00287782Y00191262
T04
X0009446Y00258778
X0012446
X0015446
Y00288778
X0012446
X0009446
T05
X00091186Y00102362
X00116586
X00141986
X00167386
X00183896Y00160274
Y00185674
Y00211074
T06
X0012446Y00331978
M30
