G04 Layer_Physical_Order=2*
G04 Layer_Color=16711680*
%FSLAX44Y44*%
%MOMM*%
G71*
G01*
G75*
%ADD18C,0.2540*%
%ADD19C,0.5080*%
%ADD22C,2.0000*%
%ADD23C,3.5000*%
%ADD24C,1.7000*%
%ADD25C,0.6096*%
%ADD26C,0.6000*%
%ADD27C,0.7620*%
%ADD28C,0.6350*%
G36*
X368046Y285179D02*
X366776Y284794D01*
X366456Y285272D01*
X366456Y285272D01*
X356852Y294876D01*
X355928Y295494D01*
X354838Y295711D01*
X354838Y295711D01*
X354058D01*
X353782Y296124D01*
X352285Y297124D01*
X350520Y297475D01*
X348755Y297124D01*
X347258Y296124D01*
X346259Y294627D01*
X345907Y292862D01*
X346259Y291097D01*
X347258Y289600D01*
X348755Y288601D01*
X350520Y288249D01*
X352285Y288601D01*
X353782Y289600D01*
X354045Y289626D01*
X361229Y282442D01*
X361180Y281948D01*
X360181Y280451D01*
X359829Y278686D01*
X360181Y276921D01*
X361180Y275424D01*
X362677Y274424D01*
X364442Y274073D01*
X366207Y274424D01*
X366776Y274805D01*
X368046Y274126D01*
X368046Y111252D01*
X289906Y111252D01*
X287274Y108712D01*
X270164Y92202D01*
X266945D01*
X266898Y92443D01*
X265898Y93940D01*
X264401Y94939D01*
X264193Y94981D01*
X231235Y127939D01*
X289451Y186155D01*
X289863Y186238D01*
X291628Y187416D01*
X292806Y189181D01*
X293221Y191262D01*
X293206Y191334D01*
X308389Y206517D01*
X308597Y206558D01*
X310094Y207558D01*
X311094Y209055D01*
X311135Y209263D01*
X314080Y212208D01*
X314978Y213552D01*
X315294Y215138D01*
Y230214D01*
X315411Y230391D01*
X315763Y232156D01*
X315411Y233921D01*
X314412Y235418D01*
X312915Y236418D01*
X311150Y236769D01*
X309385Y236418D01*
X307888Y235418D01*
X306889Y233921D01*
X306537Y232156D01*
X306889Y230391D01*
X307006Y230214D01*
Y216854D01*
X305275Y215123D01*
X305067Y215082D01*
X303570Y214082D01*
X302570Y212585D01*
X302529Y212377D01*
X293099Y202947D01*
X291926Y203433D01*
Y277114D01*
X291610Y278700D01*
X290712Y280044D01*
X256287Y314469D01*
X256773Y315642D01*
X288544D01*
X290130Y315958D01*
X291474Y316856D01*
X310929Y336311D01*
X311137Y336353D01*
X312634Y337352D01*
X313633Y338849D01*
X313985Y340614D01*
X313633Y342379D01*
X312634Y343876D01*
X311137Y344875D01*
X309372Y345227D01*
X307607Y344875D01*
X306110Y343876D01*
X305110Y342379D01*
X305069Y342171D01*
X286828Y323930D01*
X246826D01*
X231633Y339123D01*
X231591Y339331D01*
X230592Y340828D01*
X229095Y341828D01*
X227330Y342179D01*
X225565Y341828D01*
X224068Y340828D01*
X223069Y339331D01*
X222717Y337566D01*
X223069Y335801D01*
X224068Y334304D01*
X225565Y333304D01*
X225773Y333263D01*
X242180Y316856D01*
X283638Y275398D01*
Y200131D01*
X282465Y199645D01*
X267701Y214409D01*
X267659Y214617D01*
X266660Y216114D01*
X265163Y217113D01*
X263398Y217465D01*
X261633Y217113D01*
X260136Y216114D01*
X259137Y214617D01*
X258785Y212852D01*
X259137Y211087D01*
X260136Y209590D01*
X261633Y208591D01*
X261841Y208549D01*
X280067Y190323D01*
X221148Y131404D01*
X221148Y131404D01*
X175054Y85309D01*
X115014D01*
X110236Y90088D01*
X110955Y91164D01*
X113323Y90184D01*
X115316Y89921D01*
Y102362D01*
Y114803D01*
X113323Y114540D01*
X110282Y113281D01*
X108042Y111562D01*
X107203Y112519D01*
X153552Y158868D01*
X154450Y160212D01*
X154766Y161798D01*
Y178906D01*
X154883Y179083D01*
X155235Y180848D01*
X154883Y182613D01*
X153884Y184110D01*
X152387Y185110D01*
X150622Y185461D01*
X148857Y185110D01*
X147360Y184110D01*
X146361Y182613D01*
X146009Y180848D01*
X146361Y179083D01*
X146478Y178906D01*
Y163514D01*
X95863Y112899D01*
X94194Y113589D01*
X91186Y113985D01*
X88178Y113589D01*
X85374Y112428D01*
X82967Y110581D01*
X81120Y108174D01*
X79959Y105370D01*
X79563Y102362D01*
X79959Y99354D01*
X81120Y96550D01*
X82967Y94143D01*
X85374Y92296D01*
X88178Y91135D01*
X91186Y90739D01*
X94194Y91135D01*
X95215Y91557D01*
X109642Y77130D01*
X111197Y76092D01*
X113030Y75727D01*
X177038D01*
X178871Y76092D01*
X180426Y77130D01*
X225375Y122079D01*
X254079Y93375D01*
X253593Y92202D01*
X237236Y92202D01*
X223012Y76962D01*
X223012Y51816D01*
X55891Y51816D01*
Y382524D01*
X368046Y382524D01*
X368046Y285179D01*
D02*
G37*
%LPC*%
G36*
X196337Y184404D02*
X183896D01*
X171455D01*
X171718Y182411D01*
X172977Y179370D01*
X174981Y176759D01*
X177592Y174755D01*
X180633Y173496D01*
X183074Y173174D01*
X183470Y173122D01*
Y171841D01*
X183074Y171789D01*
X180888Y171501D01*
X178084Y170340D01*
X175677Y168493D01*
X173830Y166086D01*
X172669Y163282D01*
X172273Y160274D01*
X172669Y157266D01*
X173830Y154462D01*
X175677Y152055D01*
X178084Y150208D01*
X180888Y149047D01*
X183896Y148651D01*
X186904Y149047D01*
X189708Y150208D01*
X192115Y152055D01*
X193962Y154462D01*
X195123Y157266D01*
X195519Y160274D01*
X195123Y163282D01*
X193962Y166086D01*
X192115Y168493D01*
X189708Y170340D01*
X186904Y171501D01*
X184718Y171789D01*
X184322Y171841D01*
Y173122D01*
X184718Y173174D01*
X187159Y173496D01*
X190200Y174755D01*
X192811Y176759D01*
X194815Y179370D01*
X196074Y182411D01*
X196337Y184404D01*
D02*
G37*
G36*
X247142Y287823D02*
X245377Y287472D01*
X243880Y286472D01*
X242880Y284975D01*
X242529Y283210D01*
X242880Y281445D01*
X243880Y279948D01*
X244293Y279673D01*
Y182607D01*
X243880Y182332D01*
X242880Y180835D01*
X242529Y179070D01*
X242880Y177305D01*
X243880Y175808D01*
X245377Y174809D01*
X247142Y174457D01*
X248907Y174809D01*
X250404Y175808D01*
X251404Y177305D01*
X251755Y179070D01*
X251404Y180835D01*
X250404Y182332D01*
X249991Y182607D01*
Y279673D01*
X250404Y279948D01*
X251404Y281445D01*
X251755Y283210D01*
X251404Y284975D01*
X250404Y286472D01*
X248907Y287472D01*
X247142Y287823D01*
D02*
G37*
G36*
X94460Y268888D02*
X91843Y268544D01*
X89405Y267534D01*
X87311Y265927D01*
X85704Y263833D01*
X84694Y261395D01*
X84349Y258778D01*
X84694Y256161D01*
X85704Y253723D01*
X87311Y251629D01*
X89405Y250022D01*
X91843Y249012D01*
X94460Y248668D01*
X97077Y249012D01*
X99515Y250022D01*
X101609Y251629D01*
X103216Y253723D01*
X104226Y256161D01*
X104571Y258778D01*
X104226Y261395D01*
X103216Y263833D01*
X101609Y265927D01*
X99515Y267534D01*
X97077Y268544D01*
X94460Y268888D01*
D02*
G37*
G36*
X183896Y222697D02*
X180888Y222301D01*
X178084Y221140D01*
X175677Y219293D01*
X173830Y216886D01*
X172669Y214082D01*
X172273Y211074D01*
X172669Y208066D01*
X173830Y205262D01*
X175677Y202855D01*
X178084Y201008D01*
X180888Y199847D01*
X183074Y199559D01*
X183470Y199507D01*
Y198226D01*
X183074Y198174D01*
X180633Y197852D01*
X177592Y196593D01*
X174981Y194589D01*
X172977Y191978D01*
X171718Y188937D01*
X171455Y186944D01*
X183896D01*
X196337D01*
X196074Y188937D01*
X194815Y191978D01*
X192811Y194589D01*
X190200Y196593D01*
X187159Y197852D01*
X184718Y198174D01*
X184322Y198226D01*
Y199507D01*
X184718Y199559D01*
X186904Y199847D01*
X189708Y201008D01*
X192115Y202855D01*
X193962Y205262D01*
X195123Y208066D01*
X195519Y211074D01*
X195123Y214082D01*
X193962Y216886D01*
X192115Y219293D01*
X189708Y221140D01*
X186904Y222301D01*
X183896Y222697D01*
D02*
G37*
G36*
X186436Y141519D02*
X184671Y141167D01*
X183174Y140168D01*
X182899Y139755D01*
X147809D01*
X147534Y140168D01*
X146037Y141167D01*
X144272Y141519D01*
X142507Y141167D01*
X141010Y140168D01*
X140010Y138671D01*
X139659Y136906D01*
X140010Y135141D01*
X141010Y133644D01*
X142507Y132645D01*
X144272Y132293D01*
X146037Y132645D01*
X147534Y133644D01*
X147809Y134057D01*
X182899D01*
X183174Y133644D01*
X184671Y132645D01*
X186436Y132293D01*
X188201Y132645D01*
X189698Y133644D01*
X190697Y135141D01*
X191049Y136906D01*
X190697Y138671D01*
X189698Y140168D01*
X188201Y141167D01*
X186436Y141519D01*
D02*
G37*
G36*
X179827Y101092D02*
X168656D01*
Y89921D01*
X170649Y90184D01*
X173690Y91443D01*
X176301Y93447D01*
X178305Y96058D01*
X179564Y99099D01*
X179827Y101092D01*
D02*
G37*
G36*
X117856Y114803D02*
Y102362D01*
Y89921D01*
X119849Y90184D01*
X122890Y91443D01*
X125501Y93447D01*
X127505Y96058D01*
X128764Y99099D01*
X129086Y101540D01*
X129138Y101936D01*
X130419D01*
X130471Y101540D01*
X130759Y99354D01*
X131920Y96550D01*
X133767Y94143D01*
X136174Y92296D01*
X138978Y91135D01*
X141986Y90739D01*
X144994Y91135D01*
X147798Y92296D01*
X150205Y94143D01*
X152052Y96550D01*
X153213Y99354D01*
X153501Y101540D01*
X153553Y101936D01*
X154834D01*
X154886Y101540D01*
X155208Y99099D01*
X156467Y96058D01*
X158471Y93447D01*
X161082Y91443D01*
X164123Y90184D01*
X166116Y89921D01*
Y102362D01*
Y114803D01*
X164123Y114540D01*
X161082Y113281D01*
X158471Y111277D01*
X156467Y108666D01*
X155208Y105625D01*
X154886Y103184D01*
X154834Y102788D01*
X153553D01*
X153501Y103184D01*
X153213Y105370D01*
X152052Y108174D01*
X150205Y110581D01*
X147798Y112428D01*
X144994Y113589D01*
X141986Y113985D01*
X138978Y113589D01*
X136174Y112428D01*
X133767Y110581D01*
X131920Y108174D01*
X130759Y105370D01*
X130471Y103184D01*
X130419Y102788D01*
X129138D01*
X129086Y103184D01*
X128764Y105625D01*
X127505Y108666D01*
X125501Y111277D01*
X122890Y113281D01*
X119849Y114540D01*
X117856Y114803D01*
D02*
G37*
G36*
X73406Y280711D02*
X71641Y280359D01*
X70144Y279360D01*
X69145Y277863D01*
X68793Y276098D01*
X69145Y274333D01*
X70144Y272836D01*
X70557Y272561D01*
Y129522D01*
X70144Y129246D01*
X69145Y127749D01*
X68793Y125984D01*
X69145Y124219D01*
X70144Y122722D01*
X71641Y121722D01*
X73406Y121371D01*
X75171Y121722D01*
X76668Y122722D01*
X77667Y124219D01*
X78019Y125984D01*
X77667Y127749D01*
X76668Y129246D01*
X76255Y129522D01*
Y272561D01*
X76668Y272836D01*
X77667Y274333D01*
X78019Y276098D01*
X77667Y277863D01*
X76668Y279360D01*
X75171Y280359D01*
X73406Y280711D01*
D02*
G37*
G36*
X168656Y114803D02*
Y103632D01*
X179827D01*
X179564Y105625D01*
X178305Y108666D01*
X176301Y111277D01*
X173690Y113281D01*
X170649Y114540D01*
X168656Y114803D01*
D02*
G37*
G36*
X123190Y299706D02*
X121588Y299495D01*
X118912Y298386D01*
X116615Y296623D01*
X114852Y294325D01*
X113743Y291650D01*
X113532Y290048D01*
X123190D01*
Y299706D01*
D02*
G37*
G36*
X154460Y298888D02*
X151843Y298544D01*
X149405Y297534D01*
X147311Y295927D01*
X145704Y293833D01*
X144694Y291395D01*
X144349Y288778D01*
X144694Y286161D01*
X145704Y283723D01*
X147311Y281629D01*
X149405Y280022D01*
X151843Y279012D01*
X154460Y278668D01*
X157077Y279012D01*
X159515Y280022D01*
X161609Y281629D01*
X163216Y283723D01*
X164226Y286161D01*
X164571Y288778D01*
X164226Y291395D01*
X163216Y293833D01*
X161609Y295927D01*
X159515Y297534D01*
X157077Y298544D01*
X154460Y298888D01*
D02*
G37*
G36*
X124460Y351094D02*
X120731Y350727D01*
X117145Y349639D01*
X113840Y347872D01*
X110943Y345495D01*
X108566Y342598D01*
X106799Y339293D01*
X105711Y335707D01*
X105344Y331978D01*
X105711Y328249D01*
X106799Y324663D01*
X108566Y321358D01*
X110943Y318461D01*
X113840Y316084D01*
X117145Y314317D01*
X120731Y313229D01*
X124460Y312862D01*
X128189Y313229D01*
X131775Y314317D01*
X135080Y316084D01*
X137977Y318461D01*
X140354Y321358D01*
X142121Y324663D01*
X143209Y328249D01*
X143576Y331978D01*
X143209Y335707D01*
X142121Y339293D01*
X140354Y342598D01*
X137977Y345495D01*
X135080Y347872D01*
X131775Y349639D01*
X128189Y350727D01*
X124460Y351094D01*
D02*
G37*
G36*
X125730Y299706D02*
Y290048D01*
X135388D01*
X135177Y291650D01*
X134068Y294325D01*
X132305Y296623D01*
X130007Y298386D01*
X127332Y299495D01*
X125730Y299706D01*
D02*
G37*
G36*
X94460Y298888D02*
X91843Y298544D01*
X89405Y297534D01*
X87311Y295927D01*
X85704Y293833D01*
X84694Y291395D01*
X84349Y288778D01*
X84694Y286161D01*
X85704Y283723D01*
X87311Y281629D01*
X89405Y280022D01*
X91843Y279012D01*
X94460Y278668D01*
X97077Y279012D01*
X99515Y280022D01*
X101609Y281629D01*
X103216Y283723D01*
X104226Y286161D01*
X104571Y288778D01*
X104226Y291395D01*
X103216Y293833D01*
X101609Y295927D01*
X99515Y297534D01*
X97077Y298544D01*
X94460Y298888D01*
D02*
G37*
G36*
X154460Y268888D02*
X151843Y268544D01*
X149405Y267534D01*
X147311Y265927D01*
X145704Y263833D01*
X144694Y261395D01*
X144349Y258778D01*
X144694Y256161D01*
X145704Y253723D01*
X147311Y251629D01*
X149405Y250022D01*
X151843Y249012D01*
X154460Y248668D01*
X157077Y249012D01*
X159515Y250022D01*
X161609Y251629D01*
X163216Y253723D01*
X164226Y256161D01*
X164571Y258778D01*
X164226Y261395D01*
X163216Y263833D01*
X161609Y265927D01*
X159515Y267534D01*
X157077Y268544D01*
X154460Y268888D01*
D02*
G37*
G36*
X124460D02*
X121843Y268544D01*
X119405Y267534D01*
X117311Y265927D01*
X115704Y263833D01*
X114694Y261395D01*
X114349Y258778D01*
X114694Y256161D01*
X115704Y253723D01*
X117311Y251629D01*
X119405Y250022D01*
X121843Y249012D01*
X124460Y248668D01*
X127077Y249012D01*
X129515Y250022D01*
X131609Y251629D01*
X133216Y253723D01*
X134226Y256161D01*
X134571Y258778D01*
X134226Y261395D01*
X133216Y263833D01*
X131609Y265927D01*
X129515Y267534D01*
X127077Y268544D01*
X124460Y268888D01*
D02*
G37*
G36*
X135388Y287508D02*
X125730D01*
Y277850D01*
X127332Y278061D01*
X130007Y279170D01*
X132305Y280933D01*
X134068Y283231D01*
X135177Y285906D01*
X135388Y287508D01*
D02*
G37*
G36*
X123190D02*
X113532D01*
X113743Y285906D01*
X114852Y283231D01*
X116615Y280933D01*
X118912Y279170D01*
X121588Y278061D01*
X123190Y277850D01*
Y287508D01*
D02*
G37*
%LPD*%
D18*
X247142Y179070D02*
Y283210D01*
X354838Y292862D02*
X364442Y283258D01*
X350520Y292862D02*
X354838D01*
X364442Y278686D02*
Y283258D01*
X144272Y136906D02*
X186436D01*
X73406Y125984D02*
Y276098D01*
D19*
X311150Y215138D02*
Y232156D01*
X306832Y210820D02*
X311150Y215138D01*
X224536Y128016D02*
X225298D01*
X227330Y337566D02*
X245110Y319786D01*
X288544D02*
X309372Y340614D01*
X245110Y319786D02*
X288544D01*
X287782Y191262D02*
Y191770D01*
X284988Y191262D02*
X287782D01*
X263398Y212852D02*
X284988Y191262D01*
X91186Y102362D02*
X150622Y161798D01*
X225298Y128016D02*
X262636Y90678D01*
X287782Y191770D02*
X306832Y210820D01*
X150622Y161798D02*
Y180848D01*
X245110Y319786D02*
X287782Y277114D01*
Y191770D02*
Y277114D01*
D22*
X91186Y102362D02*
D03*
X116586D02*
D03*
X167386D02*
D03*
X141986D02*
D03*
X183896Y211074D02*
D03*
Y185674D02*
D03*
Y160274D02*
D03*
D23*
X124460Y331978D02*
D03*
D24*
Y288778D02*
D03*
X94460D02*
D03*
X154460D02*
D03*
Y258778D02*
D03*
X124460D02*
D03*
X94460D02*
D03*
D25*
X314198Y372872D02*
D03*
X299974Y351536D02*
D03*
X204724Y241046D02*
D03*
X281686Y304292D02*
D03*
X266954Y281940D02*
D03*
X327152Y288544D02*
D03*
X305562Y254508D02*
D03*
X89916Y329946D02*
D03*
X82550Y348234D02*
D03*
X173990Y262128D02*
D03*
X184150Y299974D02*
D03*
X225298Y378206D02*
D03*
X196850Y359156D02*
D03*
X231648Y212344D02*
D03*
X233680Y186182D02*
D03*
X276098Y216662D02*
D03*
X216662Y172212D02*
D03*
X328422Y190500D02*
D03*
X329692Y170688D02*
D03*
X255778Y188722D02*
D03*
X100584Y312928D02*
D03*
X157988Y148336D02*
D03*
X94742Y124206D02*
D03*
X267970Y143256D02*
D03*
X208026Y195834D02*
D03*
X159004Y212344D02*
D03*
X139954Y169418D02*
D03*
X185928Y110998D02*
D03*
X210312Y89916D02*
D03*
X80518Y233934D02*
D03*
X140716Y237490D02*
D03*
X296672Y220726D02*
D03*
X254254Y211328D02*
D03*
D26*
X311150Y232156D02*
D03*
X309372Y340614D02*
D03*
X227330Y337566D02*
D03*
X247142Y283210D02*
D03*
X263398Y212852D02*
D03*
X350520Y292862D02*
D03*
X364442Y278686D02*
D03*
X262636Y90678D02*
D03*
X306832Y210820D02*
D03*
X150622Y180848D02*
D03*
X186436Y136906D02*
D03*
X144272D02*
D03*
X73406Y276098D02*
D03*
Y125984D02*
D03*
X247142Y179070D02*
D03*
D27*
X287782Y191262D02*
D03*
D28*
X224536Y128016D02*
X287782Y191262D01*
X177038Y80518D02*
X224536Y128016D01*
X113030Y80518D02*
X177038D01*
X91186Y102362D02*
X113030Y80518D01*
M02*
