G04 Layer_Physical_Order=1*
G04 Layer_Color=255*
%FSLAX44Y44*%
%MOMM*%
G71*
G01*
G75*
%ADD10R,0.8000X0.5000*%
%ADD11O,1.8000X0.3000*%
%ADD12O,0.3000X1.8000*%
%ADD13O,1.6000X0.4800*%
%ADD14R,0.5000X0.8000*%
%ADD15O,0.6000X1.5000*%
%ADD16R,0.8000X0.8000*%
%ADD17R,1.4000X1.5500*%
%ADD18C,0.2540*%
%ADD19C,0.5080*%
%ADD20C,0.2500*%
%ADD21C,0.3810*%
%ADD22C,2.0000*%
%ADD23C,3.5000*%
%ADD24C,1.7000*%
%ADD25C,0.6096*%
%ADD26C,0.6000*%
%ADD27C,0.7620*%
G36*
X357069Y86778D02*
X349372Y79080D01*
X342668D01*
X342103Y80350D01*
X342684Y81221D01*
X342989Y82752D01*
X342684Y84283D01*
X341970Y85352D01*
X342521Y85719D01*
X343604Y87340D01*
X343731Y87982D01*
X333388D01*
X323045D01*
X323172Y87340D01*
X324255Y85719D01*
X324806Y85352D01*
X324092Y84283D01*
X323787Y82752D01*
X324092Y81221D01*
X324959Y79923D01*
Y79081D01*
X324092Y77783D01*
X323787Y76252D01*
X324092Y74721D01*
X324642Y73897D01*
X324858Y73002D01*
X324642Y72107D01*
X324092Y71283D01*
X323787Y69752D01*
X324092Y68221D01*
X324959Y66923D01*
X326257Y66056D01*
X327788Y65751D01*
X338988D01*
X340519Y66056D01*
X341817Y66923D01*
X341818Y66924D01*
X352859D01*
X352962Y66903D01*
X354052Y67120D01*
X354976Y67738D01*
X366456Y79218D01*
X366456Y79218D01*
X367019Y80060D01*
X367112Y80073D01*
X368289Y79359D01*
Y51816D01*
X231902D01*
Y75692D01*
X236982Y80772D01*
X258492Y80772D01*
Y77401D01*
X257342Y77112D01*
X257222Y77112D01*
X253612D01*
Y71882D01*
X257342D01*
Y74592D01*
X258612Y74717D01*
X258808Y73732D01*
X259706Y72388D01*
X263318Y68776D01*
Y65088D01*
X271366D01*
Y65608D01*
X287388D01*
X288106Y65751D01*
X292988D01*
X294519Y66056D01*
X295817Y66923D01*
X296684Y68221D01*
X296989Y69752D01*
X296684Y71283D01*
X295970Y72352D01*
X296521Y72719D01*
X297604Y74340D01*
X297731Y74982D01*
X287388D01*
X276871D01*
X276058Y73896D01*
X271366D01*
Y76136D01*
X267678D01*
X266780Y77034D01*
Y84409D01*
X283718Y102108D01*
X301498D01*
X357069Y102108D01*
Y86778D01*
D02*
G37*
G36*
X368289Y336185D02*
X367112Y335471D01*
X367019Y335484D01*
X366456Y336326D01*
X336786Y365996D01*
X335862Y366614D01*
X334772Y366831D01*
X334772Y366831D01*
X276788D01*
X275698Y366614D01*
X274773Y365996D01*
X274773Y365996D01*
X261598Y352821D01*
X260980Y351896D01*
X260763Y350806D01*
X260763Y350806D01*
Y348702D01*
X260843Y348300D01*
Y345647D01*
X259962Y345035D01*
Y333362D01*
Y322036D01*
X260253Y322094D01*
X261576Y322978D01*
X261881Y323435D01*
X262512Y323013D01*
X263692Y322779D01*
X264872Y323013D01*
X265872Y323682D01*
X266512D01*
X267512Y323013D01*
X268692Y322779D01*
X269872Y323013D01*
X270872Y323682D01*
X271512D01*
X272512Y323013D01*
X273692Y322779D01*
X274872Y323013D01*
X275872Y323682D01*
X276512D01*
X277512Y323013D01*
X278692Y322779D01*
X279872Y323013D01*
X280872Y323682D01*
X281512D01*
X282512Y323013D01*
X283692Y322779D01*
X284872Y323013D01*
X285872Y323682D01*
X286512D01*
X287512Y323013D01*
X288692Y322779D01*
X289872Y323013D01*
X290872Y323682D01*
X291512D01*
X292512Y323013D01*
X293692Y322779D01*
X294872Y323013D01*
X295872Y323682D01*
X296541Y324682D01*
X296775Y325862D01*
Y340862D01*
X296541Y342042D01*
X295872Y343042D01*
X294872Y343711D01*
X293692Y343945D01*
X292512Y343711D01*
X291512Y343042D01*
X290872D01*
X289872Y343711D01*
X288692Y343945D01*
X287512Y343711D01*
X286512Y343042D01*
X285872D01*
X284872Y343711D01*
X283692Y343945D01*
X282512Y343711D01*
X281512Y343042D01*
X280872D01*
X279872Y343711D01*
X278692Y343945D01*
X277512Y343711D01*
X276512Y343042D01*
X275872D01*
X274872Y343711D01*
X273692Y343945D01*
X272811Y343770D01*
X271541Y344473D01*
Y347522D01*
X281088Y357069D01*
X327242D01*
X357069Y327242D01*
Y283536D01*
X356634Y283100D01*
X356016Y282176D01*
X355799Y281086D01*
X355799Y281086D01*
Y262423D01*
X354678Y262064D01*
Y262064D01*
X346630D01*
Y251016D01*
X354678D01*
Y253691D01*
X357069D01*
Y205108D01*
X347781D01*
Y210242D01*
X348956D01*
Y221290D01*
X340908D01*
Y210242D01*
X342083D01*
Y205108D01*
X340498D01*
Y191339D01*
X331706Y182547D01*
X275018D01*
Y183722D01*
X263970D01*
Y181919D01*
X250679D01*
X250404Y182332D01*
X248907Y183332D01*
X247142Y183683D01*
X245377Y183332D01*
X243880Y182332D01*
X242880Y180835D01*
X242529Y179070D01*
X242880Y177305D01*
X243880Y175808D01*
X245377Y174809D01*
X247142Y174457D01*
X248907Y174809D01*
X250404Y175808D01*
X250679Y176221D01*
X263970D01*
Y175674D01*
X275018D01*
Y176849D01*
X332886D01*
X332886Y176849D01*
X333976Y177066D01*
X334900Y177684D01*
X343777Y186560D01*
X357069D01*
Y125608D01*
X340498D01*
Y111252D01*
X311546D01*
Y125608D01*
X294498D01*
Y111252D01*
X289052D01*
X286512Y108712D01*
X270002Y92202D01*
X266945D01*
X266898Y92443D01*
X265898Y93940D01*
X264401Y94939D01*
X262636Y95291D01*
X260871Y94939D01*
X259374Y93940D01*
X258375Y92443D01*
X258326Y92202D01*
X255778D01*
X237406Y92202D01*
X223012Y76783D01*
X223012Y51816D01*
X55891D01*
Y382767D01*
X368289D01*
Y336185D01*
D02*
G37*
%LPC*%
G36*
X297731Y87982D02*
X287388D01*
X277045D01*
X277172Y87340D01*
X278066Y86002D01*
X277172Y84664D01*
X277045Y84022D01*
X287388D01*
X297731D01*
X297604Y84664D01*
X296709Y86002D01*
X297604Y87340D01*
X297731Y87982D01*
D02*
G37*
G36*
X332118Y94248D02*
X327788D01*
X325876Y93868D01*
X324255Y92785D01*
X323172Y91164D01*
X323045Y90522D01*
X332118D01*
Y94248D01*
D02*
G37*
G36*
X286118D02*
X281788D01*
X279876Y93868D01*
X278255Y92785D01*
X277172Y91164D01*
X277045Y90522D01*
X286118D01*
Y94248D01*
D02*
G37*
G36*
X257342Y69342D02*
X253612D01*
Y64112D01*
X257342D01*
Y69342D01*
D02*
G37*
G36*
X251072D02*
X247342D01*
Y64112D01*
X251072D01*
Y69342D01*
D02*
G37*
G36*
X297731Y81482D02*
X287388D01*
X277045D01*
X277172Y80840D01*
X278066Y79502D01*
X277172Y78164D01*
X277045Y77522D01*
X287388D01*
X297731D01*
X297604Y78164D01*
X296710Y79502D01*
X297604Y80840D01*
X297731Y81482D01*
D02*
G37*
G36*
X251072Y77112D02*
X247342D01*
Y71882D01*
X251072D01*
Y77112D01*
D02*
G37*
G36*
X338988Y94248D02*
X334658D01*
Y90522D01*
X343731D01*
X343604Y91164D01*
X342521Y92785D01*
X340900Y93868D01*
X338988Y94248D01*
D02*
G37*
G36*
X292988D02*
X288658D01*
Y90522D01*
X297731D01*
X297604Y91164D01*
X296521Y92785D01*
X294900Y93868D01*
X292988Y94248D01*
D02*
G37*
G36*
X94460Y268888D02*
X91843Y268544D01*
X89405Y267534D01*
X87311Y265927D01*
X85704Y263833D01*
X84694Y261395D01*
X84349Y258778D01*
X84694Y256161D01*
X85704Y253723D01*
X87311Y251629D01*
X89405Y250022D01*
X90964Y249376D01*
Y242718D01*
X91230Y241380D01*
X91988Y240246D01*
X98712Y233522D01*
Y228918D01*
X99240D01*
Y220154D01*
X94884D01*
Y209106D01*
X96912D01*
Y205662D01*
X97178Y204324D01*
X97936Y203190D01*
X99628Y201498D01*
Y201289D01*
X98862Y200143D01*
X98511Y198378D01*
Y189378D01*
X98862Y187613D01*
X99862Y186116D01*
X101359Y185117D01*
X103124Y184765D01*
X104889Y185117D01*
X106386Y186116D01*
X107386Y187613D01*
X107737Y189378D01*
Y198378D01*
X107386Y200143D01*
X106620Y201289D01*
Y202946D01*
X106354Y204284D01*
X105596Y205418D01*
X105596Y205418D01*
X103904Y207110D01*
Y209106D01*
X105932D01*
Y215569D01*
X105966Y215620D01*
X106232Y216958D01*
Y228918D01*
X106760D01*
Y239966D01*
X102156D01*
X97956Y244166D01*
Y249376D01*
X99515Y250022D01*
X101609Y251629D01*
X103216Y253723D01*
X104226Y256161D01*
X104571Y258778D01*
X104226Y261395D01*
X103216Y263833D01*
X101609Y265927D01*
X99515Y267534D01*
X97077Y268544D01*
X94460Y268888D01*
D02*
G37*
G36*
X104394Y149733D02*
Y141148D01*
X108732D01*
Y144378D01*
X108305Y146524D01*
X107089Y148343D01*
X105270Y149559D01*
X104394Y149733D01*
D02*
G37*
G36*
X275018Y198722D02*
X263970D01*
Y190674D01*
X275018D01*
Y191849D01*
X281861D01*
X282344Y191262D01*
X282757Y189181D01*
X283936Y187416D01*
X285701Y186238D01*
X287782Y185823D01*
X289863Y186238D01*
X291628Y187416D01*
X292252Y188351D01*
X293522Y187966D01*
Y185584D01*
X301752D01*
Y194564D01*
X293522D01*
Y194558D01*
X292252Y194173D01*
X291628Y195108D01*
X289863Y196287D01*
X287782Y196700D01*
X286606Y196467D01*
X286360Y196712D01*
X285436Y197330D01*
X284346Y197547D01*
X284346Y197547D01*
X275018D01*
Y198722D01*
D02*
G37*
G36*
X124460Y268888D02*
X121843Y268544D01*
X119405Y267534D01*
X117311Y265927D01*
X115704Y263833D01*
X114694Y261395D01*
X114349Y258778D01*
X114694Y256161D01*
X115704Y253723D01*
X117311Y251629D01*
X119405Y250022D01*
X120964Y249376D01*
Y242614D01*
X118316Y239966D01*
X113712D01*
Y228918D01*
X114240D01*
Y216958D01*
X114286Y216726D01*
Y209360D01*
X116314D01*
Y207364D01*
X113352Y204402D01*
X112594Y203268D01*
X112328Y201930D01*
Y201289D01*
X111562Y200143D01*
X111211Y198378D01*
Y189378D01*
X111562Y187613D01*
X112562Y186116D01*
X114059Y185117D01*
X115824Y184765D01*
X117589Y185117D01*
X119086Y186116D01*
X120085Y187613D01*
X120437Y189378D01*
Y198378D01*
X120085Y200143D01*
X119643Y200805D01*
X122282Y203444D01*
X123040Y204578D01*
X123306Y205916D01*
Y209360D01*
X125334D01*
Y220408D01*
X121232D01*
Y228918D01*
X121760D01*
Y233522D01*
X126932Y238694D01*
X127690Y239828D01*
X127956Y241166D01*
Y249376D01*
X129515Y250022D01*
X131609Y251629D01*
X133216Y253723D01*
X134226Y256161D01*
X134571Y258778D01*
X134226Y261395D01*
X133216Y263833D01*
X131609Y265927D01*
X129515Y267534D01*
X127077Y268544D01*
X124460Y268888D01*
D02*
G37*
G36*
X89154Y192608D02*
X84816D01*
Y189378D01*
X85243Y187232D01*
X86459Y185413D01*
X88278Y184197D01*
X89154Y184023D01*
Y192608D01*
D02*
G37*
G36*
X128524Y202991D02*
X126759Y202640D01*
X125262Y201640D01*
X124263Y200143D01*
X123911Y198378D01*
Y189378D01*
X124263Y187613D01*
X125262Y186116D01*
X126759Y185117D01*
X128524Y184765D01*
X130289Y185117D01*
X131786Y186116D01*
X132786Y187613D01*
X133137Y189378D01*
Y189734D01*
X135876D01*
X146319Y179291D01*
X146361Y179083D01*
X147360Y177586D01*
X148857Y176586D01*
X150622Y176235D01*
X152387Y176586D01*
X153884Y177586D01*
X154883Y179083D01*
X155235Y180848D01*
X154883Y182613D01*
X153884Y184110D01*
X152387Y185110D01*
X152179Y185151D01*
X140522Y196808D01*
X139178Y197706D01*
X137592Y198022D01*
X133137D01*
Y198378D01*
X132786Y200143D01*
X131786Y201640D01*
X130289Y202640D01*
X128524Y202991D01*
D02*
G37*
G36*
X96032Y192608D02*
X91694D01*
Y184023D01*
X92570Y184197D01*
X94389Y185413D01*
X95605Y187232D01*
X96032Y189378D01*
Y192608D01*
D02*
G37*
G36*
X196337Y184404D02*
X183896D01*
X171455D01*
X171718Y182411D01*
X172977Y179370D01*
X174981Y176759D01*
X177592Y174755D01*
X180633Y173496D01*
X183074Y173174D01*
X183470Y173122D01*
Y171841D01*
X183074Y171789D01*
X180888Y171501D01*
X178084Y170340D01*
X175677Y168493D01*
X173830Y166086D01*
X172669Y163282D01*
X172273Y160274D01*
X172669Y157266D01*
X173360Y155597D01*
X139056Y121294D01*
X138158Y119950D01*
X137842Y118364D01*
Y114162D01*
X136572Y113636D01*
X119968Y130240D01*
Y133436D01*
X120085Y133613D01*
X120437Y135378D01*
Y144378D01*
X120085Y146143D01*
X119086Y147640D01*
X117589Y148639D01*
X115824Y148991D01*
X114059Y148639D01*
X112562Y147640D01*
X111562Y146143D01*
X111211Y144378D01*
Y135378D01*
X111562Y133613D01*
X111680Y133436D01*
Y128524D01*
X111996Y126938D01*
X112894Y125594D01*
X125843Y112645D01*
X125920Y112462D01*
X125130Y111562D01*
X124891Y111745D01*
X122890Y113281D01*
X119849Y114540D01*
X117856Y114803D01*
Y102362D01*
Y89921D01*
X119849Y90184D01*
X122890Y91443D01*
X125501Y93447D01*
X127505Y96058D01*
X128764Y99099D01*
X129086Y101540D01*
X129138Y101936D01*
X130419D01*
X130471Y101540D01*
X130759Y99354D01*
X131920Y96550D01*
X133767Y94143D01*
X136174Y92296D01*
X138978Y91135D01*
X141986Y90739D01*
X144994Y91135D01*
X147798Y92296D01*
X150205Y94143D01*
X152052Y96550D01*
X153213Y99354D01*
X153501Y101540D01*
X153553Y101936D01*
X154834D01*
X154886Y101540D01*
X155208Y99099D01*
X156467Y96058D01*
X158471Y93447D01*
X161082Y91443D01*
X164123Y90184D01*
X166116Y89921D01*
Y102362D01*
Y114803D01*
X164123Y114540D01*
X161082Y113281D01*
X158471Y111277D01*
X156467Y108666D01*
X155208Y105625D01*
X154886Y103184D01*
X154834Y102788D01*
X153553D01*
X153501Y103184D01*
X153213Y105370D01*
X152052Y108174D01*
X150205Y110581D01*
X147798Y112428D01*
X146130Y113119D01*
Y116648D01*
X179219Y149738D01*
X180888Y149047D01*
X183896Y148651D01*
X186904Y149047D01*
X189708Y150208D01*
X192115Y152055D01*
X193962Y154462D01*
X195123Y157266D01*
X195519Y160274D01*
X195123Y163282D01*
X193962Y166086D01*
X192115Y168493D01*
X189708Y170340D01*
X186904Y171501D01*
X184718Y171789D01*
X184322Y171841D01*
Y173122D01*
X184718Y173174D01*
X187159Y173496D01*
X190200Y174755D01*
X192811Y176759D01*
X194815Y179370D01*
X196074Y182411D01*
X196337Y184404D01*
D02*
G37*
G36*
X84908Y213360D02*
X79678D01*
Y208130D01*
X84908D01*
Y213360D01*
D02*
G37*
G36*
X77138D02*
X71908D01*
Y208130D01*
X77138D01*
Y213360D01*
D02*
G37*
G36*
X148310Y213614D02*
X143080D01*
Y208384D01*
X148310D01*
Y213614D01*
D02*
G37*
G36*
X140540D02*
X135310D01*
Y208384D01*
X140540D01*
Y213614D01*
D02*
G37*
G36*
X158750Y311484D02*
X113022D01*
X111436Y311168D01*
X110092Y310270D01*
X97988Y298166D01*
X97077Y298544D01*
X94460Y298888D01*
X91843Y298544D01*
X89405Y297534D01*
X87311Y295927D01*
X85704Y293833D01*
X84694Y291395D01*
X84349Y288778D01*
X84694Y286161D01*
X85704Y283723D01*
X87311Y281629D01*
X89405Y280022D01*
X91843Y279012D01*
X94460Y278668D01*
X97077Y279012D01*
X99515Y280022D01*
X101609Y281629D01*
X103216Y283723D01*
X104226Y286161D01*
X104571Y288778D01*
X104226Y291395D01*
X103848Y292306D01*
X114738Y303196D01*
X157034D01*
X179498Y280732D01*
Y221726D01*
X178084Y221140D01*
X175677Y219293D01*
X173830Y216886D01*
X172669Y214082D01*
X172273Y211074D01*
X172669Y208066D01*
X173830Y205262D01*
X175677Y202855D01*
X178084Y201008D01*
X180888Y199847D01*
X183074Y199559D01*
X183470Y199507D01*
Y198226D01*
X183074Y198174D01*
X180633Y197852D01*
X177592Y196593D01*
X174981Y194589D01*
X172977Y191978D01*
X171718Y188937D01*
X171455Y186944D01*
X183896D01*
X196337D01*
X196074Y188937D01*
X194815Y191978D01*
X192811Y194589D01*
X190200Y196593D01*
X187159Y197852D01*
X184718Y198174D01*
X184322Y198226D01*
Y199507D01*
X184718Y199559D01*
X186904Y199847D01*
X189708Y201008D01*
X192115Y202855D01*
X193962Y205262D01*
X195123Y208066D01*
X195519Y211074D01*
X195123Y214082D01*
X193962Y216886D01*
X192115Y219293D01*
X189708Y221140D01*
X187786Y221936D01*
Y282448D01*
X187470Y284034D01*
X186572Y285378D01*
X161680Y310270D01*
X160336Y311168D01*
X158750Y311484D01*
D02*
G37*
G36*
X312522Y194564D02*
X304292D01*
Y185584D01*
X312522D01*
Y194564D01*
D02*
G37*
G36*
X91694Y203733D02*
Y195148D01*
X96032D01*
Y198378D01*
X95605Y200524D01*
X94389Y202343D01*
X92570Y203559D01*
X91694Y203733D01*
D02*
G37*
G36*
X89154D02*
X88278Y203559D01*
X86459Y202343D01*
X85243Y200524D01*
X84816Y198378D01*
Y195148D01*
X89154D01*
Y203733D01*
D02*
G37*
G36*
X101854Y149733D02*
X100978Y149559D01*
X99159Y148343D01*
X97943Y146524D01*
X97516Y144378D01*
Y141148D01*
X101854D01*
Y149733D01*
D02*
G37*
G36*
X179827Y101092D02*
X168656D01*
Y89921D01*
X170649Y90184D01*
X173690Y91443D01*
X176301Y93447D01*
X178305Y96058D01*
X179564Y99099D01*
X179827Y101092D01*
D02*
G37*
G36*
X108732Y138608D02*
X104394D01*
Y130023D01*
X105270Y130197D01*
X107089Y131413D01*
X108305Y133232D01*
X108732Y135378D01*
Y138608D01*
D02*
G37*
G36*
X101854D02*
X97516D01*
Y135378D01*
X97943Y133232D01*
X99159Y131413D01*
X100978Y130197D01*
X101854Y130023D01*
Y138608D01*
D02*
G37*
G36*
X128524Y148991D02*
X126759Y148639D01*
X125262Y147640D01*
X124263Y146143D01*
X123911Y144378D01*
Y135378D01*
X124263Y133613D01*
X125262Y132116D01*
X126759Y131117D01*
X128524Y130765D01*
X130289Y131117D01*
X131786Y132116D01*
X132786Y133613D01*
X133137Y135378D01*
Y137029D01*
X139558D01*
X139659Y136906D01*
X140010Y135141D01*
X141010Y133644D01*
X142507Y132645D01*
X144272Y132293D01*
X146037Y132645D01*
X147534Y133644D01*
X148533Y135141D01*
X148885Y136906D01*
X148533Y138671D01*
X147534Y140168D01*
X146037Y141167D01*
X144272Y141519D01*
X143785Y141422D01*
X143314Y141892D01*
X142390Y142510D01*
X141300Y142727D01*
X141300Y142727D01*
X133137D01*
Y144378D01*
X132786Y146143D01*
X131786Y147640D01*
X130289Y148639D01*
X128524Y148991D01*
D02*
G37*
G36*
X90424D02*
X88659Y148639D01*
X87162Y147640D01*
X86163Y146143D01*
X85811Y144378D01*
Y135378D01*
X85865Y135106D01*
X79592Y128833D01*
X76943D01*
X76668Y129246D01*
X75171Y130246D01*
X73406Y130597D01*
X71641Y130246D01*
X70144Y129246D01*
X69145Y127749D01*
X68793Y125984D01*
X69145Y124219D01*
X70144Y122722D01*
X71641Y121722D01*
X73406Y121371D01*
X75171Y121722D01*
X76668Y122722D01*
X76943Y123135D01*
X80772D01*
X80772Y123135D01*
X81862Y123352D01*
X82786Y123970D01*
X89722Y130905D01*
X90424Y130765D01*
X92189Y131117D01*
X93686Y132116D01*
X94685Y133613D01*
X95037Y135378D01*
Y144378D01*
X94685Y146143D01*
X93686Y147640D01*
X92189Y148639D01*
X90424Y148991D01*
D02*
G37*
G36*
X168656Y114803D02*
Y103632D01*
X179827D01*
X179564Y105625D01*
X178305Y108666D01*
X176301Y111277D01*
X173690Y113281D01*
X170649Y114540D01*
X168656Y114803D01*
D02*
G37*
G36*
X115316D02*
X113323Y114540D01*
X110282Y113281D01*
X107671Y111277D01*
X105667Y108666D01*
X104408Y105625D01*
X104086Y103184D01*
X104034Y102788D01*
X102753D01*
X102701Y103184D01*
X102413Y105370D01*
X101252Y108174D01*
X99405Y110581D01*
X96998Y112428D01*
X94194Y113589D01*
X91186Y113985D01*
X88178Y113589D01*
X85374Y112428D01*
X82967Y110581D01*
X81120Y108174D01*
X79959Y105370D01*
X79563Y102362D01*
X79959Y99354D01*
X81120Y96550D01*
X82967Y94143D01*
X85374Y92296D01*
X88178Y91135D01*
X91186Y90739D01*
X94194Y91135D01*
X96998Y92296D01*
X99405Y94143D01*
X101252Y96550D01*
X102413Y99354D01*
X102701Y101540D01*
X102753Y101936D01*
X104034D01*
X104086Y101540D01*
X104408Y99099D01*
X105667Y96058D01*
X107671Y93447D01*
X110282Y91443D01*
X113323Y90184D01*
X115316Y89921D01*
Y102362D01*
Y114803D01*
D02*
G37*
G36*
X328662Y214496D02*
X324932D01*
Y209266D01*
X328662D01*
Y214496D01*
D02*
G37*
G36*
X328930Y310254D02*
X323700D01*
Y306524D01*
X328930D01*
Y310254D01*
D02*
G37*
G36*
X210462Y295964D02*
X205232D01*
Y292234D01*
X210462D01*
Y295964D01*
D02*
G37*
G36*
X328930Y316524D02*
X323700D01*
Y312794D01*
X328930D01*
Y316524D01*
D02*
G37*
G36*
X336700Y310254D02*
X331470D01*
Y306524D01*
X336700D01*
Y310254D01*
D02*
G37*
G36*
X123190Y299706D02*
X121588Y299495D01*
X118912Y298386D01*
X116615Y296623D01*
X114852Y294325D01*
X113743Y291650D01*
X113532Y290048D01*
X123190D01*
Y299706D01*
D02*
G37*
G36*
X210462Y289694D02*
X205232D01*
Y285964D01*
X210462D01*
Y289694D01*
D02*
G37*
G36*
X202692Y295964D02*
X197462D01*
Y292234D01*
X202692D01*
Y295964D01*
D02*
G37*
G36*
X125730Y299706D02*
Y290048D01*
X135388D01*
X135177Y291650D01*
X134068Y294325D01*
X132305Y296623D01*
X130007Y298386D01*
X127332Y299495D01*
X125730Y299706D01*
D02*
G37*
G36*
X336700Y316524D02*
X331470D01*
Y312794D01*
X336700D01*
Y316524D01*
D02*
G37*
G36*
X208534Y357566D02*
X203304D01*
Y353836D01*
X208534D01*
Y357566D01*
D02*
G37*
G36*
X243078Y373689D02*
X243078Y373689D01*
X119126D01*
X118036Y373472D01*
X117112Y372854D01*
X117112Y372854D01*
X71392Y327134D01*
X70774Y326210D01*
X70557Y325120D01*
X70557Y325120D01*
Y279636D01*
X70144Y279360D01*
X69145Y277863D01*
X68793Y276098D01*
X69145Y274333D01*
X70144Y272836D01*
X71641Y271836D01*
X73406Y271485D01*
X75171Y271836D01*
X76668Y272836D01*
X77667Y274333D01*
X78019Y276098D01*
X77667Y277863D01*
X76668Y279360D01*
X76255Y279636D01*
Y323940D01*
X120306Y367991D01*
X241898D01*
X243822Y366067D01*
X243466Y365208D01*
Y358394D01*
X242196D01*
Y357124D01*
X237196D01*
Y354082D01*
X236023Y353596D01*
X231340Y358279D01*
Y358394D01*
X231220Y358995D01*
Y363918D01*
X223172D01*
Y358995D01*
X223052Y358394D01*
Y341710D01*
X213868D01*
X213267Y341590D01*
X204280D01*
Y333542D01*
X206955D01*
Y330200D01*
X206955Y330200D01*
X207172Y329110D01*
X207790Y328186D01*
X215193Y320783D01*
X215109Y320362D01*
X215343Y319182D01*
X216012Y318182D01*
Y317542D01*
X215343Y316542D01*
X215109Y315362D01*
X215343Y314182D01*
X216012Y313182D01*
Y312542D01*
X215343Y311542D01*
X215109Y310362D01*
X215343Y309182D01*
X216012Y308182D01*
Y307542D01*
X215343Y306542D01*
X215109Y305362D01*
X215343Y304182D01*
X216012Y303182D01*
Y302542D01*
X215343Y301542D01*
X215109Y300362D01*
X215343Y299182D01*
X216012Y298182D01*
Y297542D01*
X215343Y296542D01*
X215109Y295362D01*
X215343Y294182D01*
X216012Y293182D01*
Y292542D01*
X215343Y291542D01*
X215109Y290362D01*
X215343Y289182D01*
X215765Y288551D01*
X215308Y288246D01*
X214424Y286923D01*
X214366Y286632D01*
X225692D01*
X237541D01*
X237912Y287133D01*
X239112Y287212D01*
X242626Y283697D01*
X242529Y283210D01*
X242880Y281445D01*
X243880Y279948D01*
X245377Y278948D01*
X247142Y278597D01*
X248907Y278948D01*
X250404Y279948D01*
X251404Y281445D01*
X251755Y283210D01*
X251404Y284975D01*
X250404Y286472D01*
X248907Y287472D01*
X247142Y287823D01*
X246655Y287726D01*
X242004Y292376D01*
X241080Y292994D01*
X239990Y293211D01*
X239990Y293211D01*
X236803D01*
X236100Y294481D01*
X236275Y295362D01*
X236040Y296542D01*
X235372Y297542D01*
Y298182D01*
X236040Y299182D01*
X236275Y300362D01*
X236040Y301542D01*
X235372Y302542D01*
Y303182D01*
X236040Y304182D01*
X236275Y305362D01*
X236040Y306542D01*
X235372Y307542D01*
Y308182D01*
X236040Y309182D01*
X236275Y310362D01*
X236040Y311542D01*
X235372Y312542D01*
Y313182D01*
X236040Y314182D01*
X236275Y315362D01*
X236040Y316542D01*
X235372Y317542D01*
Y318182D01*
X236040Y319182D01*
X236275Y320362D01*
X236040Y321542D01*
X235372Y322542D01*
X234372Y323210D01*
X233192Y323445D01*
X220588D01*
X212689Y331343D01*
X212748Y332610D01*
X213868Y333422D01*
X225388D01*
X225565Y333304D01*
X227330Y332953D01*
X229095Y333304D01*
X230592Y334304D01*
X231591Y335801D01*
X231943Y337566D01*
X231591Y339331D01*
X231340Y339708D01*
Y348562D01*
X232513Y349048D01*
X235843Y345718D01*
Y342041D01*
X235609Y340862D01*
Y325862D01*
X235844Y324682D01*
X236512Y323682D01*
X237512Y323013D01*
X238692Y322779D01*
X239872Y323013D01*
X240503Y323435D01*
X240808Y322978D01*
X242131Y322094D01*
X242422Y322036D01*
Y333362D01*
X244962D01*
Y322036D01*
X245253Y322094D01*
X246576Y322978D01*
X246881Y323435D01*
X247512Y323013D01*
X248692Y322779D01*
X249872Y323013D01*
X250872Y323682D01*
X251512D01*
X252512Y323013D01*
X253692Y322779D01*
X254872Y323013D01*
X255503Y323435D01*
X255808Y322978D01*
X257131Y322094D01*
X257422Y322036D01*
Y333362D01*
Y344688D01*
X257131Y344630D01*
X255808Y343746D01*
X255503Y343289D01*
X254872Y343711D01*
X253692Y343945D01*
X252811Y343770D01*
X251541Y344473D01*
Y365226D01*
X251541Y365226D01*
X251324Y366316D01*
X250706Y367240D01*
X250706Y367240D01*
X245092Y372854D01*
X244168Y373472D01*
X243078Y373689D01*
D02*
G37*
G36*
X240926Y364894D02*
X237196D01*
Y359664D01*
X240926D01*
Y364894D01*
D02*
G37*
G36*
X216304Y357566D02*
X211074D01*
Y353836D01*
X216304D01*
Y357566D01*
D02*
G37*
G36*
X309372Y345227D02*
X307607Y344875D01*
X306110Y343876D01*
X305110Y342379D01*
X304759Y340614D01*
X305110Y338849D01*
X306110Y337352D01*
X307607Y336353D01*
X309372Y336001D01*
X311137Y336353D01*
X311314Y336470D01*
X324420D01*
X326056Y334834D01*
Y330548D01*
X324676D01*
Y329373D01*
X312854D01*
X312854Y329373D01*
X311764Y329156D01*
X310840Y328538D01*
X310840Y328538D01*
X305746Y323445D01*
X299192D01*
X298012Y323210D01*
X297012Y322542D01*
X296343Y321542D01*
X296109Y320362D01*
X296343Y319182D01*
X296765Y318551D01*
X296308Y318246D01*
X295424Y316923D01*
X295366Y316632D01*
X306692D01*
X318018D01*
X317960Y316923D01*
X317076Y318246D01*
X316619Y318551D01*
X317041Y319182D01*
X317275Y320362D01*
X317041Y321542D01*
X316464Y322405D01*
X316621Y323019D01*
X316962Y323675D01*
X324676D01*
Y322500D01*
X329599D01*
X330200Y322380D01*
X330801Y322500D01*
X335724D01*
Y330548D01*
X334344D01*
Y336550D01*
X334028Y338136D01*
X333130Y339480D01*
X329066Y343544D01*
X327722Y344442D01*
X326136Y344758D01*
X311314D01*
X311137Y344875D01*
X309372Y345227D01*
D02*
G37*
G36*
X124460Y351094D02*
X120731Y350727D01*
X117145Y349639D01*
X113840Y347872D01*
X110943Y345495D01*
X108566Y342598D01*
X106799Y339293D01*
X105711Y335707D01*
X105344Y331978D01*
X105711Y328249D01*
X106799Y324663D01*
X108566Y321358D01*
X110943Y318461D01*
X113840Y316084D01*
X117145Y314317D01*
X120731Y313229D01*
X124460Y312862D01*
X128189Y313229D01*
X131775Y314317D01*
X135080Y316084D01*
X137977Y318461D01*
X140354Y321358D01*
X142121Y324663D01*
X143209Y328249D01*
X143576Y331978D01*
X143209Y335707D01*
X142121Y339293D01*
X140354Y342598D01*
X137977Y345495D01*
X135080Y347872D01*
X131775Y349639D01*
X128189Y350727D01*
X124460Y351094D01*
D02*
G37*
G36*
X216304Y351296D02*
X211074D01*
Y347566D01*
X216304D01*
Y351296D01*
D02*
G37*
G36*
X208534D02*
X203304D01*
Y347566D01*
X208534D01*
Y351296D01*
D02*
G37*
G36*
X334932Y222266D02*
X331202D01*
Y217036D01*
X334932D01*
Y222266D01*
D02*
G37*
G36*
X148310Y221384D02*
X143080D01*
Y216154D01*
X148310D01*
Y221384D01*
D02*
G37*
G36*
X289092Y230378D02*
X285362D01*
Y225148D01*
X289092D01*
Y230378D01*
D02*
G37*
G36*
X282822D02*
X279092D01*
Y225148D01*
X282822D01*
Y230378D01*
D02*
G37*
G36*
X77138Y221130D02*
X71908D01*
Y215900D01*
X77138D01*
Y221130D01*
D02*
G37*
G36*
X334932Y214496D02*
X331202D01*
Y209266D01*
X334932D01*
Y214496D01*
D02*
G37*
G36*
X140540Y221384D02*
X135310D01*
Y216154D01*
X140540D01*
Y221384D01*
D02*
G37*
G36*
X84908Y221130D02*
X79678D01*
Y215900D01*
X84908D01*
Y221130D01*
D02*
G37*
G36*
X282822Y238148D02*
X279092D01*
Y232918D01*
X282822D01*
Y238148D01*
D02*
G37*
G36*
X135388Y287508D02*
X125730D01*
Y277850D01*
X127332Y278061D01*
X130007Y279170D01*
X132305Y280933D01*
X134068Y283231D01*
X135177Y285906D01*
X135388Y287508D01*
D02*
G37*
G36*
X123190D02*
X113532D01*
X113743Y285906D01*
X114852Y283231D01*
X116615Y280933D01*
X118912Y279170D01*
X121588Y278061D01*
X123190Y277850D01*
Y287508D01*
D02*
G37*
G36*
X202692Y289694D02*
X197462D01*
Y285964D01*
X202692D01*
Y289694D01*
D02*
G37*
G36*
X154460Y298888D02*
X151843Y298544D01*
X149405Y297534D01*
X147311Y295927D01*
X145704Y293833D01*
X144694Y291395D01*
X144349Y288778D01*
X144694Y286161D01*
X145704Y283723D01*
X147311Y281629D01*
X149405Y280022D01*
X151843Y279012D01*
X154460Y278668D01*
X157077Y279012D01*
X159515Y280022D01*
X161609Y281629D01*
X163216Y283723D01*
X164226Y286161D01*
X164571Y288778D01*
X164226Y291395D01*
X163216Y293833D01*
X161609Y295927D01*
X159515Y297534D01*
X157077Y298544D01*
X154460Y298888D01*
D02*
G37*
G36*
X318018Y314092D02*
X306692D01*
X295366D01*
X295424Y313801D01*
X296308Y312478D01*
X296765Y312173D01*
X296343Y311542D01*
X296109Y310362D01*
X296343Y309182D01*
X297012Y308182D01*
Y307542D01*
X296343Y306542D01*
X296109Y305362D01*
X296343Y304182D01*
X297012Y303182D01*
Y302542D01*
X296343Y301542D01*
X296109Y300362D01*
X296343Y299182D01*
X297012Y298182D01*
Y297542D01*
X296343Y296542D01*
X296109Y295362D01*
X296343Y294182D01*
X297012Y293182D01*
Y292542D01*
X296343Y291542D01*
X296109Y290362D01*
X296343Y289182D01*
X297012Y288182D01*
Y287542D01*
X296343Y286542D01*
X296109Y285362D01*
X296343Y284182D01*
X297012Y283182D01*
Y282542D01*
X296343Y281542D01*
X296109Y280362D01*
X296343Y279182D01*
X297012Y278182D01*
Y277542D01*
X296343Y276542D01*
X296109Y275362D01*
X296343Y274182D01*
X297012Y273182D01*
Y272542D01*
X296343Y271542D01*
X296109Y270362D01*
X296343Y269182D01*
X297012Y268182D01*
Y267542D01*
X296343Y266542D01*
X296109Y265362D01*
X296343Y264182D01*
X297012Y263182D01*
X298012Y262514D01*
X299192Y262279D01*
X314192D01*
X315372Y262514D01*
X316372Y263182D01*
X317041Y264182D01*
X317275Y265362D01*
X318257Y266624D01*
X318804Y266701D01*
X325439Y260066D01*
Y241838D01*
X316714Y233113D01*
X315499Y233482D01*
X315411Y233921D01*
X314412Y235418D01*
X312915Y236418D01*
X311150Y236769D01*
X309385Y236418D01*
X309208Y236300D01*
X303116D01*
Y237172D01*
X297597D01*
X296541Y238228D01*
Y243683D01*
X296775Y244862D01*
Y259862D01*
X296541Y261042D01*
X295872Y262042D01*
X294872Y262710D01*
X293692Y262945D01*
X292512Y262710D01*
X291881Y262289D01*
X291576Y262746D01*
X290253Y263630D01*
X289962Y263688D01*
Y252362D01*
Y240689D01*
X290843Y240077D01*
Y237048D01*
X290843Y237048D01*
X291060Y235958D01*
X291678Y235034D01*
X294967Y231744D01*
X294948Y231648D01*
X295068Y231047D01*
Y226124D01*
X303116D01*
Y228012D01*
X309208D01*
X309385Y227894D01*
X309824Y227807D01*
X310193Y226592D01*
X291682Y208081D01*
X266686D01*
X266301Y209351D01*
X266660Y209590D01*
X267659Y211087D01*
X268011Y212852D01*
X267659Y214617D01*
X266660Y216114D01*
X265163Y217113D01*
X264250Y217295D01*
X240891Y240654D01*
X241120Y242010D01*
X241997Y242357D01*
X242512Y242013D01*
X243692Y241779D01*
X244872Y242013D01*
X245872Y242682D01*
X246512D01*
X247512Y242013D01*
X248692Y241779D01*
X249872Y242013D01*
X250872Y242682D01*
X251512D01*
X252512Y242013D01*
X253692Y241779D01*
X254872Y242013D01*
X255872Y242682D01*
X256512D01*
X257512Y242013D01*
X258692Y241779D01*
X259872Y242013D01*
X260872Y242682D01*
X261512D01*
X262512Y242013D01*
X263692Y241779D01*
X264872Y242013D01*
X265872Y242682D01*
X266512D01*
X267512Y242013D01*
X268692Y241779D01*
X269872Y242013D01*
X270872Y242682D01*
X271512D01*
X272512Y242013D01*
X273692Y241779D01*
X274872Y242013D01*
X275872Y242682D01*
X276512D01*
X277512Y242013D01*
X278692Y241779D01*
X279872Y242013D01*
X280872Y242682D01*
X281512D01*
X282512Y242013D01*
X283692Y241779D01*
X284872Y242013D01*
X285503Y242435D01*
X285808Y241978D01*
X287131Y241094D01*
X287422Y241036D01*
Y252362D01*
Y263688D01*
X287131Y263630D01*
X285808Y262746D01*
X285503Y262289D01*
X284872Y262710D01*
X283692Y262945D01*
X282512Y262710D01*
X281512Y262042D01*
X280872D01*
X279872Y262710D01*
X278692Y262945D01*
X277512Y262710D01*
X276512Y262042D01*
X275872D01*
X274872Y262710D01*
X273692Y262945D01*
X272512Y262710D01*
X271512Y262042D01*
X270872D01*
X269872Y262710D01*
X268692Y262945D01*
X267512Y262710D01*
X266512Y262042D01*
X265872D01*
X264872Y262710D01*
X263692Y262945D01*
X262512Y262710D01*
X261512Y262042D01*
X260872D01*
X259872Y262710D01*
X258692Y262945D01*
X257512Y262710D01*
X256512Y262042D01*
X255872D01*
X254872Y262710D01*
X253692Y262945D01*
X252512Y262710D01*
X251512Y262042D01*
X250872D01*
X249872Y262710D01*
X248692Y262945D01*
X247512Y262710D01*
X246512Y262042D01*
X245872D01*
X244872Y262710D01*
X243692Y262945D01*
X242512Y262710D01*
X241512Y262042D01*
X240872D01*
X239872Y262710D01*
X238692Y262945D01*
X237512Y262710D01*
X236512Y262042D01*
X235844Y261042D01*
X235609Y259862D01*
Y247596D01*
X234435Y247110D01*
X220440Y261105D01*
X220926Y262279D01*
X233192D01*
X234372Y262514D01*
X235372Y263182D01*
X236040Y264182D01*
X236275Y265362D01*
X236040Y266542D01*
X235372Y267542D01*
Y268182D01*
X236040Y269182D01*
X236275Y270362D01*
X236040Y271542D01*
X235372Y272542D01*
Y273182D01*
X236040Y274182D01*
X236275Y275362D01*
X236040Y276542D01*
X235372Y277542D01*
Y278182D01*
X236040Y279182D01*
X236275Y280362D01*
X236040Y281542D01*
X235619Y282173D01*
X236076Y282478D01*
X236960Y283801D01*
X237018Y284092D01*
X225692D01*
X214019D01*
X213407Y283211D01*
X208360D01*
X208360Y283211D01*
X207270Y282994D01*
X206346Y282376D01*
X204058Y280089D01*
X203962Y280108D01*
X203361Y279988D01*
X198438D01*
Y271940D01*
X199818D01*
Y271723D01*
X200134Y270138D01*
X201032Y268793D01*
X259903Y209922D01*
X259924Y209908D01*
X260136Y209590D01*
X260495Y209351D01*
X260110Y208081D01*
X237744D01*
X236654Y207864D01*
X235730Y207246D01*
X235730Y207246D01*
X199408Y170924D01*
X198790Y170000D01*
X198573Y168910D01*
X198573Y168910D01*
Y144196D01*
X194132Y139755D01*
X189974D01*
X189698Y140168D01*
X188201Y141167D01*
X186436Y141519D01*
X184671Y141167D01*
X183174Y140168D01*
X182174Y138671D01*
X181823Y136906D01*
X182174Y135141D01*
X183174Y133644D01*
X184671Y132645D01*
X186436Y132293D01*
X188201Y132645D01*
X189698Y133644D01*
X189974Y134057D01*
X195312D01*
X195312Y134057D01*
X196402Y134274D01*
X197326Y134892D01*
X203436Y141002D01*
X203436Y141002D01*
X204054Y141926D01*
X204271Y143016D01*
Y167730D01*
X238924Y202383D01*
X292862D01*
X292862Y202383D01*
X293522Y201842D01*
Y197104D01*
X303022D01*
X312522D01*
Y206084D01*
X310173D01*
X309788Y207354D01*
X310094Y207558D01*
X311094Y209055D01*
X311135Y209263D01*
X323662Y221790D01*
X324932Y221264D01*
Y217036D01*
X328662D01*
Y222266D01*
X325934D01*
X325408Y223536D01*
X338584Y236712D01*
X339482Y238056D01*
X339798Y239642D01*
Y256540D01*
Y275336D01*
X339482Y276922D01*
X339424Y277009D01*
Y281114D01*
X331376D01*
Y276191D01*
X331256Y275590D01*
X331376Y274989D01*
Y270066D01*
X331510D01*
Y263738D01*
X330505Y263341D01*
X330240Y263322D01*
X321186Y272376D01*
X320262Y272994D01*
X319172Y273211D01*
X319172Y273211D01*
X317803D01*
X317100Y274481D01*
X317275Y275362D01*
X317041Y276542D01*
X316372Y277542D01*
Y278182D01*
X317041Y279182D01*
X317275Y280362D01*
X317041Y281542D01*
X316372Y282542D01*
Y283182D01*
X317041Y284182D01*
X317275Y285362D01*
X317041Y286542D01*
X316372Y287542D01*
Y288182D01*
X317041Y289182D01*
X317275Y290362D01*
X317041Y291542D01*
X316372Y292542D01*
Y293182D01*
X317041Y294182D01*
X317275Y295362D01*
X317041Y296542D01*
X316372Y297542D01*
Y298182D01*
X317041Y299182D01*
X317275Y300362D01*
X317041Y301542D01*
X316372Y302542D01*
Y303182D01*
X317041Y304182D01*
X317275Y305362D01*
X317041Y306542D01*
X316372Y307542D01*
Y308182D01*
X317041Y309182D01*
X317275Y310362D01*
X317041Y311542D01*
X316619Y312173D01*
X317076Y312478D01*
X317960Y313801D01*
X318018Y314092D01*
D02*
G37*
G36*
X289092Y238148D02*
X285362D01*
Y232918D01*
X289092D01*
Y238148D01*
D02*
G37*
G36*
X350520Y297475D02*
X348755Y297124D01*
X347258Y296124D01*
X346259Y294627D01*
X345907Y292862D01*
X346259Y291097D01*
X347258Y289600D01*
X347551Y289405D01*
Y281114D01*
X346376D01*
Y270066D01*
X354424D01*
Y281114D01*
X353249D01*
Y289244D01*
X353782Y289600D01*
X354781Y291097D01*
X355133Y292862D01*
X354781Y294627D01*
X353782Y296124D01*
X352285Y297124D01*
X350520Y297475D01*
D02*
G37*
G36*
X154460Y268888D02*
X151843Y268544D01*
X149405Y267534D01*
X147311Y265927D01*
X145704Y263833D01*
X144694Y261395D01*
X144349Y258778D01*
X144694Y256161D01*
X145704Y253723D01*
X147311Y251629D01*
X149405Y250022D01*
X151843Y249012D01*
X154460Y248668D01*
X157077Y249012D01*
X159515Y250022D01*
X161609Y251629D01*
X163216Y253723D01*
X164226Y256161D01*
X164571Y258778D01*
X164226Y261395D01*
X163216Y263833D01*
X161609Y265927D01*
X159515Y267534D01*
X157077Y268544D01*
X154460Y268888D01*
D02*
G37*
%LPD*%
D10*
X209804Y352566D02*
D03*
Y337566D02*
D03*
X203962Y290964D02*
D03*
Y275964D02*
D03*
X269494Y194698D02*
D03*
Y179698D02*
D03*
X330200Y311524D02*
D03*
Y326524D02*
D03*
D11*
X225692Y320362D02*
D03*
Y315362D02*
D03*
Y310362D02*
D03*
Y305362D02*
D03*
Y300362D02*
D03*
Y295362D02*
D03*
Y290362D02*
D03*
Y285362D02*
D03*
Y280362D02*
D03*
Y275362D02*
D03*
Y270362D02*
D03*
Y265362D02*
D03*
X306692D02*
D03*
Y270362D02*
D03*
Y275362D02*
D03*
Y280362D02*
D03*
Y285362D02*
D03*
Y290362D02*
D03*
Y295362D02*
D03*
Y300362D02*
D03*
Y305362D02*
D03*
Y310362D02*
D03*
Y315362D02*
D03*
Y320362D02*
D03*
D12*
X238692Y252362D02*
D03*
X243692D02*
D03*
X248692D02*
D03*
X253692D02*
D03*
X258692D02*
D03*
X263692D02*
D03*
X268692D02*
D03*
X273692D02*
D03*
X278692D02*
D03*
X283692D02*
D03*
X288692D02*
D03*
X293692D02*
D03*
Y333362D02*
D03*
X288692D02*
D03*
X283692D02*
D03*
X278692D02*
D03*
X273692D02*
D03*
X268692D02*
D03*
X263692D02*
D03*
X258692D02*
D03*
X253692D02*
D03*
X248692D02*
D03*
X243692D02*
D03*
X238692D02*
D03*
D13*
X287388Y89252D02*
D03*
Y82752D02*
D03*
Y76252D02*
D03*
Y69752D02*
D03*
X333388Y89252D02*
D03*
Y82752D02*
D03*
Y76252D02*
D03*
Y69752D02*
D03*
D14*
X242196Y358394D02*
D03*
X227196D02*
D03*
X344932Y215766D02*
D03*
X329932D02*
D03*
X102736Y234442D02*
D03*
X117736D02*
D03*
X335654Y256540D02*
D03*
X350654D02*
D03*
X284092Y231648D02*
D03*
X299092D02*
D03*
X335400Y275590D02*
D03*
X350400D02*
D03*
X267342Y70612D02*
D03*
X252342D02*
D03*
D15*
X90424Y139878D02*
D03*
X103124D02*
D03*
X115824D02*
D03*
X128524D02*
D03*
X90424Y193878D02*
D03*
X128524D02*
D03*
X115824D02*
D03*
X103124D02*
D03*
D16*
X141810Y214884D02*
D03*
X119810D02*
D03*
X78408Y214630D02*
D03*
X100408D02*
D03*
D17*
X303022Y195834D02*
D03*
Y116334D02*
D03*
X349022Y195834D02*
D03*
Y116334D02*
D03*
D18*
X238692Y333362D02*
Y346898D01*
X227196Y358394D02*
X238692Y346898D01*
X208360Y280362D02*
X225692D01*
X203962Y275964D02*
X208360Y280362D01*
X359918Y282356D02*
Y328422D01*
X328422Y359918D02*
X359918Y328422D01*
X279908Y359918D02*
X328422D01*
X209804Y330200D02*
Y337566D01*
Y330200D02*
X219642Y320362D01*
X225692D01*
Y290362D02*
X239990D01*
X247142Y283210D01*
X364442Y278686D02*
Y334312D01*
X350400Y275590D02*
Y292742D01*
X350520Y292862D01*
X358648Y281086D02*
X359918Y282356D01*
X364442Y81232D02*
Y278686D01*
X358648Y257810D02*
Y281086D01*
Y257810D02*
X359918Y256540D01*
X334772Y363982D02*
X364442Y334312D01*
X359918Y85598D02*
Y256540D01*
X350654D02*
X359918D01*
X312854Y326524D02*
X330200D01*
X306692Y320362D02*
X312854Y326524D01*
X248692Y333362D02*
Y365226D01*
X243078Y370840D02*
X248692Y365226D01*
X119126Y370840D02*
X243078D01*
X73406Y325120D02*
X119126Y370840D01*
X293692Y237048D02*
Y252362D01*
Y237048D02*
X299092Y231648D01*
X350572Y76252D02*
X359918Y85598D01*
X328288Y240658D02*
Y261246D01*
X292862Y205232D02*
X328288Y240658D01*
X237744Y205232D02*
X292862D01*
X73406Y276098D02*
Y325120D01*
X268772Y348782D02*
X279908Y359918D01*
X276788Y363982D02*
X334772D01*
X263612Y350806D02*
X276788Y363982D01*
X263692Y333362D02*
Y348702D01*
X263612D02*
Y350806D01*
X268692Y333362D02*
Y348702D01*
X268772D02*
Y348782D01*
X141300Y139878D02*
X144272Y136906D01*
X128524Y139878D02*
X141300D01*
X73406Y125984D02*
X80772D01*
X90424Y135636D01*
Y139878D01*
X306692Y270362D02*
X319172D01*
X328288Y261246D01*
X352962Y69752D02*
X364442Y81232D01*
X201422Y143016D02*
Y168910D01*
X195312Y136906D02*
X201422Y143016D01*
X186436Y136906D02*
X195312D01*
X201422Y168910D02*
X237744Y205232D01*
X247142Y179070D02*
X268866D01*
X269494Y179698D01*
X332886D01*
X349022Y195834D01*
X269494Y194698D02*
X284346D01*
X287782Y191262D01*
X344932Y199924D02*
X349022Y195834D01*
X344932Y199924D02*
Y215766D01*
D19*
X213868Y337566D02*
X227330D01*
X227196Y337700D02*
X227330Y337566D01*
X227196Y337700D02*
Y358394D01*
X300616Y232156D02*
X311150D01*
X299092Y231648D02*
X300108Y232664D01*
X330200Y326524D02*
Y336550D01*
X326136Y340614D02*
X330200Y336550D01*
X309372Y340614D02*
X326136D01*
X203962Y271723D02*
X262833Y212852D01*
X263398D01*
X203962Y271723D02*
Y275964D01*
X335400Y275590D02*
X335654Y275336D01*
Y256540D02*
Y275336D01*
Y239642D02*
Y256540D01*
X306832Y210820D02*
X335654Y239642D01*
X141986Y118364D02*
X183896Y160274D01*
X141986Y102362D02*
Y118364D01*
X158750Y307340D02*
X183642Y282448D01*
X333388Y89252D02*
Y114668D01*
X262636Y75318D02*
X267342Y70612D01*
X262636Y75318D02*
Y90678D01*
X113022Y307340D02*
X158750D01*
X115824Y128524D02*
X141986Y102362D01*
X115824Y128524D02*
Y139878D01*
X268202Y69752D02*
X287388D01*
X267342Y70612D02*
X268202Y69752D01*
X128524Y193878D02*
X137592D01*
X150622Y180848D01*
X94460Y288778D02*
X113022Y307340D01*
X183642Y211328D02*
Y282448D01*
Y211328D02*
X183896Y211074D01*
X300108Y232664D02*
X300616Y232156D01*
D20*
X333388Y69752D02*
X352962D01*
X333388Y76252D02*
X350572D01*
D21*
X94460Y242718D02*
Y258778D01*
Y242718D02*
X102736Y234442D01*
X124460Y241166D02*
Y258778D01*
X117736Y234442D02*
X124460Y241166D01*
X102736Y216958D02*
Y234442D01*
X100408Y214630D02*
X102736Y216958D01*
X117736D02*
Y234442D01*
Y216958D02*
X119810Y214884D01*
Y205916D02*
Y214884D01*
X115824Y201930D02*
X119810Y205916D01*
X115824Y193878D02*
Y201930D01*
X100408Y205662D02*
Y214630D01*
Y205662D02*
X103124Y202946D01*
Y193878D02*
Y202946D01*
D22*
X91186Y102362D02*
D03*
X116586D02*
D03*
X167386D02*
D03*
X141986D02*
D03*
X183896Y211074D02*
D03*
Y185674D02*
D03*
Y160274D02*
D03*
D23*
X124460Y331978D02*
D03*
D24*
Y288778D02*
D03*
X94460D02*
D03*
X154460D02*
D03*
Y258778D02*
D03*
X124460D02*
D03*
X94460D02*
D03*
D25*
X314198Y372872D02*
D03*
X299974Y351536D02*
D03*
X204724Y241046D02*
D03*
X281686Y304292D02*
D03*
X266954Y281940D02*
D03*
X327152Y288544D02*
D03*
X305562Y254508D02*
D03*
X89916Y329946D02*
D03*
X82550Y348234D02*
D03*
X173990Y262128D02*
D03*
X184150Y299974D02*
D03*
X225298Y378206D02*
D03*
X196850Y359156D02*
D03*
X231648Y212344D02*
D03*
X233680Y186182D02*
D03*
X276098Y216662D02*
D03*
X216662Y172212D02*
D03*
X328422Y190500D02*
D03*
X329692Y170688D02*
D03*
X255778Y188722D02*
D03*
X100584Y312928D02*
D03*
X157988Y148336D02*
D03*
X94742Y124206D02*
D03*
X267970Y143256D02*
D03*
X208026Y195834D02*
D03*
X159004Y212344D02*
D03*
X139954Y169418D02*
D03*
X185928Y110998D02*
D03*
X210312Y89916D02*
D03*
X80518Y233934D02*
D03*
X140716Y237490D02*
D03*
X296672Y220726D02*
D03*
X254254Y211328D02*
D03*
D26*
X311150Y232156D02*
D03*
X309372Y340614D02*
D03*
X227330Y337566D02*
D03*
X247142Y283210D02*
D03*
X263398Y212852D02*
D03*
X350520Y292862D02*
D03*
X364442Y278686D02*
D03*
X262636Y90678D02*
D03*
X306832Y210820D02*
D03*
X150622Y180848D02*
D03*
X186436Y136906D02*
D03*
X144272D02*
D03*
X73406Y276098D02*
D03*
Y125984D02*
D03*
X247142Y179070D02*
D03*
D27*
X287782Y191262D02*
D03*
M02*
