G04 Layer_Color=65535*
%FSLAX44Y44*%
%MOMM*%
G71*
G01*
G75*
%ADD18C,0.2540*%
%ADD20C,0.2500*%
%ADD29C,0.6000*%
%ADD30C,0.4000*%
%ADD31C,0.2000*%
%ADD32C,0.2032*%
D18*
X183896Y88392D02*
G03*
X182626Y89662I0J1270D01*
G01*
X181356D02*
G03*
X181624Y90798I2540J0D01*
G01*
X187706Y89662D02*
G03*
X187706Y89662I-3810J0D01*
G01*
X188976D02*
G03*
X188976Y89662I-5080J0D01*
G01*
X209326Y216924D02*
G03*
X209326Y216924I-5680J0D01*
G01*
X207862Y217144D02*
G03*
X207862Y217144I-4016J0D01*
G01*
X206386D02*
G03*
X206386Y217144I-2540J0D01*
G01*
X205116D02*
G03*
X205116Y217144I-1270J0D01*
G01*
X198378Y311655D02*
X195839Y309116D01*
Y304037D01*
X198378Y301498D01*
X208535D01*
X211074Y304037D01*
Y309116D01*
X208535Y311655D01*
X195839Y326890D02*
Y316733D01*
X203456D01*
X200917Y321811D01*
Y324351D01*
X203456Y326890D01*
X208535D01*
X211074Y324351D01*
Y319272D01*
X208535Y316733D01*
X139700Y202687D02*
Y187452D01*
X147317D01*
X149857Y189991D01*
Y200148D01*
X147317Y202687D01*
X139700D01*
X154935Y187452D02*
X160013D01*
X157474D01*
Y202687D01*
X154935Y200148D01*
X60198Y242057D02*
Y226822D01*
X67815D01*
X70355Y229361D01*
Y239518D01*
X67815Y242057D01*
X60198D01*
X75433Y239518D02*
X77972Y242057D01*
X83051D01*
X85590Y239518D01*
Y229361D01*
X83051Y226822D01*
X77972D01*
X75433Y229361D01*
Y239518D01*
X257807Y235962D02*
X255268Y238501D01*
X250189D01*
X247650Y235962D01*
Y225805D01*
X250189Y223266D01*
X255268D01*
X257807Y225805D01*
X270503Y223266D02*
Y238501D01*
X262885Y230884D01*
X273042D01*
X258576Y362963D02*
X256037Y360424D01*
Y355345D01*
X258576Y352806D01*
X268733D01*
X271272Y355345D01*
Y360424D01*
X268733Y362963D01*
X258576Y368041D02*
X256037Y370580D01*
Y375659D01*
X258576Y378198D01*
X261115D01*
X263654Y375659D01*
Y373119D01*
Y375659D01*
X266194Y378198D01*
X268733D01*
X271272Y375659D01*
Y370580D01*
X268733Y368041D01*
X324609Y356612D02*
X322070Y359151D01*
X316991D01*
X314452Y356612D01*
Y346455D01*
X316991Y343916D01*
X322070D01*
X324609Y346455D01*
X339844Y343916D02*
X329687D01*
X339844Y354073D01*
Y356612D01*
X337305Y359151D01*
X332226D01*
X329687Y356612D01*
X196596Y242062D02*
Y257297D01*
X204214D01*
X206753Y254758D01*
Y249680D01*
X204214Y247140D01*
X196596D01*
X211831Y242062D02*
X216909D01*
X214370D01*
Y257297D01*
X211831Y254758D01*
X267205Y108962D02*
X264666Y111501D01*
X259587D01*
X257048Y108962D01*
Y98805D01*
X259587Y96266D01*
X264666D01*
X267205Y98805D01*
X272283Y108962D02*
X274822Y111501D01*
X279901D01*
X282440Y108962D01*
Y98805D01*
X279901Y96266D01*
X274822D01*
X272283Y98805D01*
Y108962D01*
X301498Y244094D02*
Y259329D01*
X309116D01*
X311655Y256790D01*
Y251712D01*
X309116Y249172D01*
X301498D01*
X306576D02*
X311655Y244094D01*
X316733D02*
X321811D01*
X319272D01*
Y259329D01*
X316733Y256790D01*
X360680Y288036D02*
X345445D01*
Y295653D01*
X347984Y298193D01*
X353063D01*
X355602Y295653D01*
Y288036D01*
Y293114D02*
X360680Y298193D01*
Y313428D02*
Y303271D01*
X350523Y313428D01*
X347984D01*
X345445Y310889D01*
Y305810D01*
X347984Y303271D01*
X135890Y227076D02*
Y242311D01*
X143507D01*
X146047Y239772D01*
Y234694D01*
X143507Y232154D01*
X135890D01*
X140968D02*
X146047Y227076D01*
X151125Y239772D02*
X153664Y242311D01*
X158743D01*
X161282Y239772D01*
Y237233D01*
X158743Y234694D01*
X156203D01*
X158743D01*
X161282Y232154D01*
Y229615D01*
X158743Y227076D01*
X153664D01*
X151125Y229615D01*
X261874Y144526D02*
X246639D01*
Y152143D01*
X249178Y154683D01*
X254256D01*
X256796Y152143D01*
Y144526D01*
Y149604D02*
X261874Y154683D01*
Y167379D02*
X246639D01*
X254256Y159761D01*
Y169918D01*
X284988Y375915D02*
Y363219D01*
X287527Y360680D01*
X292605D01*
X295145Y363219D01*
Y375915D01*
X300223Y360680D02*
X305301D01*
X302762D01*
Y375915D01*
X300223Y373376D01*
X277372Y132077D02*
X274833Y129537D01*
Y124459D01*
X277372Y121920D01*
X279911D01*
X282451Y124459D01*
Y129537D01*
X284990Y132077D01*
X287529D01*
X290068Y129537D01*
Y124459D01*
X287529Y121920D01*
X274833Y137155D02*
X290068D01*
X284990Y142233D01*
X290068Y147312D01*
X274833D01*
X290068Y152390D02*
Y157469D01*
Y154929D01*
X274833D01*
X277372Y152390D01*
X64267Y157226D02*
X76963D01*
X79502Y159765D01*
Y164844D01*
X76963Y167383D01*
X64267D01*
X66806Y172461D02*
X64267Y175000D01*
Y180079D01*
X66806Y182618D01*
X76963D01*
X79502Y180079D01*
Y175000D01*
X76963Y172461D01*
X66806D01*
X205994Y135885D02*
Y123189D01*
X208533Y120650D01*
X213612D01*
X216151Y123189D01*
Y135885D01*
X221229Y133346D02*
X223768Y135885D01*
X228847D01*
X231386Y133346D01*
Y130807D01*
X228847Y128267D01*
X226307D01*
X228847D01*
X231386Y125728D01*
Y123189D01*
X228847Y120650D01*
X223768D01*
X221229Y123189D01*
X138684Y137409D02*
Y124713D01*
X141223Y122174D01*
X146301D01*
X148841Y124713D01*
Y137409D01*
X161537Y122174D02*
Y137409D01*
X153919Y129791D01*
X164076D01*
X364993Y94742D02*
X352297D01*
X349758Y92203D01*
Y87125D01*
X352297Y84585D01*
X364993D01*
X349758Y69350D02*
Y79507D01*
X359915Y69350D01*
X362454D01*
X364993Y71889D01*
Y76968D01*
X362454Y79507D01*
D20*
X226942Y327362D02*
G03*
X226942Y327362I-1250J0D01*
G01*
X334638Y61502D02*
G03*
X334638Y61502I-1250J0D01*
G01*
X83174Y139878D02*
G03*
X83174Y139878I-1250J0D01*
G01*
D29*
X251692Y310362D02*
G03*
X251692Y310362I-3000J0D01*
G01*
D30*
X315388Y72502D02*
G03*
X315388Y72502I-2000J0D01*
G01*
D31*
X201804Y359066D02*
X217804D01*
X201804Y331066D02*
Y359066D01*
Y331066D02*
X217804D01*
Y359066D01*
X195962Y297464D02*
X211962D01*
X195962Y269464D02*
Y297464D01*
Y269464D02*
X211962D01*
Y297464D01*
X238692Y265362D02*
Y320362D01*
X293692Y265362D02*
Y320362D01*
X238692D02*
X293692D01*
X238692Y265362D02*
X293692D01*
X299388Y94502D02*
X321388D01*
X299388Y64502D02*
X321388D01*
X299388D02*
Y94502D01*
X321388Y64502D02*
Y94502D01*
X261494Y173198D02*
Y201198D01*
X277494D01*
Y173198D02*
Y201198D01*
X261494Y173198D02*
X277494D01*
X248696Y350394D02*
Y366394D01*
X220696D02*
X248696D01*
X220696Y350394D02*
Y366394D01*
Y350394D02*
X248696D01*
X322200Y305024D02*
X338200D01*
Y333024D01*
X322200D02*
X338200D01*
X322200Y305024D02*
Y333024D01*
X323432Y223766D02*
X351432D01*
Y207766D02*
Y223766D01*
X323432Y207766D02*
X351432D01*
X323432D02*
Y223766D01*
X96236Y226442D02*
X124236D01*
X96236D02*
Y242442D01*
X124236D01*
Y226442D02*
Y242442D01*
X329154Y248540D02*
X357154D01*
X329154D02*
Y264540D01*
X357154D01*
Y248540D02*
Y264540D01*
X277592Y223648D02*
Y239648D01*
Y223648D02*
X305592D01*
Y239648D01*
X277592D02*
X305592D01*
X84974Y151378D02*
X133974D01*
X84974Y182378D02*
X133974D01*
X84974Y151378D02*
Y182378D01*
X133974Y151378D02*
Y182378D01*
X65786Y117602D02*
X192786D01*
X65786Y51562D02*
Y117602D01*
Y51562D02*
X192786D01*
Y117602D01*
X328900Y267590D02*
X356900D01*
X328900D02*
Y283590D01*
X356900D01*
Y267590D02*
Y283590D01*
X111760Y206756D02*
Y223012D01*
X149860D01*
Y206756D02*
Y223012D01*
X111760Y206756D02*
X149860D01*
X108458Y206502D02*
Y222758D01*
X70358Y206502D02*
X108458D01*
X70358D02*
Y222758D01*
X108458D01*
X245842Y78612D02*
X273842D01*
Y62612D02*
Y78612D01*
X245842Y62612D02*
X273842D01*
X245842D02*
Y78612D01*
X57460Y379978D02*
X191460D01*
Y246228D02*
Y379978D01*
X57460Y246228D02*
X191460D01*
X57460D02*
Y379978D01*
X238146Y141424D02*
Y229924D01*
X167646Y141424D02*
X238146D01*
X167646D02*
Y229924D01*
X238146D01*
X355522Y128084D02*
Y182834D01*
X295522Y128084D02*
Y184084D01*
X314272Y200834D02*
X338022D01*
X314022Y110834D02*
X338022D01*
D32*
X203790Y374816D02*
X201674Y376932D01*
X197442D01*
X195326Y374816D01*
Y366352D01*
X197442Y364236D01*
X201674D01*
X203790Y366352D01*
X216486Y376932D02*
X212254Y374816D01*
X208022Y370584D01*
Y366352D01*
X210138Y364236D01*
X214370D01*
X216486Y366352D01*
Y368468D01*
X214370Y370584D01*
X208022D01*
X354672Y234524D02*
X352556Y232408D01*
Y228176D01*
X354672Y226060D01*
X363136D01*
X365252Y228176D01*
Y232408D01*
X363136Y234524D01*
X365252Y238756D02*
Y242988D01*
Y240872D01*
X352556D01*
X354672Y238756D01*
M02*
