G04 Layer_Physical_Order=1*
G04 Layer_Color=255*
%FSLAX24Y24*%
%MOIN*%
G70*
G01*
G75*
%ADD10R,0.0276X0.0354*%
%ADD11R,0.0354X0.0276*%
%ADD12O,0.0630X0.0189*%
%ADD13O,0.0236X0.0591*%
%ADD14R,0.0551X0.0610*%
%ADD15R,0.0945X0.0299*%
%ADD16O,0.0118X0.0709*%
%ADD17O,0.0709X0.0118*%
%ADD18R,0.0236X0.0394*%
%ADD19C,0.0100*%
%ADD20C,0.0300*%
%ADD21C,0.0098*%
%ADD22C,0.0250*%
%ADD23C,0.0200*%
%ADD24C,0.0150*%
%ADD25C,0.0098*%
%ADD26C,0.0005*%
%ADD27C,0.0787*%
%ADD28C,0.1181*%
%ADD29C,0.0669*%
%ADD30C,0.0394*%
%ADD31C,0.0240*%
%ADD32C,0.0236*%
%ADD33C,0.0300*%
G36*
X13941Y3974D02*
X13906Y3939D01*
X13900D01*
X13828Y3924D01*
X13767Y3883D01*
X13726Y3822D01*
X13711Y3750D01*
X13726Y3678D01*
X13767Y3617D01*
X13828Y3576D01*
X13900Y3561D01*
X13984D01*
X14057Y3576D01*
X14118Y3617D01*
X14450Y3949D01*
X14500Y3928D01*
Y3859D01*
X13755Y3113D01*
X13491D01*
X13469Y3163D01*
X13492Y3198D01*
X13504Y3258D01*
X13492Y3318D01*
X13463Y3360D01*
X13485Y3375D01*
X13528Y3439D01*
X13533Y3464D01*
X13126D01*
X12718D01*
X12723Y3439D01*
X12766Y3375D01*
X12788Y3360D01*
X12760Y3318D01*
X12748Y3258D01*
X12760Y3198D01*
X12794Y3147D01*
Y3113D01*
X12760Y3062D01*
X12748Y3002D01*
X12760Y2942D01*
X12781Y2909D01*
X12790Y2874D01*
X12781Y2839D01*
X12760Y2806D01*
X12748Y2746D01*
X12760Y2686D01*
X12794Y2635D01*
X12845Y2601D01*
X12905Y2589D01*
X13124D01*
X13452Y2261D01*
X13452Y2261D01*
X13489Y2236D01*
X13532Y2228D01*
X13532Y2228D01*
X14500D01*
Y2040D01*
X9130D01*
Y2980D01*
X9330Y3180D01*
X10177Y3180D01*
Y3056D01*
X10004D01*
Y2830D01*
X10231D01*
X10241Y2834D01*
X10308Y2767D01*
Y2543D01*
X10703D01*
Y2583D01*
X11314D01*
X11343Y2589D01*
X11535D01*
X11595Y2601D01*
X11646Y2635D01*
X11680Y2686D01*
X11692Y2746D01*
X11680Y2806D01*
X11652Y2848D01*
X11674Y2863D01*
X11717Y2927D01*
X11722Y2952D01*
X11314D01*
X10900D01*
X10868Y2909D01*
X10703D01*
Y3017D01*
X10519D01*
X10503Y3033D01*
Y3323D01*
X11170Y4020D01*
X11870D01*
X13922Y4020D01*
X13941Y3974D01*
D02*
G37*
G36*
X17580Y8580D02*
Y2050D01*
X14600D01*
Y2228D01*
X14686D01*
X14686Y2228D01*
X14729Y2236D01*
X14765Y2261D01*
X15237Y2733D01*
X15513D01*
Y3207D01*
X15428D01*
Y4394D01*
X15428Y4394D01*
X15419Y4437D01*
X15395Y4474D01*
X15395Y4474D01*
X14622Y5246D01*
Y6671D01*
X14638Y6682D01*
X14678Y6741D01*
X14692Y6810D01*
X14678Y6879D01*
X14638Y6938D01*
X14579Y6978D01*
X14510Y6992D01*
X14441Y6978D01*
X14382Y6938D01*
X14362Y6909D01*
X14312Y6924D01*
Y7021D01*
X14328Y7032D01*
X14368Y7091D01*
X14382Y7160D01*
X14368Y7229D01*
X14328Y7288D01*
X14269Y7328D01*
X14200Y7342D01*
X14131Y7328D01*
X14086Y7298D01*
X14040Y7316D01*
X14036Y7320D01*
Y8005D01*
X13692D01*
Y8258D01*
X13758D01*
Y8383D01*
X13935D01*
X13935Y8383D01*
X13978Y8391D01*
X14015Y8415D01*
X14267Y8668D01*
X14346D01*
X14361Y8618D01*
X14332Y8598D01*
X14292Y8539D01*
X14278Y8470D01*
X14292Y8401D01*
X14332Y8342D01*
X14391Y8302D01*
X14460Y8288D01*
X14479Y8292D01*
X14571Y8201D01*
X14571Y8201D01*
X14607Y8176D01*
X14650Y8168D01*
X14650Y8168D01*
X14778D01*
Y8070D01*
X15818D01*
Y7990D01*
X14778D01*
Y7892D01*
X14536D01*
X14468Y7961D01*
X14472Y7980D01*
X14458Y8049D01*
X14418Y8108D01*
X14359Y8148D01*
X14290Y8162D01*
X14221Y8148D01*
X14162Y8108D01*
X14122Y8049D01*
X14108Y7980D01*
X14122Y7911D01*
X14162Y7852D01*
X14221Y7812D01*
X14290Y7798D01*
X14309Y7802D01*
X14411Y7701D01*
X14411Y7701D01*
X14447Y7676D01*
X14490Y7668D01*
X14490Y7668D01*
X14778D01*
Y7570D01*
X15818D01*
Y7506D01*
X15801Y7490D01*
X14778D01*
Y7070D01*
X15842D01*
Y7214D01*
X15996Y7367D01*
X16046Y7348D01*
Y7075D01*
X15892Y6921D01*
X15842Y6942D01*
Y6990D01*
X14778D01*
Y6570D01*
X15842D01*
Y6668D01*
X15910D01*
X15910Y6668D01*
X15953Y6676D01*
X15989Y6701D01*
X16237Y6949D01*
X16237Y6949D01*
X16261Y6984D01*
X16263Y6984D01*
X16265Y6984D01*
X16294Y6966D01*
X16313Y6940D01*
Y6570D01*
X16418D01*
X16437Y6524D01*
X16167Y6253D01*
X16126Y6192D01*
X16111Y6120D01*
X16126Y6048D01*
X16167Y5987D01*
X16228Y5946D01*
X16300Y5931D01*
X16372Y5946D01*
X16433Y5987D01*
X16973Y6527D01*
X17003Y6570D01*
X17378D01*
Y6982D01*
X17378Y6990D01*
X17396Y7032D01*
X17416D01*
Y7230D01*
X16845D01*
Y7330D01*
X17416D01*
Y7482D01*
X17416Y7528D01*
X17416Y7578D01*
Y7730D01*
X16845D01*
Y7830D01*
X17416D01*
Y8028D01*
X17396D01*
X17378Y8070D01*
X17378Y8078D01*
Y8482D01*
X17378Y8490D01*
X17396Y8532D01*
X17416D01*
Y8730D01*
X16845D01*
Y8780D01*
X16795D01*
Y9028D01*
X16320D01*
X16275Y9028D01*
X16270Y9076D01*
Y12202D01*
X16262Y12245D01*
X16237Y12281D01*
X16237Y12281D01*
X15353Y13166D01*
X15352Y13170D01*
X15360Y13226D01*
X15361Y13226D01*
X15398Y13252D01*
X15438Y13311D01*
X15452Y13380D01*
X15438Y13449D01*
X15398Y13508D01*
X15339Y13548D01*
X15331Y13549D01*
X15318Y13563D01*
Y13813D01*
X15352D01*
Y14287D01*
X14957D01*
Y14162D01*
X14760D01*
X14717Y14154D01*
X14681Y14129D01*
X14681Y14129D01*
X14345Y13794D01*
X14321Y13757D01*
X14312Y13714D01*
X14312Y13714D01*
Y13624D01*
X14129D01*
X14083Y13615D01*
X14043Y13589D01*
X14017Y13549D01*
X14008Y13503D01*
X14017Y13456D01*
X14034Y13431D01*
X14016Y13419D01*
X13981Y13367D01*
X13979Y13356D01*
X14424D01*
Y13256D01*
X13979D01*
X13981Y13244D01*
X14016Y13192D01*
X14034Y13180D01*
X14017Y13155D01*
X14008Y13109D01*
X14017Y13063D01*
X14043Y13023D01*
Y12998D01*
X14017Y12959D01*
X14008Y12912D01*
X14017Y12866D01*
X14043Y12826D01*
Y12801D01*
X14017Y12762D01*
X14008Y12715D01*
X14017Y12669D01*
X14043Y12629D01*
Y12604D01*
X14017Y12565D01*
X14008Y12518D01*
X14017Y12472D01*
X14043Y12433D01*
Y12407D01*
X14017Y12368D01*
X14008Y12322D01*
X14017Y12275D01*
X14043Y12236D01*
Y12211D01*
X14017Y12171D01*
X14008Y12125D01*
X14017Y12078D01*
X14043Y12039D01*
Y12014D01*
X14017Y11974D01*
X14008Y11928D01*
X14017Y11881D01*
X14043Y11842D01*
Y11817D01*
X14017Y11777D01*
X14008Y11731D01*
X14017Y11685D01*
X14043Y11645D01*
Y11620D01*
X14017Y11581D01*
X14008Y11534D01*
X14017Y11488D01*
X14043Y11448D01*
Y11423D01*
X14017Y11384D01*
X14008Y11337D01*
X14017Y11291D01*
X14043Y11251D01*
X14083Y11225D01*
X14129Y11216D01*
X14720D01*
X14766Y11225D01*
X14806Y11251D01*
X14832Y11291D01*
X14841Y11337D01*
X14832Y11384D01*
X14806Y11423D01*
Y11448D01*
X14832Y11488D01*
X14841Y11534D01*
X14832Y11581D01*
X14806Y11620D01*
Y11645D01*
X14832Y11685D01*
X14841Y11731D01*
X14832Y11777D01*
X14806Y11817D01*
Y11842D01*
X14832Y11881D01*
X14841Y11928D01*
X14832Y11974D01*
X14806Y12014D01*
Y12039D01*
X14832Y12078D01*
X14841Y12125D01*
X14832Y12171D01*
X14806Y12211D01*
Y12236D01*
X14832Y12275D01*
X14841Y12322D01*
X14832Y12368D01*
X14806Y12407D01*
Y12433D01*
X14832Y12472D01*
X14841Y12518D01*
X14832Y12565D01*
X14806Y12604D01*
Y12629D01*
X14832Y12669D01*
X14841Y12715D01*
X14832Y12762D01*
X14806Y12801D01*
Y12826D01*
X14832Y12866D01*
X14841Y12912D01*
X14834Y12947D01*
X14862Y12997D01*
X15205D01*
X16046Y12155D01*
Y11930D01*
X16007Y11909D01*
X15996Y11908D01*
X15930Y11922D01*
X15861Y11908D01*
X15802Y11868D01*
X15762Y11809D01*
X15748Y11740D01*
X15762Y11671D01*
X15802Y11612D01*
X15818Y11601D01*
Y8990D01*
X14778D01*
Y8892D01*
X14221D01*
X14221Y8892D01*
X14178Y8884D01*
X14141Y8859D01*
X14141Y8859D01*
X13889Y8607D01*
X13758D01*
Y8732D01*
X13363D01*
Y8258D01*
X13468D01*
Y8005D01*
X13364D01*
Y7492D01*
X13059Y7187D01*
X12264D01*
X12263Y7236D01*
X12263Y7237D01*
Y7590D01*
X11889D01*
Y7640D01*
X11839D01*
Y8043D01*
X11515D01*
Y7714D01*
X11465Y7692D01*
X11412Y7728D01*
X11330Y7744D01*
X11284Y7735D01*
X11274Y7745D01*
X11238Y7769D01*
X11195Y7777D01*
X11195Y7777D01*
X10847D01*
Y7843D01*
X10373D01*
Y7448D01*
X10847D01*
Y7553D01*
X11097D01*
X11116Y7530D01*
X11132Y7448D01*
X11179Y7379D01*
X11248Y7332D01*
X11330Y7316D01*
X11412Y7332D01*
X11465Y7368D01*
X11515Y7346D01*
Y7237D01*
X11515Y7236D01*
X11514Y7187D01*
X10847D01*
Y7292D01*
X10373D01*
Y7212D01*
X9546D01*
X9496Y7263D01*
X9478Y7312D01*
X9518Y7371D01*
X9532Y7440D01*
X9518Y7509D01*
X9478Y7568D01*
X9419Y7608D01*
X9350Y7622D01*
X9281Y7608D01*
X9222Y7568D01*
X9182Y7509D01*
X9168Y7440D01*
X9182Y7371D01*
X9222Y7312D01*
X9238Y7301D01*
Y7250D01*
X9238Y7250D01*
X9246Y7207D01*
X9271Y7171D01*
X9421Y7021D01*
X9457Y6996D01*
X9500Y6988D01*
X9500Y6988D01*
X10373D01*
Y6897D01*
X10847D01*
Y6963D01*
X13106D01*
X13106Y6963D01*
X13149Y6971D01*
X13185Y6995D01*
X13464Y7275D01*
X14002D01*
X14030Y7233D01*
X14031Y7225D01*
X14018Y7160D01*
X14032Y7091D01*
X14072Y7032D01*
X14088Y7021D01*
Y6249D01*
X14038Y6234D01*
X14028Y6248D01*
X13969Y6288D01*
X13900Y6302D01*
X13831Y6288D01*
X13772Y6248D01*
X13732Y6189D01*
X13718Y6120D01*
X13732Y6051D01*
X13772Y5992D01*
X13831Y5952D01*
X13900Y5938D01*
X13969Y5952D01*
X14028Y5992D01*
X14038Y6006D01*
X14088Y5991D01*
Y5130D01*
X14088Y5130D01*
X14096Y5087D01*
X14121Y5051D01*
X14798Y4374D01*
Y4156D01*
X14688Y4047D01*
X14642Y4066D01*
Y4447D01*
X14247D01*
Y4279D01*
X14093Y4125D01*
X14037Y4140D01*
X14036Y4145D01*
X14036Y4150D01*
Y4875D01*
X13364D01*
Y4150D01*
X13364Y4145D01*
X13352Y4100D01*
X12237D01*
X12225Y4145D01*
X12225Y4150D01*
Y4875D01*
X11553D01*
Y4150D01*
X11553Y4145D01*
X11541Y4100D01*
X10810D01*
X10432Y3722D01*
X10409Y3738D01*
X10340Y3752D01*
X10271Y3738D01*
X10212Y3698D01*
X10172Y3640D01*
X10158Y3570D01*
X10172Y3501D01*
X10177Y3494D01*
Y3467D01*
X9960Y3250D01*
X9200D01*
X8950Y3000D01*
X8950Y2050D01*
X2200D01*
Y15240D01*
X4203D01*
X4226Y15195D01*
X4222Y15189D01*
X4208Y15120D01*
X4212Y15101D01*
X2431Y13319D01*
X2406Y13283D01*
X2398Y13240D01*
X2398Y13240D01*
Y10979D01*
X2382Y10968D01*
X2342Y10909D01*
X2328Y10840D01*
X2342Y10771D01*
X2382Y10712D01*
X2440Y10672D01*
X2510Y10658D01*
X2580Y10672D01*
X2638Y10712D01*
X2678Y10771D01*
X2679Y10779D01*
X2732Y10786D01*
X2762Y10742D01*
X2821Y10702D01*
X2890Y10688D01*
X2959Y10702D01*
X3018Y10742D01*
X3058Y10801D01*
X3072Y10870D01*
X3058Y10939D01*
X3018Y10998D01*
X3002Y11009D01*
Y13334D01*
X4296Y14628D01*
X6401D01*
X6412Y14612D01*
X6471Y14572D01*
X6540Y14558D01*
X6609Y14572D01*
X6668Y14612D01*
X6708Y14671D01*
X6722Y14740D01*
X6708Y14809D01*
X6668Y14868D01*
X6609Y14908D01*
X6540Y14922D01*
X6471Y14908D01*
X6412Y14868D01*
X6401Y14852D01*
X4346D01*
X4327Y14898D01*
X4371Y14942D01*
X4390Y14938D01*
X4460Y14952D01*
X4518Y14992D01*
X4558Y15051D01*
X4572Y15120D01*
X4558Y15189D01*
X4554Y15195D01*
X4577Y15240D01*
X7742D01*
X7778Y15206D01*
X7778Y15190D01*
Y14980D01*
X8014D01*
X8251D01*
Y15190D01*
X8251Y15206D01*
X8287Y15240D01*
X9293D01*
X9316Y15195D01*
X9312Y15189D01*
X9298Y15120D01*
X9312Y15051D01*
X9352Y14992D01*
X9411Y14952D01*
X9480Y14938D01*
X9549Y14952D01*
X9608Y14992D01*
X9631Y15025D01*
X10036D01*
X10060Y14981D01*
X10052Y14969D01*
X10038Y14900D01*
X10052Y14831D01*
X10092Y14772D01*
X10151Y14732D01*
X10220Y14718D01*
X10289Y14732D01*
X10348Y14772D01*
X10388Y14831D01*
X10402Y14900D01*
X10388Y14969D01*
X10380Y14981D01*
X10404Y15025D01*
X10778D01*
Y14900D01*
X11014D01*
Y14800D01*
X10778D01*
Y14574D01*
X10994D01*
X11013Y14528D01*
X10895Y14410D01*
X10859Y14357D01*
X10847Y14294D01*
Y14156D01*
X10842Y14149D01*
X10841Y14141D01*
X10697Y13998D01*
X10477D01*
Y14032D01*
X10003D01*
Y13637D01*
X10279D01*
X10492Y13423D01*
X10492Y13423D01*
X10529Y13399D01*
X10572Y13391D01*
X10798D01*
X10826Y13341D01*
X10819Y13306D01*
X10828Y13259D01*
X10854Y13220D01*
Y13195D01*
X10828Y13155D01*
X10819Y13109D01*
X10828Y13063D01*
X10854Y13023D01*
Y12998D01*
X10828Y12959D01*
X10819Y12912D01*
X10826Y12877D01*
X10799Y12827D01*
X9301D01*
X9003Y13125D01*
X9010Y13144D01*
X9019Y13211D01*
X9010Y13278D01*
X8984Y13340D01*
X8943Y13394D01*
X8890Y13435D01*
X8871Y13443D01*
Y14736D01*
X8863Y14778D01*
X8839Y14814D01*
X8763Y14890D01*
Y15167D01*
X8368D01*
Y14693D01*
X8645D01*
X8649Y14689D01*
Y13443D01*
X8630Y13435D01*
X8577Y13394D01*
X8536Y13340D01*
X8510Y13278D01*
X8501Y13211D01*
X8510Y13144D01*
X8536Y13081D01*
X8577Y13027D01*
X8630Y12986D01*
X8693Y12960D01*
X8760Y12952D01*
X8827Y12960D01*
X8845Y12968D01*
X9177Y12637D01*
X9213Y12612D01*
X9255Y12604D01*
X9255Y12604D01*
X9561D01*
X9581Y12554D01*
X8681Y11654D01*
X8657Y11618D01*
X8649Y11575D01*
Y11521D01*
X8630Y11514D01*
X8577Y11473D01*
X8536Y11419D01*
X8510Y11356D01*
X8501Y11289D01*
X8510Y11222D01*
X8536Y11160D01*
X8577Y11106D01*
X8630Y11065D01*
X8649Y11057D01*
Y10620D01*
X8657Y10577D01*
X8681Y10541D01*
X9611Y9611D01*
X9647Y9587D01*
X9690Y9579D01*
X9997D01*
Y9453D01*
X10392D01*
Y9927D01*
X9997D01*
Y9801D01*
X9736D01*
X8871Y10666D01*
Y11057D01*
X8890Y11065D01*
X8943Y11106D01*
X8984Y11160D01*
X9010Y11222D01*
X9019Y11289D01*
X9010Y11356D01*
X8984Y11419D01*
X8943Y11473D01*
X8911Y11498D01*
X8902Y11554D01*
X8904Y11562D01*
X9172Y11829D01*
X9218Y11810D01*
Y11609D01*
X9202Y11598D01*
X9162Y11539D01*
X9148Y11470D01*
X9162Y11401D01*
X9202Y11342D01*
X9261Y11302D01*
X9330Y11288D01*
X9399Y11302D01*
X9458Y11342D01*
X9498Y11401D01*
X9512Y11470D01*
X9498Y11539D01*
X9458Y11598D01*
X9442Y11609D01*
Y11874D01*
X9778Y12209D01*
X9912D01*
X9954Y12192D01*
Y12006D01*
X10230D01*
Y11956D01*
X10280D01*
Y11719D01*
X10321D01*
X10340Y11673D01*
X10269Y11602D01*
X9993D01*
Y11207D01*
X10117D01*
Y10966D01*
X10112Y10959D01*
X10098Y10890D01*
X10112Y10821D01*
X10119Y10811D01*
X10129Y10758D01*
X10165Y10705D01*
X10858Y10012D01*
X10838Y9966D01*
X10796D01*
Y9740D01*
X10982D01*
Y9822D01*
X11028Y9841D01*
X11845Y9025D01*
X11898Y8989D01*
X11960Y8977D01*
X12174D01*
X12181Y8972D01*
X12250Y8958D01*
X12319Y8972D01*
X12326Y8977D01*
X13524D01*
X13587Y8989D01*
X13640Y9025D01*
X14148Y9533D01*
X14194Y9514D01*
Y9298D01*
X14420D01*
Y9534D01*
X14470D01*
Y9584D01*
X14746D01*
Y9771D01*
X14451D01*
X14432Y9817D01*
X14503Y9888D01*
X14707D01*
Y10092D01*
X15146Y10531D01*
X15154Y10532D01*
X15213Y10572D01*
X15252Y10631D01*
X15266Y10700D01*
X15252Y10769D01*
X15213Y10828D01*
X15154Y10868D01*
X15084Y10882D01*
X15015Y10868D01*
X14956Y10828D01*
X14917Y10769D01*
X14915Y10761D01*
X14628Y10475D01*
X14582Y10494D01*
Y10640D01*
X14574Y10683D01*
X14549Y10719D01*
X14549Y10719D01*
X14364Y10905D01*
X14327Y10929D01*
X14284Y10938D01*
X14284Y10938D01*
X14034D01*
Y11121D01*
X14025Y11167D01*
X13999Y11207D01*
X13959Y11233D01*
X13913Y11242D01*
X13866Y11233D01*
X13841Y11216D01*
X13829Y11234D01*
X13777Y11269D01*
X13766Y11271D01*
Y10826D01*
Y10380D01*
X13777Y10382D01*
X13829Y10417D01*
X13841Y10435D01*
X13866Y10418D01*
X13913Y10409D01*
X13959Y10418D01*
X13999Y10444D01*
X14025Y10484D01*
X14034Y10530D01*
Y10713D01*
X14238D01*
X14358Y10594D01*
Y10283D01*
X14233D01*
Y10079D01*
X13457Y9303D01*
X12326D01*
X12319Y9308D01*
X12250Y9322D01*
X12181Y9308D01*
X12174Y9303D01*
X12028D01*
X10458Y10873D01*
X10462Y10890D01*
X10448Y10959D01*
X10443Y10966D01*
Y11207D01*
X10467D01*
Y11483D01*
X10770Y11786D01*
X10823Y11771D01*
X10826Y11766D01*
X10819Y11731D01*
X10828Y11685D01*
X10854Y11645D01*
Y11620D01*
X10828Y11581D01*
X10819Y11534D01*
X10828Y11488D01*
X10854Y11448D01*
Y11423D01*
X10828Y11384D01*
X10819Y11337D01*
X10828Y11291D01*
X10854Y11251D01*
X10894Y11225D01*
X10940Y11216D01*
X11531D01*
X11577Y11225D01*
X11617Y11251D01*
X11643Y11291D01*
X11652Y11337D01*
X11643Y11384D01*
X11617Y11423D01*
Y11448D01*
X11643Y11488D01*
X11652Y11534D01*
X11643Y11581D01*
X11617Y11620D01*
Y11645D01*
X11643Y11685D01*
X11652Y11731D01*
X11643Y11777D01*
X11617Y11817D01*
Y11842D01*
X11643Y11881D01*
X11652Y11928D01*
X11643Y11974D01*
X11626Y11999D01*
X11644Y12011D01*
X11679Y12063D01*
X11681Y12075D01*
X11236D01*
Y12175D01*
X11681D01*
X11679Y12186D01*
X11644Y12238D01*
X11626Y12250D01*
X11643Y12275D01*
X11652Y12322D01*
X11643Y12368D01*
X11617Y12407D01*
Y12433D01*
X11643Y12472D01*
X11652Y12518D01*
X11643Y12565D01*
X11617Y12604D01*
Y12629D01*
X11643Y12669D01*
X11652Y12715D01*
X11643Y12762D01*
X11617Y12801D01*
Y12826D01*
X11643Y12866D01*
X11652Y12912D01*
X11643Y12959D01*
X11617Y12998D01*
Y13023D01*
X11643Y13063D01*
X11652Y13109D01*
X11643Y13155D01*
X11617Y13195D01*
Y13220D01*
X11643Y13259D01*
X11652Y13306D01*
X11643Y13352D01*
X11617Y13392D01*
Y13417D01*
X11643Y13456D01*
X11652Y13503D01*
X11643Y13549D01*
X11617Y13589D01*
X11577Y13615D01*
X11531Y13624D01*
X10940D01*
X10894Y13615D01*
X10658D01*
X10654Y13621D01*
X10680Y13671D01*
X10764D01*
X10827Y13684D01*
X10880Y13719D01*
X11071Y13911D01*
X11079Y13912D01*
X11138Y13952D01*
X11178Y14011D01*
X11192Y14080D01*
X11178Y14149D01*
X11173Y14156D01*
Y14227D01*
X11408Y14462D01*
X11454Y14443D01*
Y14196D01*
X11463Y14154D01*
X11487Y14117D01*
X11626Y13978D01*
Y13719D01*
X11635Y13673D01*
X11661Y13633D01*
X11701Y13607D01*
X11747Y13598D01*
X11794Y13607D01*
X11819Y13624D01*
X11831Y13606D01*
X11883Y13571D01*
X11894Y13569D01*
Y14014D01*
X11994D01*
Y13569D01*
X12006Y13571D01*
X12058Y13606D01*
X12070Y13624D01*
X12095Y13607D01*
X12141Y13598D01*
X12187Y13607D01*
X12227Y13633D01*
X12252D01*
X12291Y13607D01*
X12338Y13598D01*
X12384Y13607D01*
X12409Y13624D01*
X12421Y13606D01*
X12473Y13571D01*
X12485Y13569D01*
Y14014D01*
Y14474D01*
X12450Y14498D01*
Y14812D01*
X12450Y14812D01*
X12441Y14855D01*
X12417Y14891D01*
X12417Y14891D01*
X12119Y15190D01*
X12140Y15240D01*
X17580D01*
Y8580D01*
D02*
G37*
%LPC*%
G36*
X11535Y3711D02*
X11364D01*
Y3564D01*
X11722D01*
X11717Y3589D01*
X11674Y3653D01*
X11610Y3696D01*
X11535Y3711D01*
D02*
G37*
G36*
X13076D02*
X12905D01*
X12830Y3696D01*
X12766Y3653D01*
X12723Y3589D01*
X12718Y3564D01*
X13076D01*
Y3711D01*
D02*
G37*
G36*
X13346D02*
X13176D01*
Y3564D01*
X13533D01*
X13528Y3589D01*
X13485Y3653D01*
X13421Y3696D01*
X13346Y3711D01*
D02*
G37*
G36*
X10191Y2730D02*
X10004D01*
Y2504D01*
X10191D01*
Y2730D01*
D02*
G37*
G36*
X9904D02*
X9718D01*
Y2504D01*
X9904D01*
Y2730D01*
D02*
G37*
G36*
Y3056D02*
X9718D01*
Y2830D01*
X9904D01*
Y3056D01*
D02*
G37*
G36*
X11722Y3464D02*
X11314D01*
X10907D01*
X10912Y3439D01*
X10948Y3386D01*
X10912Y3333D01*
X10907Y3308D01*
X11314D01*
X11722D01*
X11717Y3333D01*
X11681Y3386D01*
X11717Y3439D01*
X11722Y3464D01*
D02*
G37*
G36*
X11264Y3711D02*
X11094D01*
X11019Y3696D01*
X10955Y3653D01*
X10912Y3589D01*
X10907Y3564D01*
X11264D01*
Y3711D01*
D02*
G37*
G36*
X11722Y3208D02*
X11314D01*
X10907D01*
X10912Y3183D01*
X10948Y3130D01*
X10912Y3077D01*
X10907Y3052D01*
X11314D01*
X11722D01*
X11717Y3077D01*
X11681Y3130D01*
X11717Y3183D01*
X11722Y3208D01*
D02*
G37*
G36*
X6066Y4454D02*
X5840D01*
Y4268D01*
X6066D01*
Y4454D01*
D02*
G37*
G36*
X5740Y4741D02*
X5514D01*
Y4554D01*
X5740D01*
Y4741D01*
D02*
G37*
G36*
Y4454D02*
X5514D01*
Y4268D01*
X5740D01*
Y4454D01*
D02*
G37*
G36*
X6066Y4741D02*
X5840D01*
Y4554D01*
X6066D01*
Y4741D01*
D02*
G37*
G36*
X4110Y5895D02*
Y5557D01*
X4281D01*
Y5684D01*
X4264Y5769D01*
X4216Y5840D01*
X4144Y5888D01*
X4110Y5895D01*
D02*
G37*
G36*
X4010D02*
X3976Y5888D01*
X3904Y5840D01*
X3856Y5769D01*
X3839Y5684D01*
Y5557D01*
X4010D01*
Y5895D01*
D02*
G37*
G36*
X3510Y7583D02*
X3339D01*
Y7456D01*
X3356Y7371D01*
X3404Y7300D01*
X3476Y7252D01*
X3510Y7245D01*
Y7583D01*
D02*
G37*
G36*
X5060Y7992D02*
X4990Y7978D01*
X4932Y7939D01*
X4892Y7880D01*
X4878Y7810D01*
Y7456D01*
X4892Y7386D01*
X4932Y7327D01*
X4990Y7288D01*
X5060Y7274D01*
X5129Y7288D01*
X5188Y7327D01*
X5228Y7386D01*
X5242Y7456D01*
Y7470D01*
X5349D01*
X5761Y7059D01*
X5762Y7051D01*
X5802Y6992D01*
X5861Y6952D01*
X5930Y6938D01*
X5999Y6952D01*
X6058Y6992D01*
X6098Y7051D01*
X6112Y7120D01*
X6098Y7189D01*
X6058Y7248D01*
X5999Y7288D01*
X5991Y7289D01*
X5532Y7748D01*
X5479Y7784D01*
X5417Y7796D01*
X5242D01*
Y7810D01*
X5228Y7880D01*
X5188Y7939D01*
X5129Y7978D01*
X5060Y7992D01*
D02*
G37*
G36*
X4281Y5457D02*
X4110D01*
Y5119D01*
X4144Y5126D01*
X4216Y5174D01*
X4264Y5245D01*
X4281Y5330D01*
Y5457D01*
D02*
G37*
G36*
X4010D02*
X3839D01*
Y5330D01*
X3856Y5245D01*
X3904Y5174D01*
X3976Y5126D01*
X4010Y5119D01*
Y5457D01*
D02*
G37*
G36*
X7714Y6980D02*
X7224D01*
X6734D01*
X6745Y6902D01*
X6794Y6782D01*
X6873Y6679D01*
X6976Y6600D01*
X7096Y6551D01*
X7192Y6538D01*
X7207Y6536D01*
Y6485D01*
X7192Y6483D01*
X7106Y6472D01*
X6995Y6426D01*
X6901Y6354D01*
X6828Y6259D01*
X6782Y6148D01*
X6767Y6030D01*
X6782Y5912D01*
X6809Y5846D01*
X6178Y5215D01*
X6027D01*
Y5253D01*
X5553D01*
Y5215D01*
X5250D01*
X5231Y5252D01*
X5229Y5265D01*
X5242Y5330D01*
Y5684D01*
X5228Y5754D01*
X5188Y5813D01*
X5172Y5823D01*
Y5840D01*
X5164Y5883D01*
X5139Y5919D01*
X5139Y5919D01*
X4889Y6169D01*
X4853Y6194D01*
X4810Y6202D01*
X4810Y6202D01*
X2786D01*
X2622Y6366D01*
Y6541D01*
X2638Y6552D01*
X2678Y6611D01*
X2692Y6680D01*
X2678Y6749D01*
X2638Y6808D01*
X2580Y6848D01*
X2510Y6862D01*
X2440Y6848D01*
X2382Y6808D01*
X2342Y6749D01*
X2328Y6680D01*
X2342Y6611D01*
X2382Y6552D01*
X2398Y6541D01*
Y6320D01*
X2398Y6320D01*
X2406Y6277D01*
X2431Y6241D01*
X2661Y6011D01*
X2661Y6011D01*
X2697Y5986D01*
X2740Y5978D01*
X2740Y5978D01*
X4764D01*
X4930Y5811D01*
X4892Y5754D01*
X4878Y5684D01*
Y5414D01*
X4832Y5395D01*
X4742Y5486D01*
Y5684D01*
X4728Y5754D01*
X4688Y5813D01*
X4629Y5852D01*
X4560Y5866D01*
X4491Y5852D01*
X4432Y5813D01*
X4392Y5754D01*
X4378Y5684D01*
Y5330D01*
X4392Y5260D01*
X4397Y5253D01*
Y4826D01*
X4392Y4820D01*
X4391Y4811D01*
X3531Y3951D01*
X3495Y3898D01*
X3491Y3878D01*
X3468D01*
Y3364D01*
X3803D01*
Y3326D01*
X3970D01*
Y3621D01*
X4070D01*
Y3326D01*
X4237D01*
Y3364D01*
X4572D01*
Y3569D01*
X4675Y3672D01*
X4711Y3725D01*
X4723Y3787D01*
Y4674D01*
X4728Y4681D01*
X4742Y4750D01*
X4728Y4820D01*
X4723Y4826D01*
Y4977D01*
X4769Y4997D01*
X4829Y4936D01*
X4882Y4901D01*
X4945Y4889D01*
X5553D01*
Y4858D01*
X6027D01*
Y4889D01*
X6246D01*
X6308Y4901D01*
X6361Y4936D01*
X7040Y5615D01*
X7106Y5588D01*
X7224Y5572D01*
X7343Y5588D01*
X7453Y5634D01*
X7548Y5706D01*
X7620Y5801D01*
X7666Y5912D01*
X7682Y6030D01*
X7666Y6148D01*
X7620Y6259D01*
X7548Y6354D01*
X7453Y6426D01*
X7343Y6472D01*
X7257Y6483D01*
X7241Y6485D01*
Y6536D01*
X7257Y6538D01*
X7353Y6551D01*
X7472Y6600D01*
X7575Y6679D01*
X7654Y6782D01*
X7704Y6902D01*
X7714Y6980D01*
D02*
G37*
G36*
X3560Y5866D02*
X3490Y5852D01*
X3432Y5813D01*
X3392Y5754D01*
X3378Y5684D01*
Y5330D01*
X3381Y5319D01*
X3134Y5072D01*
X3029D01*
X3018Y5088D01*
X2959Y5128D01*
X2890Y5142D01*
X2821Y5128D01*
X2762Y5088D01*
X2722Y5030D01*
X2708Y4960D01*
X2722Y4891D01*
X2762Y4832D01*
X2821Y4792D01*
X2890Y4778D01*
X2959Y4792D01*
X3018Y4832D01*
X3029Y4848D01*
X3180D01*
X3180Y4848D01*
X3223Y4856D01*
X3259Y4881D01*
X3532Y5154D01*
X3560Y5148D01*
X3629Y5162D01*
X3688Y5201D01*
X3728Y5260D01*
X3742Y5330D01*
Y5684D01*
X3728Y5754D01*
X3688Y5813D01*
X3629Y5852D01*
X3560Y5866D01*
D02*
G37*
G36*
X6342Y2826D02*
X6156D01*
Y2600D01*
X6342D01*
Y2826D01*
D02*
G37*
G36*
X6560Y3889D02*
X6488Y3874D01*
X6427Y3833D01*
X5421Y2828D01*
X5394Y2787D01*
X5357D01*
Y2727D01*
X4572D01*
Y2796D01*
X4216D01*
Y2592D01*
X4205Y2539D01*
X4216Y2486D01*
Y2282D01*
X4572D01*
Y2350D01*
X5357D01*
Y2313D01*
X5752D01*
Y2625D01*
X5823Y2696D01*
X5869Y2677D01*
Y2600D01*
X6056D01*
Y2826D01*
X6018D01*
X5999Y2872D01*
X6693Y3567D01*
X6734Y3628D01*
X6749Y3700D01*
X6734Y3772D01*
X6693Y3833D01*
X6632Y3874D01*
X6560Y3889D01*
D02*
G37*
G36*
X3824Y2796D02*
X3468D01*
Y2733D01*
X2927D01*
Y2742D01*
X2453D01*
Y2347D01*
X2927D01*
Y2356D01*
X3468D01*
Y2282D01*
X3824D01*
Y2486D01*
X3835Y2539D01*
X3824Y2592D01*
Y2796D01*
D02*
G37*
G36*
X6056Y2500D02*
X5869D01*
Y2274D01*
X6056D01*
Y2500D01*
D02*
G37*
G36*
X6342D02*
X6156D01*
Y2274D01*
X6342D01*
Y2500D01*
D02*
G37*
G36*
X2966Y3332D02*
X2740D01*
Y3146D01*
X2966D01*
Y3332D01*
D02*
G37*
G36*
X2640D02*
X2414D01*
Y3146D01*
X2640D01*
Y3332D01*
D02*
G37*
G36*
Y3046D02*
X2414D01*
Y2859D01*
X2640D01*
Y3046D01*
D02*
G37*
G36*
X2966D02*
X2740D01*
Y2859D01*
X2966D01*
Y3046D01*
D02*
G37*
G36*
X3781Y7583D02*
X3610D01*
Y7245D01*
X3644Y7252D01*
X3716Y7300D01*
X3764Y7371D01*
X3781Y7456D01*
Y7583D01*
D02*
G37*
G36*
X15656Y14000D02*
X15469D01*
Y13774D01*
X15656D01*
Y14000D01*
D02*
G37*
G36*
X15942D02*
X15756D01*
Y13774D01*
X15942D01*
Y14000D01*
D02*
G37*
G36*
X15656Y14326D02*
X15469D01*
Y14100D01*
X15656D01*
Y14326D01*
D02*
G37*
G36*
X4890Y13816D02*
X4762Y13804D01*
X4640Y13767D01*
X4527Y13706D01*
X4428Y13625D01*
X4346Y13526D01*
X4286Y13413D01*
X4249Y13290D01*
X4236Y13163D01*
X4249Y13035D01*
X4286Y12912D01*
X4346Y12799D01*
X4428Y12700D01*
X4527Y12619D01*
X4640Y12559D01*
X4762Y12521D01*
X4890Y12509D01*
X5018Y12521D01*
X5140Y12559D01*
X5253Y12619D01*
X5352Y12700D01*
X5434Y12799D01*
X5494Y12912D01*
X5531Y13035D01*
X5544Y13163D01*
X5531Y13290D01*
X5494Y13413D01*
X5434Y13526D01*
X5352Y13625D01*
X5253Y13706D01*
X5140Y13767D01*
X5018Y13804D01*
X4890Y13816D01*
D02*
G37*
G36*
X5320Y11412D02*
X4940D01*
Y11032D01*
X5003Y11040D01*
X5108Y11084D01*
X5199Y11153D01*
X5268Y11243D01*
X5312Y11349D01*
X5320Y11412D01*
D02*
G37*
G36*
X10180Y11906D02*
X9954D01*
Y11719D01*
X10180D01*
Y11906D01*
D02*
G37*
G36*
X6250Y12263D02*
X4450D01*
X4387Y12251D01*
X4334Y12215D01*
X3918Y11799D01*
X3908Y11807D01*
X3812Y11846D01*
X3709Y11860D01*
X3606Y11846D01*
X3510Y11807D01*
X3427Y11743D01*
X3364Y11661D01*
X3324Y11565D01*
X3311Y11462D01*
X3324Y11359D01*
X3364Y11263D01*
X3427Y11180D01*
X3510Y11117D01*
X3606Y11077D01*
X3709Y11064D01*
X3812Y11077D01*
X3908Y11117D01*
X3990Y11180D01*
X4054Y11263D01*
X4093Y11359D01*
X4107Y11462D01*
X4099Y11519D01*
X4517Y11937D01*
X4797D01*
X4801Y11887D01*
X4777Y11884D01*
X4672Y11840D01*
X4581Y11771D01*
X4512Y11680D01*
X4468Y11575D01*
X4460Y11512D01*
X4890D01*
X5320D01*
X5312Y11575D01*
X5268Y11680D01*
X5199Y11771D01*
X5108Y11840D01*
X5003Y11884D01*
X4979Y11887D01*
X4983Y11937D01*
X6182D01*
X6251Y11869D01*
X6222Y11826D01*
X6174Y11846D01*
X6071Y11860D01*
X5968Y11846D01*
X5872Y11807D01*
X5790Y11743D01*
X5726Y11661D01*
X5687Y11565D01*
X5673Y11462D01*
X5687Y11359D01*
X5726Y11263D01*
X5790Y11180D01*
X5872Y11117D01*
X5968Y11077D01*
X6071Y11064D01*
X6174Y11077D01*
X6270Y11117D01*
X6353Y11180D01*
X6416Y11263D01*
X6456Y11359D01*
X6469Y11462D01*
X6456Y11565D01*
X6436Y11613D01*
X6478Y11641D01*
X7067Y11052D01*
Y8456D01*
X6995Y8426D01*
X6901Y8354D01*
X6828Y8259D01*
X6782Y8148D01*
X6767Y8030D01*
X6782Y7912D01*
X6828Y7801D01*
X6901Y7706D01*
X6995Y7634D01*
X7106Y7588D01*
X7192Y7577D01*
X7207Y7575D01*
Y7524D01*
X7192Y7522D01*
X7096Y7509D01*
X6976Y7460D01*
X6873Y7381D01*
X6794Y7278D01*
X6745Y7158D01*
X6734Y7080D01*
X7224D01*
X7714D01*
X7704Y7158D01*
X7654Y7278D01*
X7575Y7381D01*
X7472Y7460D01*
X7353Y7509D01*
X7257Y7522D01*
X7241Y7524D01*
Y7575D01*
X7257Y7577D01*
X7343Y7588D01*
X7453Y7634D01*
X7548Y7706D01*
X7620Y7801D01*
X7666Y7912D01*
X7682Y8030D01*
X7666Y8148D01*
X7620Y8259D01*
X7548Y8354D01*
X7453Y8426D01*
X7393Y8451D01*
Y11120D01*
X7381Y11182D01*
X7345Y11235D01*
X6365Y12215D01*
X6312Y12251D01*
X6250Y12263D01*
D02*
G37*
G36*
X15942Y14326D02*
X15756D01*
Y14100D01*
X15942D01*
Y14326D01*
D02*
G37*
G36*
X7964Y14880D02*
X7778D01*
Y14654D01*
X7964D01*
Y14880D01*
D02*
G37*
G36*
X8251D02*
X8064D01*
Y14654D01*
X8251D01*
Y14880D01*
D02*
G37*
G36*
X14040Y14942D02*
X13971Y14928D01*
X13912Y14888D01*
X13885Y14849D01*
X13871Y14839D01*
X13708Y14677D01*
X13662Y14701D01*
X13672Y14750D01*
X13658Y14819D01*
X13618Y14878D01*
X13559Y14918D01*
X13490Y14932D01*
X13421Y14918D01*
X13362Y14878D01*
X13322Y14819D01*
X13308Y14750D01*
X13322Y14681D01*
X13362Y14622D01*
X13407Y14591D01*
Y14452D01*
X13357Y14424D01*
X13322Y14431D01*
X13276Y14422D01*
X13236Y14396D01*
X13211D01*
X13172Y14422D01*
X13125Y14431D01*
X13079Y14422D01*
X13039Y14396D01*
X13014D01*
X12975Y14422D01*
X12928Y14431D01*
X12882Y14422D01*
X12843Y14396D01*
X12817D01*
X12778Y14422D01*
X12732Y14431D01*
X12685Y14422D01*
X12660Y14405D01*
X12648Y14423D01*
X12596Y14458D01*
X12585Y14460D01*
Y14014D01*
Y13555D01*
X12619Y13531D01*
Y12988D01*
X12619Y12988D01*
X12628Y12946D01*
X12652Y12909D01*
X12822Y12739D01*
X12818Y12720D01*
X12832Y12651D01*
X12872Y12592D01*
X12931Y12552D01*
X13000Y12538D01*
X13069Y12552D01*
X13128Y12592D01*
X13168Y12651D01*
X13168Y12651D01*
X13218Y12646D01*
Y12576D01*
X12511Y11869D01*
X12486Y11833D01*
X12478Y11790D01*
X12478Y11790D01*
Y11569D01*
X12462Y11558D01*
X12422Y11499D01*
X12408Y11430D01*
X12422Y11361D01*
X12462Y11302D01*
X12488Y11284D01*
X12488Y11260D01*
X12481Y11228D01*
X12449Y11207D01*
X12424D01*
X12384Y11233D01*
X12338Y11242D01*
X12291Y11233D01*
X12252Y11207D01*
X12227D01*
X12187Y11233D01*
X12141Y11242D01*
X12095Y11233D01*
X12055Y11207D01*
X12030D01*
X11991Y11233D01*
X11944Y11242D01*
X11898Y11233D01*
X11858Y11207D01*
X11833D01*
X11794Y11233D01*
X11747Y11242D01*
X11701Y11233D01*
X11661Y11207D01*
X11635Y11167D01*
X11626Y11121D01*
Y10530D01*
X11635Y10484D01*
X11661Y10444D01*
X11701Y10418D01*
X11747Y10409D01*
X11794Y10418D01*
X11833Y10444D01*
X11858D01*
X11898Y10418D01*
X11944Y10409D01*
X11991Y10418D01*
X12030Y10444D01*
X12055D01*
X12095Y10418D01*
X12141Y10409D01*
X12187Y10418D01*
X12227Y10444D01*
X12252D01*
X12291Y10418D01*
X12338Y10409D01*
X12384Y10418D01*
X12424Y10444D01*
X12449D01*
X12488Y10418D01*
X12535Y10409D01*
X12581Y10418D01*
X12621Y10444D01*
X12646D01*
X12685Y10418D01*
X12732Y10409D01*
X12778Y10418D01*
X12817Y10444D01*
X12843D01*
X12882Y10418D01*
X12928Y10409D01*
X12975Y10418D01*
X13014Y10444D01*
X13039D01*
X13079Y10418D01*
X13125Y10409D01*
X13172Y10418D01*
X13211Y10444D01*
X13236D01*
X13276Y10418D01*
X13322Y10409D01*
X13369Y10418D01*
X13408Y10444D01*
X13433D01*
X13473Y10418D01*
X13519Y10409D01*
X13565Y10418D01*
X13590Y10435D01*
X13602Y10417D01*
X13654Y10382D01*
X13666Y10380D01*
Y10826D01*
Y11271D01*
X13654Y11269D01*
X13602Y11234D01*
X13590Y11216D01*
X13565Y11233D01*
X13519Y11242D01*
X13473Y11233D01*
X13433Y11207D01*
X13408D01*
X13369Y11233D01*
X13322Y11242D01*
X13276Y11233D01*
X13236Y11207D01*
X13211D01*
X13172Y11233D01*
X13125Y11242D01*
X13079Y11233D01*
X13039Y11207D01*
X13014D01*
X12975Y11233D01*
X12928Y11242D01*
X12882Y11233D01*
X12843Y11207D01*
X12817D01*
X12778Y11233D01*
X12732Y11242D01*
X12714Y11239D01*
X12695Y11286D01*
X12718Y11302D01*
X12758Y11361D01*
X12772Y11430D01*
X12758Y11499D01*
X12718Y11558D01*
X12702Y11569D01*
Y11744D01*
X13409Y12451D01*
X13434Y12487D01*
X13442Y12530D01*
X13442Y12530D01*
Y12880D01*
X13442Y12880D01*
X13434Y12923D01*
X13409Y12959D01*
X13409Y12959D01*
X13041Y13328D01*
Y13577D01*
X13091Y13605D01*
X13125Y13598D01*
X13172Y13607D01*
X13211Y13633D01*
X13236D01*
X13276Y13607D01*
X13322Y13598D01*
X13369Y13607D01*
X13408Y13633D01*
X13433D01*
X13473Y13607D01*
X13519Y13598D01*
X13565Y13607D01*
X13605Y13633D01*
X13630D01*
X13669Y13607D01*
X13716Y13598D01*
X13762Y13607D01*
X13802Y13633D01*
X13827D01*
X13866Y13607D01*
X13913Y13598D01*
X13959Y13607D01*
X13999Y13633D01*
X14025Y13673D01*
X14034Y13719D01*
Y13977D01*
X14575Y14518D01*
X14811D01*
X14822Y14502D01*
X14881Y14462D01*
X14950Y14448D01*
X15019Y14462D01*
X15078Y14502D01*
X15118Y14561D01*
X15132Y14630D01*
X15118Y14699D01*
X15078Y14758D01*
X15019Y14798D01*
X14950Y14812D01*
X14881Y14798D01*
X14822Y14758D01*
X14811Y14742D01*
X14528D01*
X14485Y14734D01*
X14449Y14709D01*
X14449Y14709D01*
X14079Y14340D01*
X14025Y14356D01*
X14025Y14356D01*
X13999Y14396D01*
X13959Y14422D01*
X13913Y14431D01*
X13897Y14428D01*
X13850Y14460D01*
X13847Y14498D01*
X13953Y14604D01*
X13971Y14592D01*
X14040Y14578D01*
X14109Y14592D01*
X14168Y14632D01*
X14208Y14691D01*
X14222Y14760D01*
X14208Y14829D01*
X14168Y14888D01*
X14109Y14928D01*
X14040Y14942D01*
D02*
G37*
G36*
X10516Y14622D02*
X10290D01*
Y14436D01*
X10516D01*
Y14622D01*
D02*
G37*
G36*
X10190Y14336D02*
X9964D01*
Y14149D01*
X10190D01*
Y14336D01*
D02*
G37*
G36*
X10516D02*
X10290D01*
Y14149D01*
X10516D01*
Y14336D01*
D02*
G37*
G36*
X10190Y14622D02*
X9964D01*
Y14436D01*
X10190D01*
Y14622D01*
D02*
G37*
G36*
X4840Y11412D02*
X4460D01*
X4468Y11349D01*
X4512Y11243D01*
X4581Y11153D01*
X4672Y11084D01*
X4777Y11040D01*
X4840Y11032D01*
Y11412D01*
D02*
G37*
G36*
X12263Y8043D02*
X11939D01*
Y7690D01*
X12263D01*
Y8043D01*
D02*
G37*
G36*
X12959Y8445D02*
X12773D01*
Y8219D01*
X12959D01*
Y8445D01*
D02*
G37*
G36*
X13245D02*
X13059D01*
Y8219D01*
X13245D01*
Y8445D01*
D02*
G37*
G36*
X3610Y8021D02*
Y7683D01*
X3781D01*
Y7810D01*
X3764Y7895D01*
X3716Y7966D01*
X3644Y8014D01*
X3610Y8021D01*
D02*
G37*
G36*
X3709Y10679D02*
X3606Y10665D01*
X3510Y10625D01*
X3427Y10562D01*
X3364Y10480D01*
X3324Y10384D01*
X3311Y10281D01*
X3324Y10178D01*
X3364Y10082D01*
X3427Y9999D01*
X3510Y9936D01*
X3581Y9906D01*
Y9556D01*
X3592Y9503D01*
X3622Y9459D01*
X3867Y9213D01*
Y8993D01*
X3907D01*
Y8599D01*
X3856Y8547D01*
X3826Y8503D01*
X3815Y8450D01*
Y8097D01*
X3826Y8044D01*
X3856Y8000D01*
X3922Y7933D01*
Y7925D01*
X3892Y7880D01*
X3878Y7810D01*
Y7456D01*
X3892Y7386D01*
X3932Y7327D01*
X3990Y7288D01*
X4060Y7274D01*
X4130Y7288D01*
X4188Y7327D01*
X4228Y7386D01*
X4242Y7456D01*
Y7810D01*
X4228Y7880D01*
X4198Y7925D01*
Y7990D01*
X4187Y8043D01*
X4157Y8087D01*
X4157Y8087D01*
X4091Y8154D01*
Y8393D01*
X4142Y8444D01*
X4172Y8489D01*
X4182Y8542D01*
Y8993D01*
X4262D01*
Y9467D01*
X4002D01*
X3857Y9613D01*
Y9915D01*
X3908Y9936D01*
X3990Y9999D01*
X4054Y10082D01*
X4093Y10178D01*
X4107Y10281D01*
X4093Y10384D01*
X4054Y10480D01*
X3990Y10562D01*
X3908Y10625D01*
X3812Y10665D01*
X3709Y10679D01*
D02*
G37*
G36*
X4890D02*
X4787Y10665D01*
X4691Y10625D01*
X4609Y10562D01*
X4545Y10480D01*
X4506Y10384D01*
X4492Y10281D01*
X4506Y10178D01*
X4545Y10082D01*
X4609Y9999D01*
X4691Y9936D01*
X4762Y9906D01*
Y9552D01*
X4678Y9467D01*
X4418D01*
Y8993D01*
X4498D01*
Y8542D01*
X4508Y8489D01*
X4538Y8444D01*
X4579Y8403D01*
Y8164D01*
X4463Y8047D01*
X4433Y8003D01*
X4422Y7950D01*
Y7925D01*
X4392Y7880D01*
X4378Y7810D01*
Y7456D01*
X4392Y7386D01*
X4432Y7327D01*
X4491Y7288D01*
X4560Y7274D01*
X4629Y7288D01*
X4688Y7327D01*
X4728Y7386D01*
X4742Y7456D01*
Y7810D01*
X4728Y7880D01*
X4710Y7906D01*
X4814Y8010D01*
X4844Y8054D01*
X4855Y8107D01*
Y8460D01*
X4855Y8460D01*
X4844Y8513D01*
X4814Y8557D01*
X4773Y8599D01*
Y8993D01*
X4813D01*
Y9213D01*
X4997Y9397D01*
X5027Y9442D01*
X5038Y9495D01*
Y9915D01*
X5089Y9936D01*
X5171Y9999D01*
X5235Y10082D01*
X5274Y10178D01*
X5288Y10281D01*
X5274Y10384D01*
X5235Y10480D01*
X5171Y10562D01*
X5089Y10625D01*
X4993Y10665D01*
X4890Y10679D01*
D02*
G37*
G36*
X3510Y8021D02*
X3476Y8014D01*
X3404Y7966D01*
X3356Y7895D01*
X3339Y7810D01*
Y7683D01*
X3510D01*
Y8021D01*
D02*
G37*
G36*
X12959Y8770D02*
X12773D01*
Y8545D01*
X12959D01*
Y8770D01*
D02*
G37*
G36*
X10982Y9640D02*
X10796D01*
Y9414D01*
X10982D01*
Y9640D01*
D02*
G37*
G36*
X10696Y9966D02*
X10509D01*
Y9740D01*
X10696D01*
Y9966D01*
D02*
G37*
G36*
X6071Y10679D02*
X5968Y10665D01*
X5872Y10625D01*
X5790Y10562D01*
X5726Y10480D01*
X5687Y10384D01*
X5673Y10281D01*
X5687Y10178D01*
X5726Y10082D01*
X5790Y9999D01*
X5872Y9936D01*
X5968Y9896D01*
X6071Y9883D01*
X6174Y9896D01*
X6270Y9936D01*
X6353Y9999D01*
X6416Y10082D01*
X6456Y10178D01*
X6469Y10281D01*
X6456Y10384D01*
X6416Y10480D01*
X6353Y10562D01*
X6270Y10625D01*
X6174Y10665D01*
X6071Y10679D01*
D02*
G37*
G36*
X10696Y9640D02*
X10509D01*
Y9414D01*
X10696D01*
Y9640D01*
D02*
G37*
G36*
X13245Y8770D02*
X13059D01*
Y8545D01*
X13245D01*
Y8770D01*
D02*
G37*
G36*
X16895Y9028D02*
Y8830D01*
X17416D01*
Y9028D01*
X16895D01*
D02*
G37*
G36*
X14746Y9484D02*
X14520D01*
Y9298D01*
X14746D01*
Y9484D01*
D02*
G37*
%LPD*%
D10*
X10194Y9690D02*
D03*
X10746D02*
D03*
X8566Y14930D02*
D03*
X8014D02*
D03*
X4616Y9230D02*
D03*
X4064D02*
D03*
X15316Y2970D02*
D03*
X14764D02*
D03*
X14996Y4210D02*
D03*
X14444D02*
D03*
X11014Y14850D02*
D03*
X11566D02*
D03*
X15706Y14050D02*
D03*
X15154D02*
D03*
X13009Y8495D02*
D03*
X13560D02*
D03*
X9954Y2780D02*
D03*
X10506D02*
D03*
X5554Y2550D02*
D03*
X6106D02*
D03*
D11*
X2690Y2544D02*
D03*
Y3096D02*
D03*
X10610Y7094D02*
D03*
Y7646D02*
D03*
X10240Y14386D02*
D03*
Y13834D02*
D03*
X10230Y11956D02*
D03*
Y11404D02*
D03*
X14470Y9534D02*
D03*
Y10086D02*
D03*
X5790Y5056D02*
D03*
Y4504D02*
D03*
D12*
X13126Y2746D02*
D03*
Y3002D02*
D03*
Y3258D02*
D03*
Y3514D02*
D03*
X11314Y2746D02*
D03*
Y3002D02*
D03*
Y3258D02*
D03*
Y3514D02*
D03*
D13*
X5060Y7633D02*
D03*
X4560D02*
D03*
X4060D02*
D03*
X3560D02*
D03*
X5060Y5507D02*
D03*
X4560D02*
D03*
X4060D02*
D03*
X3560D02*
D03*
D14*
X11889Y7640D02*
D03*
Y4510D02*
D03*
X13700Y7640D02*
D03*
Y4510D02*
D03*
D15*
X15310Y8780D02*
D03*
X16845D02*
D03*
X15310Y8280D02*
D03*
X16845D02*
D03*
X15310Y7780D02*
D03*
X16845D02*
D03*
X15310Y7280D02*
D03*
X16845D02*
D03*
X15310Y6780D02*
D03*
X16845D02*
D03*
D16*
X11747Y14014D02*
D03*
X11944D02*
D03*
X12141D02*
D03*
X12338D02*
D03*
X12535D02*
D03*
X12732D02*
D03*
X12928D02*
D03*
X13125D02*
D03*
X13322D02*
D03*
X13519D02*
D03*
X13716D02*
D03*
X13913D02*
D03*
Y10826D02*
D03*
X13716D02*
D03*
X13519D02*
D03*
X13322D02*
D03*
X13125D02*
D03*
X12928D02*
D03*
X12732D02*
D03*
X12535D02*
D03*
X12338D02*
D03*
X12141D02*
D03*
X11944D02*
D03*
X11747D02*
D03*
D17*
X14424Y13503D02*
D03*
Y13306D02*
D03*
Y13109D02*
D03*
Y12912D02*
D03*
Y12715D02*
D03*
Y12518D02*
D03*
Y12322D02*
D03*
Y12125D02*
D03*
Y11928D02*
D03*
Y11731D02*
D03*
Y11534D02*
D03*
Y11337D02*
D03*
X11236D02*
D03*
Y11534D02*
D03*
Y11731D02*
D03*
Y11928D02*
D03*
Y12125D02*
D03*
Y12322D02*
D03*
Y12518D02*
D03*
Y12715D02*
D03*
Y12912D02*
D03*
Y13109D02*
D03*
Y13306D02*
D03*
Y13503D02*
D03*
D18*
X4394Y2539D02*
D03*
X3646D02*
D03*
Y3621D02*
D03*
X4020D02*
D03*
X4394D02*
D03*
D19*
X2510Y13240D02*
X4390Y15120D01*
X2510Y10840D02*
Y13240D01*
X12010Y15140D02*
X12338Y14812D01*
X12007Y15137D02*
X12010Y15140D01*
X9497Y15137D02*
X12007D01*
X9480Y15120D02*
X9497Y15137D01*
X4250Y14740D02*
X6540D01*
X2890Y13380D02*
X4250Y14740D01*
X2890Y10870D02*
Y13380D01*
X13802Y3002D02*
X14996Y4196D01*
X13106Y7075D02*
X13741Y7710D01*
X10535Y7100D02*
X10585Y7050D01*
X9330Y11920D02*
X9732Y12322D01*
X9330Y11470D02*
Y11920D01*
X10230Y11404D02*
X10753Y11928D01*
X11236D01*
X2890Y4960D02*
X3180D01*
X3560Y5340D01*
Y5507D01*
X10610Y7075D02*
X13106D01*
X10610Y7665D02*
X11195D01*
X11330Y7530D01*
X13580Y7871D02*
X13741Y7710D01*
X13580Y7871D02*
Y8495D01*
X13560Y8495D02*
X13935D01*
X5060Y5507D02*
Y5840D01*
X4810Y6090D02*
X5060Y5840D01*
X2740Y6090D02*
X4810D01*
X2510Y6320D02*
X2740Y6090D01*
X2510Y6320D02*
Y6680D01*
X10585Y7050D02*
X10610Y7075D01*
X9500Y7100D02*
X10535D01*
X9350Y7250D02*
X9500Y7100D01*
X9350Y7250D02*
Y7440D01*
X12000Y14730D02*
X12141Y14589D01*
Y14014D02*
Y14589D01*
X12338Y14014D02*
Y14812D01*
X10572Y13503D02*
X11236D01*
X10240Y13834D02*
X10572Y13503D01*
X13913Y10826D02*
X14284D01*
X14470Y10640D01*
Y10086D02*
Y10640D01*
X14424Y13503D02*
Y13714D01*
X14760Y14050D01*
X15154D01*
X13935Y8495D02*
X14221Y8780D01*
X15310D01*
X13126Y2746D02*
X13532Y2340D01*
X14686D01*
X15316Y2970D01*
X14996Y4210D02*
Y4334D01*
X14200Y5130D02*
X14996Y4334D01*
X15316Y2970D02*
Y4394D01*
X14510Y5200D02*
X15316Y4394D01*
X14996Y4196D02*
Y4210D01*
X9732Y12322D02*
X11236D01*
X15310Y6780D02*
X15910D01*
X15310Y7280D02*
X15750D01*
X15930Y7460D01*
X14424Y13109D02*
X15251D01*
X16158Y7028D02*
Y12202D01*
X15910Y6780D02*
X16158Y7028D01*
X15251Y13109D02*
X16158Y12202D01*
X15930Y7460D02*
Y11740D01*
X14528Y14630D02*
X14950D01*
X13913Y14014D02*
X14528Y14630D01*
X14490Y7780D02*
X15310D01*
X14650Y8280D02*
X15310D01*
X14460Y8470D02*
X14650Y8280D01*
X13716Y14014D02*
X13718Y14017D01*
X13490Y14750D02*
X13519Y14721D01*
Y14014D02*
Y14721D01*
X13718Y14017D02*
Y14528D01*
X13950Y14760D01*
X14040D01*
X14290Y7980D02*
X14490Y7780D01*
X14200Y5130D02*
Y7160D01*
X14510Y5200D02*
Y6810D01*
X12732Y12988D02*
X13000Y12720D01*
X12732Y12988D02*
Y14014D01*
X12590Y11790D02*
X13330Y12530D01*
Y12880D01*
X12928Y13282D02*
X13330Y12880D01*
X12928Y13282D02*
Y14014D01*
X12590Y11430D02*
Y11790D01*
D20*
X12890Y3960D02*
Y4401D01*
D21*
X13126Y3002D02*
X13802D01*
X9690Y9690D02*
X10194D01*
X8760Y10620D02*
X9690Y9690D01*
X8760Y10620D02*
Y11289D01*
X8566Y14930D02*
X8760Y14736D01*
Y13211D02*
Y14736D01*
Y11289D02*
Y11575D01*
X9703Y12518D01*
X8760Y13211D02*
X9255Y12715D01*
X11236D01*
X9703Y12518D02*
X11236D01*
D22*
X13900Y3750D02*
X13984D01*
X14444Y4210D01*
X14190Y2980D02*
X14200Y2970D01*
X14764D01*
X16840Y6775D02*
X16845Y6780D01*
X16300Y6120D02*
X16840Y6660D01*
Y6775D01*
X5554Y2694D02*
X6560Y3700D01*
X5554Y2550D02*
Y2694D01*
X4394Y2539D02*
X5543D01*
X5554Y2550D01*
X2690Y2544D02*
X3640D01*
X3646Y2539D01*
D23*
X10340Y2965D02*
X10559Y2746D01*
X10280Y10820D02*
X11960Y9140D01*
X10280Y10890D02*
Y11354D01*
X10230Y11404D02*
X10280Y11354D01*
Y10820D02*
Y10890D01*
X11960Y9140D02*
X12250D01*
X6250Y12100D02*
X7230Y11120D01*
X10340Y2965D02*
Y3570D01*
X4450Y12100D02*
X6250D01*
X10559Y2746D02*
X11314D01*
X5060Y7633D02*
X5417D01*
X5930Y7120D01*
X7230Y8320D02*
Y11120D01*
Y8320D02*
X7240Y8310D01*
X10240Y13834D02*
X10764D01*
X11010Y14080D01*
Y14294D01*
X11566Y14850D01*
X14470Y10086D02*
X15084Y10700D01*
X15154Y13496D02*
X15270Y13380D01*
X15154Y13496D02*
Y14050D01*
X13524Y9140D02*
X14470Y10086D01*
X12250Y9140D02*
X13524D01*
X3719Y11369D02*
X4450Y12100D01*
X6246Y5052D02*
X7224Y6030D01*
X4560Y5437D02*
X4945Y5052D01*
X5794D02*
X6246D01*
X5790Y5056D02*
X5794Y5052D01*
X5786D02*
X5790Y5056D01*
X4945Y5052D02*
X5786D01*
X4560Y4750D02*
Y5437D01*
Y5507D01*
Y3787D02*
Y4750D01*
X4394Y3621D02*
X4560Y3787D01*
X3646Y3836D02*
X4560Y4750D01*
X3646Y3621D02*
Y3836D01*
D24*
X3719Y9556D02*
Y10188D01*
Y9556D02*
X4045Y9230D01*
X4900Y9495D02*
Y10188D01*
X4635Y9230D02*
X4900Y9495D01*
X4717Y8107D02*
Y8460D01*
X4560Y7950D02*
X4717Y8107D01*
X4560Y7633D02*
Y7950D01*
X3953Y8097D02*
Y8450D01*
Y8097D02*
X4060Y7990D01*
Y7633D02*
Y7990D01*
X3953Y8450D02*
X4045Y8542D01*
X4635D02*
X4717Y8460D01*
X4635Y8542D02*
Y9230D01*
X4045Y8542D02*
Y9230D01*
D25*
X11566Y14196D02*
X11747Y14014D01*
X11566Y14196D02*
Y14850D01*
D26*
X2080Y1840D02*
Y15360D01*
Y1840D02*
X17700D01*
Y15360D01*
X2080D02*
X17700D01*
D27*
X7224Y6030D02*
D03*
Y7030D02*
D03*
Y8030D02*
D03*
D28*
X4890Y13163D02*
D03*
D29*
Y11462D02*
D03*
X3709D02*
D03*
X6071D02*
D03*
Y10281D02*
D03*
X4890D02*
D03*
X3709D02*
D03*
D30*
X8760Y11289D02*
D03*
Y13211D02*
D03*
D31*
X12660Y14850D02*
D03*
X7440Y4270D02*
D03*
X11370Y13960D02*
D03*
X16970Y5890D02*
D03*
X12520Y8100D02*
D03*
X17100Y9340D02*
D03*
X9530Y13820D02*
D03*
X8560Y12400D02*
D03*
X8090Y9660D02*
D03*
X12030Y10020D02*
D03*
X3540Y12990D02*
D03*
X6850Y10320D02*
D03*
X7250Y11810D02*
D03*
X9120Y8360D02*
D03*
X10870Y8530D02*
D03*
X9350Y6520D02*
D03*
X12930Y7500D02*
D03*
X12980Y6720D02*
D03*
X10070Y7430D02*
D03*
X3960Y12320D02*
D03*
X6220Y5840D02*
D03*
X3730Y4890D02*
D03*
X10550Y5640D02*
D03*
X8190Y7710D02*
D03*
X6260Y8360D02*
D03*
X5510Y6670D02*
D03*
X8280Y3540D02*
D03*
X3170Y9210D02*
D03*
X5540Y9350D02*
D03*
X11680Y8690D02*
D03*
X10010Y8320D02*
D03*
X12790Y5330D02*
D03*
X5040Y4320D02*
D03*
X12020Y12310D02*
D03*
X13460Y11620D02*
D03*
X16360Y12570D02*
D03*
X15610Y12120D02*
D03*
X15270Y9800D02*
D03*
X9730Y11090D02*
D03*
X15450Y5470D02*
D03*
X15650Y13160D02*
D03*
D32*
X9480Y15120D02*
D03*
X4390D02*
D03*
X10220Y14900D02*
D03*
X6540Y14740D02*
D03*
X13900Y3750D02*
D03*
X9330Y11470D02*
D03*
X10280Y10890D02*
D03*
X12250Y9140D02*
D03*
X10340Y3570D02*
D03*
X5930Y7120D02*
D03*
X2890Y10870D02*
D03*
Y4960D02*
D03*
X2510Y6680D02*
D03*
Y10840D02*
D03*
X9350Y7440D02*
D03*
X12000Y14730D02*
D03*
X11010Y14080D02*
D03*
X15084Y10700D02*
D03*
X15270Y13380D02*
D03*
X13900Y6120D02*
D03*
X14190Y2980D02*
D03*
X15930Y11740D02*
D03*
X14950Y14630D02*
D03*
X14460Y8470D02*
D03*
X13490Y14750D02*
D03*
X14040Y14760D02*
D03*
X14290Y7980D02*
D03*
X14200Y7160D02*
D03*
X14510Y6810D02*
D03*
X13000Y12720D02*
D03*
X12590Y11430D02*
D03*
X16300Y6120D02*
D03*
X4560Y4750D02*
D03*
X6560Y3700D02*
D03*
D33*
X11330Y7530D02*
D03*
M02*
