G04 Layer_Color=16711935*
%FSLAX24Y24*%
%MOIN*%
G70*
G01*
G75*
%ADD26C,0.0005*%
%ADD49C,0.0866*%
%ADD50C,0.1260*%
%ADD51C,0.0748*%
%ADD52C,0.0472*%
%ADD53C,0.0319*%
%ADD54C,0.0315*%
%ADD55C,0.0379*%
D26*
X2080Y1840D02*
Y15360D01*
Y1840D02*
X17700D01*
Y15360D01*
X2080D02*
X17700D01*
D49*
X7224Y6030D02*
D03*
Y7030D02*
D03*
Y8030D02*
D03*
D50*
X4890Y13163D02*
D03*
D51*
Y11462D02*
D03*
X3709D02*
D03*
X6071D02*
D03*
Y10281D02*
D03*
X4890D02*
D03*
X3709D02*
D03*
D52*
X8760Y11289D02*
D03*
Y13211D02*
D03*
D53*
X12660Y14850D02*
D03*
X7440Y4270D02*
D03*
X11370Y13960D02*
D03*
X16970Y5890D02*
D03*
X12520Y8100D02*
D03*
X17100Y9340D02*
D03*
X9530Y13820D02*
D03*
X8560Y12400D02*
D03*
X8090Y9660D02*
D03*
X12030Y10020D02*
D03*
X3540Y12990D02*
D03*
X6850Y10320D02*
D03*
X7250Y11810D02*
D03*
X9120Y8360D02*
D03*
X10870Y8530D02*
D03*
X9350Y6520D02*
D03*
X12930Y7500D02*
D03*
X12980Y6720D02*
D03*
X10070Y7430D02*
D03*
X3960Y12320D02*
D03*
X6220Y5840D02*
D03*
X3730Y4890D02*
D03*
X10550Y5640D02*
D03*
X8190Y7710D02*
D03*
X6260Y8360D02*
D03*
X5510Y6670D02*
D03*
X8280Y3540D02*
D03*
X3170Y9210D02*
D03*
X5540Y9350D02*
D03*
X11680Y8690D02*
D03*
X10010Y8320D02*
D03*
X12790Y5330D02*
D03*
X5040Y4320D02*
D03*
X12020Y12310D02*
D03*
X13460Y11620D02*
D03*
X16360Y12570D02*
D03*
X15610Y12120D02*
D03*
X15270Y9800D02*
D03*
X9730Y11090D02*
D03*
X15450Y5470D02*
D03*
X15650Y13160D02*
D03*
D54*
X9480Y15120D02*
D03*
X4390D02*
D03*
X10220Y14900D02*
D03*
X6540Y14740D02*
D03*
X13900Y3750D02*
D03*
X9330Y11470D02*
D03*
X10280Y10890D02*
D03*
X12250Y9140D02*
D03*
X10340Y3570D02*
D03*
X5930Y7120D02*
D03*
X2890Y10870D02*
D03*
Y4960D02*
D03*
X2510Y6680D02*
D03*
Y10840D02*
D03*
X9350Y7440D02*
D03*
X12000Y14730D02*
D03*
X11010Y14080D02*
D03*
X15084Y10700D02*
D03*
X15270Y13380D02*
D03*
X13900Y6120D02*
D03*
X14190Y2980D02*
D03*
X15930Y11740D02*
D03*
X14950Y14630D02*
D03*
X14460Y8470D02*
D03*
X13490Y14750D02*
D03*
X14040Y14760D02*
D03*
X14290Y7980D02*
D03*
X14200Y7160D02*
D03*
X14510Y6810D02*
D03*
X13000Y12720D02*
D03*
X12590Y11430D02*
D03*
X16300Y6120D02*
D03*
X4560Y4750D02*
D03*
X6560Y3700D02*
D03*
D55*
X11330Y7530D02*
D03*
M02*
