G04 Layer_Color=8388736*
%FSLAX24Y24*%
%MOIN*%
G70*
G01*
G75*
%ADD26C,0.0005*%
%ADD39R,0.0354X0.0433*%
%ADD40R,0.0433X0.0354*%
%ADD41R,0.0315X0.0472*%
%ADD42O,0.0787X0.0197*%
%ADD43O,0.0197X0.0787*%
%ADD44R,0.0394X0.0394*%
%ADD45R,0.1024X0.0378*%
%ADD46R,0.0630X0.0689*%
%ADD47O,0.0315X0.0669*%
%ADD48O,0.0709X0.0268*%
%ADD49C,0.0472*%
%ADD50C,0.0748*%
%ADD51C,0.1260*%
%ADD52C,0.0866*%
%ADD53C,0.0579*%
%ADD54C,0.0315*%
%ADD55C,0.0319*%
%ADD56C,0.0379*%
D26*
X2080Y15360D02*
X17700D01*
Y1840D02*
Y15360D01*
X2080Y1840D02*
X17700D01*
X2080D02*
Y15360D01*
D39*
X6106Y2550D02*
D03*
X5554D02*
D03*
X10506Y2780D02*
D03*
X9954D02*
D03*
X13560Y8495D02*
D03*
X13009D02*
D03*
X15154Y14050D02*
D03*
X15706D02*
D03*
X11566Y14850D02*
D03*
X11014D02*
D03*
X14444Y4210D02*
D03*
X14996D02*
D03*
X14764Y2970D02*
D03*
X15316D02*
D03*
X4064Y9230D02*
D03*
X4616D02*
D03*
D40*
X5790Y4504D02*
D03*
Y5056D02*
D03*
X14470Y10086D02*
D03*
Y9534D02*
D03*
X10240Y11564D02*
D03*
Y12116D02*
D03*
Y13834D02*
D03*
Y14386D02*
D03*
X10610Y7646D02*
D03*
Y7094D02*
D03*
X2690Y3096D02*
D03*
Y2544D02*
D03*
D41*
X4394Y3621D02*
D03*
X4020D02*
D03*
X3646D02*
D03*
Y2539D02*
D03*
X4394D02*
D03*
D42*
X11236Y13503D02*
D03*
Y13306D02*
D03*
Y13109D02*
D03*
Y12912D02*
D03*
Y12715D02*
D03*
Y12518D02*
D03*
Y12322D02*
D03*
Y12125D02*
D03*
Y11928D02*
D03*
Y11731D02*
D03*
Y11534D02*
D03*
Y11337D02*
D03*
X14424D02*
D03*
Y11534D02*
D03*
Y11731D02*
D03*
Y11928D02*
D03*
Y12125D02*
D03*
Y12322D02*
D03*
Y12518D02*
D03*
Y12715D02*
D03*
Y12912D02*
D03*
Y13109D02*
D03*
Y13306D02*
D03*
Y13503D02*
D03*
D43*
X11747Y10826D02*
D03*
X11944D02*
D03*
X12141D02*
D03*
X12338D02*
D03*
X12535D02*
D03*
X12732D02*
D03*
X12928D02*
D03*
X13125D02*
D03*
X13322D02*
D03*
X13519D02*
D03*
X13716D02*
D03*
X13913D02*
D03*
Y14014D02*
D03*
X13716D02*
D03*
X13519D02*
D03*
X13322D02*
D03*
X13125D02*
D03*
X12928D02*
D03*
X12732D02*
D03*
X12535D02*
D03*
X12338D02*
D03*
X12141D02*
D03*
X11944D02*
D03*
X11747D02*
D03*
D44*
X3117Y8490D02*
D03*
X3983D02*
D03*
X5543Y8480D02*
D03*
X4677D02*
D03*
D45*
X16845Y6780D02*
D03*
X15310D02*
D03*
X16845Y7280D02*
D03*
X15310D02*
D03*
X16845Y7780D02*
D03*
X15310D02*
D03*
X16845Y8280D02*
D03*
X15310D02*
D03*
X16845Y8780D02*
D03*
X15310D02*
D03*
D46*
X13700Y4510D02*
D03*
Y7640D02*
D03*
X11889Y4510D02*
D03*
Y7640D02*
D03*
D47*
X3560Y5507D02*
D03*
X4060D02*
D03*
X4560D02*
D03*
X5060D02*
D03*
X3560Y7633D02*
D03*
X4060D02*
D03*
X4560D02*
D03*
X5060D02*
D03*
D48*
X11314Y3514D02*
D03*
Y3258D02*
D03*
Y3002D02*
D03*
Y2746D02*
D03*
X13126Y3514D02*
D03*
Y3258D02*
D03*
Y3002D02*
D03*
Y2746D02*
D03*
D49*
X8810Y13501D02*
D03*
Y11579D02*
D03*
D50*
X3709Y10281D02*
D03*
X4890D02*
D03*
X6071D02*
D03*
Y11462D02*
D03*
X3709D02*
D03*
X4890D02*
D03*
D51*
Y13163D02*
D03*
D52*
X7224Y8030D02*
D03*
Y7030D02*
D03*
Y6030D02*
D03*
D53*
X7490Y4330D02*
D03*
D54*
X6560Y3700D02*
D03*
X4560Y4750D02*
D03*
X16300Y6120D02*
D03*
X12590Y11430D02*
D03*
X13000Y12720D02*
D03*
X14510Y6810D02*
D03*
X14200Y7160D02*
D03*
X14290Y7980D02*
D03*
X14040Y14760D02*
D03*
X13490Y14750D02*
D03*
X14460Y8470D02*
D03*
X14950Y14630D02*
D03*
X15930Y11740D02*
D03*
X14190Y2980D02*
D03*
X13900Y3750D02*
D03*
Y6120D02*
D03*
X15270Y13380D02*
D03*
X15084Y10700D02*
D03*
X11010Y14080D02*
D03*
X10240Y10735D02*
D03*
X10170Y14900D02*
D03*
X12000Y14730D02*
D03*
X9350Y7440D02*
D03*
Y9860D02*
D03*
X2510Y10840D02*
D03*
Y6680D02*
D03*
X2890Y4960D02*
D03*
Y10870D02*
D03*
X5930Y7120D02*
D03*
X10340Y3570D02*
D03*
X12250Y9140D02*
D03*
D55*
X15650Y13160D02*
D03*
X15450Y5470D02*
D03*
X10280Y9550D02*
D03*
X15270Y9800D02*
D03*
X15610Y12120D02*
D03*
X16360Y12570D02*
D03*
X13460Y11620D02*
D03*
X12020Y12310D02*
D03*
X8850Y7470D02*
D03*
X12790Y5330D02*
D03*
X10010Y8320D02*
D03*
X11680Y8690D02*
D03*
X5540Y9350D02*
D03*
X3170Y9210D02*
D03*
X8280Y3540D02*
D03*
X5510Y6670D02*
D03*
X6260Y8360D02*
D03*
X8190Y7710D02*
D03*
X10550Y5640D02*
D03*
X3730Y4890D02*
D03*
X6220Y5840D02*
D03*
X3960Y12320D02*
D03*
X10070Y7430D02*
D03*
X12980Y6720D02*
D03*
X12930Y7500D02*
D03*
X8530Y6780D02*
D03*
X10870Y8530D02*
D03*
X9120Y8360D02*
D03*
X7250Y11810D02*
D03*
X6850Y10320D02*
D03*
X3250Y13710D02*
D03*
X3540Y12990D02*
D03*
X12030Y10020D02*
D03*
X8060Y9490D02*
D03*
D56*
X11330Y7530D02*
D03*
M02*
