G04 Layer_Color=65535*
%FSLAX24Y24*%
%MOIN*%
G70*
G01*
G75*
%ADD19C,0.0100*%
%ADD21C,0.0098*%
%ADD26C,0.0005*%
%ADD34C,0.0157*%
%ADD35C,0.0236*%
%ADD36C,0.0079*%
%ADD37C,0.0050*%
%ADD38C,0.0070*%
%ADD39C,0.0080*%
D19*
X10400Y12960D02*
X10500Y13060D01*
Y13260D01*
X10400Y13360D01*
X10000D01*
X9900Y13260D01*
Y13060D01*
X10000Y12960D01*
X9900Y12460D02*
X10500D01*
X10200Y12760D01*
Y12360D01*
X16240Y14240D02*
X16140Y14140D01*
Y13940D01*
X16240Y13840D01*
X16640D01*
X16740Y13940D01*
Y14140D01*
X16640Y14240D01*
X16240Y14440D02*
X16140Y14540D01*
Y14740D01*
X16240Y14840D01*
X16340D01*
X16440Y14740D01*
Y14640D01*
Y14740D01*
X16540Y14840D01*
X16640D01*
X16740Y14740D01*
Y14540D01*
X16640Y14440D01*
X13320Y10150D02*
X13220Y10250D01*
X13020D01*
X12920Y10150D01*
Y9750D01*
X13020Y9650D01*
X13220D01*
X13320Y9750D01*
X13920Y9650D02*
X13520D01*
X13920Y10050D01*
Y10150D01*
X13820Y10250D01*
X13620D01*
X13520Y10150D01*
X10520Y4290D02*
X10420Y4390D01*
X10220D01*
X10120Y4290D01*
Y3890D01*
X10220Y3790D01*
X10420D01*
X10520Y3890D01*
X10720Y4290D02*
X10820Y4390D01*
X11020D01*
X11120Y4290D01*
Y3890D01*
X11020Y3790D01*
X10820D01*
X10720Y3890D01*
Y4290D01*
X15550Y4410D02*
Y5010D01*
X15850D01*
X15950Y4910D01*
Y4710D01*
X15850Y4610D01*
X15550D01*
X15750D02*
X15950Y4410D01*
X16150D02*
X16350D01*
X16250D01*
Y5010D01*
X16150Y4910D01*
X15860Y2700D02*
Y3300D01*
X16160D01*
X16260Y3200D01*
Y3000D01*
X16160Y2900D01*
X15860D01*
X16060D02*
X16260Y2700D01*
X16860D02*
X16460D01*
X16860Y3100D01*
Y3200D01*
X16760Y3300D01*
X16560D01*
X16460Y3200D01*
X5350Y8940D02*
Y9540D01*
X5650D01*
X5750Y9440D01*
Y9240D01*
X5650Y9140D01*
X5350D01*
X5550D02*
X5750Y8940D01*
X5950Y9440D02*
X6050Y9540D01*
X6250D01*
X6350Y9440D01*
Y9340D01*
X6250Y9240D01*
X6150D01*
X6250D01*
X6350Y9140D01*
Y9040D01*
X6250Y8940D01*
X6050D01*
X5950Y9040D01*
X10310Y5690D02*
X9710D01*
Y5990D01*
X9810Y6090D01*
X10010D01*
X10110Y5990D01*
Y5690D01*
Y5890D02*
X10310Y6090D01*
Y6590D02*
X9710D01*
X10010Y6290D01*
Y6690D01*
X10760Y5730D02*
X10660Y5630D01*
Y5430D01*
X10760Y5330D01*
X10860D01*
X10960Y5430D01*
Y5630D01*
X11060Y5730D01*
X11160D01*
X11260Y5630D01*
Y5430D01*
X11160Y5330D01*
X10660Y5930D02*
X11260D01*
X11060Y6130D01*
X11260Y6330D01*
X10660D01*
X11260Y6530D02*
Y6730D01*
Y6630D01*
X10660D01*
X10760Y6530D01*
X2530Y6190D02*
X3030D01*
X3130Y6290D01*
Y6490D01*
X3030Y6590D01*
X2530D01*
X2630Y6790D02*
X2530Y6890D01*
Y7090D01*
X2630Y7190D01*
X3030D01*
X3130Y7090D01*
Y6890D01*
X3030Y6790D01*
X2630D01*
X8260Y4560D02*
Y4060D01*
X8360Y3960D01*
X8560D01*
X8660Y4060D01*
Y4560D01*
X8860Y4460D02*
X8960Y4560D01*
X9160D01*
X9260Y4460D01*
Y4360D01*
X9160Y4260D01*
X9060D01*
X9160D01*
X9260Y4160D01*
Y4060D01*
X9160Y3960D01*
X8960D01*
X8860Y4060D01*
X16880Y11160D02*
X16680D01*
X16780D01*
Y10660D01*
X16680Y10560D01*
X16580D01*
X16480Y10660D01*
X17080Y10560D02*
X17280D01*
X17180D01*
Y11160D01*
X17080Y11060D01*
X9830Y10770D02*
X10230Y10170D01*
Y10770D02*
X9830Y10170D01*
X10430D02*
X10630D01*
X10530D01*
Y10770D01*
X10430Y10670D01*
X15100Y11540D02*
Y11040D01*
X15200Y10940D01*
X15400D01*
X15500Y11040D01*
Y11540D01*
X15700Y10940D02*
X15900D01*
X15800D01*
Y11540D01*
X15700Y11440D01*
X6730Y4674D02*
X6630Y4774D01*
X6430D01*
X6330Y4674D01*
Y4274D01*
X6430Y4174D01*
X6630D01*
X6730Y4274D01*
X6930Y4774D02*
X7330D01*
Y4674D01*
X6930Y4274D01*
Y4174D01*
X2730Y4100D02*
X2630Y4200D01*
X2430D01*
X2330Y4100D01*
Y3700D01*
X2430Y3600D01*
X2630D01*
X2730Y3700D01*
X2930Y4100D02*
X3030Y4200D01*
X3230D01*
X3330Y4100D01*
Y4000D01*
X3230Y3900D01*
X3330Y3800D01*
Y3700D01*
X3230Y3600D01*
X3030D01*
X2930Y3700D01*
Y3800D01*
X3030Y3900D01*
X2930Y4000D01*
Y4100D01*
X3030Y3900D02*
X3230D01*
X7170Y2960D02*
X7070Y3060D01*
X6870D01*
X6770Y2960D01*
Y2560D01*
X6870Y2460D01*
X7070D01*
X7170Y2560D01*
X7370D02*
X7470Y2460D01*
X7670D01*
X7770Y2560D01*
Y2960D01*
X7670Y3060D01*
X7470D01*
X7370Y2960D01*
Y2860D01*
X7470Y2760D01*
X7770D01*
X4930Y3930D02*
Y3430D01*
X5030Y3330D01*
X5230D01*
X5330Y3430D01*
Y3930D01*
X5830Y3330D02*
Y3930D01*
X5530Y3630D01*
X5930D01*
D21*
X13175Y2421D02*
G03*
X13175Y2421I-49J0D01*
G01*
X11285Y13778D02*
G03*
X11285Y13778I-49J0D01*
G01*
D26*
X2080Y1840D02*
Y15360D01*
Y1840D02*
X17700D01*
Y15360D01*
X2080D02*
X17700D01*
D34*
X12417Y2854D02*
G03*
X12417Y2854I-79J0D01*
G01*
D35*
X12259Y13109D02*
G03*
X12259Y13109I-118J0D01*
G01*
D36*
X12653Y2539D02*
Y3721D01*
X11787Y2539D02*
Y3721D01*
Y2539D02*
X12653D01*
X11787Y3721D02*
X12653D01*
X11747Y11337D02*
X13913D01*
X11747Y13503D02*
X13913D01*
Y11337D02*
Y13503D01*
X11747Y11337D02*
Y13503D01*
D37*
X6990Y14870D02*
X6940Y14920D01*
X6840D01*
X6790Y14870D01*
Y14670D01*
X6840Y14620D01*
X6940D01*
X6990Y14670D01*
X7090Y14620D02*
X7190D01*
X7140D01*
Y14920D01*
X7090Y14870D01*
X7340D02*
X7390Y14920D01*
X7490D01*
X7540Y14870D01*
Y14670D01*
X7490Y14620D01*
X7390D01*
X7340Y14670D01*
Y14870D01*
D38*
X10470Y9150D02*
X10420Y9200D01*
X10320D01*
X10270Y9150D01*
Y8950D01*
X10320Y8900D01*
X10420D01*
X10470Y8950D01*
X10570Y8900D02*
X10670D01*
X10620D01*
Y9200D01*
X10570Y9150D01*
X10820Y8900D02*
X10920D01*
X10870D01*
Y9200D01*
X10820Y9150D01*
D39*
X12673Y15017D02*
X12590Y15100D01*
X12423D01*
X12340Y15017D01*
Y14683D01*
X12423Y14600D01*
X12590D01*
X12673Y14683D01*
X13173Y15100D02*
X13006Y15017D01*
X12840Y14850D01*
Y14683D01*
X12923Y14600D01*
X13090D01*
X13173Y14683D01*
Y14767D01*
X13090Y14850D01*
X12840D01*
X9447Y14763D02*
X9380Y14830D01*
X9247D01*
X9180Y14763D01*
Y14497D01*
X9247Y14430D01*
X9380D01*
X9447Y14497D01*
X9846Y14830D02*
X9580D01*
Y14630D01*
X9713Y14697D01*
X9780D01*
X9846Y14630D01*
Y14497D01*
X9780Y14430D01*
X9647D01*
X9580Y14497D01*
X12213Y8807D02*
X12130Y8890D01*
X11963D01*
X11880Y8807D01*
Y8473D01*
X11963Y8390D01*
X12130D01*
X12213Y8473D01*
X12380Y8390D02*
X12546D01*
X12463D01*
Y8890D01*
X12380Y8807D01*
X13820Y2610D02*
Y2277D01*
X13887Y2210D01*
X14020D01*
X14087Y2277D01*
Y2610D01*
X14486Y2210D02*
X14220D01*
X14486Y2477D01*
Y2543D01*
X14420Y2610D01*
X14287D01*
X14220Y2543D01*
X2340Y9890D02*
X2840D01*
Y9640D01*
X2757Y9557D01*
X2590D01*
X2507Y9640D01*
Y9890D01*
X2340Y9390D02*
Y9224D01*
Y9307D01*
X2840D01*
X2757Y9390D01*
M02*
