G04 Layer_Color=32896*
%FSLAX24Y24*%
%MOIN*%
G70*
G01*
G75*
%ADD23C,0.0100*%
%ADD26C,0.0005*%
D23*
X11760Y4799D02*
Y5399D01*
X11560Y5199D01*
X11360Y5399D01*
Y4799D01*
X11060D02*
X10860D01*
X10760Y4899D01*
Y5099D01*
X10860Y5199D01*
X11060D01*
X11160Y5099D01*
Y4899D01*
X11060Y4799D01*
X10560Y5199D02*
Y4799D01*
Y4999D01*
X10460Y5099D01*
X10360Y5199D01*
X10260D01*
X9861D02*
X9661D01*
X9561Y5099D01*
Y4799D01*
X9861D01*
X9961Y4899D01*
X9861Y4999D01*
X9561D01*
X9361Y4799D02*
X9161D01*
X9261D01*
Y5399D01*
X9361D01*
X7861Y5299D02*
X7961Y5399D01*
X8161D01*
X8261Y5299D01*
Y5199D01*
X8161Y5099D01*
X7961D01*
X7861Y4999D01*
Y4899D01*
X7961Y4799D01*
X8161D01*
X8261Y4899D01*
X7661Y5199D02*
Y4899D01*
X7561Y4799D01*
X7261D01*
Y5199D01*
X7062Y4600D02*
Y5199D01*
X6762D01*
X6662Y5099D01*
Y4899D01*
X6762Y4799D01*
X7062D01*
X6462Y4600D02*
Y5199D01*
X6162D01*
X6062Y5099D01*
Y4899D01*
X6162Y4799D01*
X6462D01*
X5762D02*
X5562D01*
X5462Y4899D01*
Y5099D01*
X5562Y5199D01*
X5762D01*
X5862Y5099D01*
Y4899D01*
X5762Y4799D01*
X5262Y5199D02*
Y4799D01*
Y4999D01*
X5162Y5099D01*
X5062Y5199D01*
X4962D01*
X4562Y5299D02*
Y5199D01*
X4662D01*
X4462D01*
X4562D01*
Y4899D01*
X4462Y4799D01*
X4162Y5199D02*
X4062D01*
Y5099D01*
X4162D01*
Y5199D01*
Y4899D02*
X4062D01*
Y4799D01*
X4162D01*
Y4899D01*
X11460Y3280D02*
X11660D01*
X11760Y3180D01*
Y2780D01*
X11660Y2680D01*
X11460D01*
X11360Y2780D01*
Y3180D01*
X11460Y3280D01*
X11160Y2680D02*
X10960D01*
X11060D01*
Y3280D01*
X11160D01*
X10660Y2680D02*
X10460D01*
X10560D01*
Y3080D01*
X10660D01*
X10161D02*
X9961Y2680D01*
X9761Y3080D01*
X9261Y2680D02*
X9461D01*
X9561Y2780D01*
Y2980D01*
X9461Y3080D01*
X9261D01*
X9161Y2980D01*
Y2880D01*
X9561D01*
X8961Y3080D02*
Y2680D01*
Y2880D01*
X8861Y2980D01*
X8761Y3080D01*
X8661D01*
X7761Y3280D02*
Y2680D01*
X7561Y2880D01*
X7361Y2680D01*
Y3280D01*
X7062Y2680D02*
X6862D01*
X6762Y2780D01*
Y2980D01*
X6862Y3080D01*
X7062D01*
X7161Y2980D01*
Y2780D01*
X7062Y2680D01*
X6462D02*
X6262D01*
X6162Y2780D01*
Y2980D01*
X6262Y3080D01*
X6462D01*
X6562Y2980D01*
Y2780D01*
X6462Y2680D01*
X5562Y3280D02*
Y2680D01*
X5862D01*
X5962Y2780D01*
Y2980D01*
X5862Y3080D01*
X5562D01*
X12090Y13690D02*
X12690D01*
Y13290D01*
Y13090D02*
Y12890D01*
Y12990D01*
X12290D01*
Y13090D01*
Y12490D02*
Y12290D01*
X12390Y12190D01*
X12690D01*
Y12490D01*
X12590Y12590D01*
X12490Y12490D01*
Y12190D01*
X12690Y11991D02*
X12290D01*
Y11891D01*
X12390Y11791D01*
X12690D01*
X12390D01*
X12290Y11691D01*
X12390Y11591D01*
X12690D01*
X12190Y10391D02*
X12090Y10491D01*
Y10691D01*
X12190Y10791D01*
X12290D01*
X12390Y10691D01*
Y10491D01*
X12490Y10391D01*
X12590D01*
X12690Y10491D01*
Y10691D01*
X12590Y10791D01*
X12190Y10091D02*
X12290D01*
Y10191D01*
Y9991D01*
Y10091D01*
X12590D01*
X12690Y9991D01*
Y9591D02*
Y9391D01*
X12590Y9291D01*
X12390D01*
X12290Y9391D01*
Y9591D01*
X12390Y9691D01*
X12590D01*
X12690Y9591D01*
X12090Y8692D02*
X12690D01*
Y8992D01*
X12590Y9091D01*
X12390D01*
X12290Y8992D01*
Y8692D01*
X12090Y8092D02*
X12690D01*
Y8392D01*
X12590Y8492D01*
X12390D01*
X12290Y8392D01*
Y8092D01*
Y7792D02*
Y7592D01*
X12390Y7492D01*
X12690D01*
Y7792D01*
X12590Y7892D01*
X12490Y7792D01*
Y7492D01*
X12290Y7292D02*
X12690D01*
X12490D01*
X12390Y7192D01*
X12290Y7092D01*
Y6992D01*
X12090Y6292D02*
X12690D01*
Y6592D01*
X12590Y6692D01*
X12390D01*
X12290Y6592D01*
Y6292D01*
X13180Y14170D02*
X13080Y14270D01*
Y14470D01*
X13180Y14570D01*
X13580D01*
X13680Y14470D01*
Y14270D01*
X13580Y14170D01*
X13280Y13870D02*
Y13670D01*
X13380Y13570D01*
X13680D01*
Y13870D01*
X13580Y13970D01*
X13480Y13870D01*
Y13570D01*
X13080Y13370D02*
X13680D01*
Y13070D01*
X13580Y12971D01*
X13480D01*
X13380D01*
X13280Y13070D01*
Y13370D01*
X13680Y12771D02*
Y12571D01*
Y12671D01*
X13280D01*
Y12771D01*
X13680Y12271D02*
X13280D01*
Y11971D01*
X13380Y11871D01*
X13680D01*
X13080Y11071D02*
Y10671D01*
Y10871D01*
X13680D01*
Y10171D02*
Y10371D01*
X13580Y10471D01*
X13380D01*
X13280Y10371D01*
Y10171D01*
X13380Y10071D01*
X13480D01*
Y10471D01*
X13680Y9872D02*
X13280D01*
Y9772D01*
X13380Y9672D01*
X13680D01*
X13380D01*
X13280Y9572D01*
X13380Y9472D01*
X13680D01*
X13880Y9272D02*
X13280D01*
Y8972D01*
X13380Y8872D01*
X13580D01*
X13680Y8972D01*
Y9272D01*
X13180Y7672D02*
X13080Y7772D01*
Y7972D01*
X13180Y8072D01*
X13280D01*
X13380Y7972D01*
Y7772D01*
X13480Y7672D01*
X13580D01*
X13680Y7772D01*
Y7972D01*
X13580Y8072D01*
X13680Y7172D02*
Y7372D01*
X13580Y7472D01*
X13380D01*
X13280Y7372D01*
Y7172D01*
X13380Y7072D01*
X13480D01*
Y7472D01*
X13680Y6872D02*
X13280D01*
Y6573D01*
X13380Y6473D01*
X13680D01*
Y6273D02*
Y5973D01*
X13580Y5873D01*
X13480Y5973D01*
Y6173D01*
X13380Y6273D01*
X13280Y6173D01*
Y5873D01*
X13680Y5573D02*
Y5373D01*
X13580Y5273D01*
X13380D01*
X13280Y5373D01*
Y5573D01*
X13380Y5673D01*
X13580D01*
X13680Y5573D01*
X13280Y5073D02*
X13680D01*
X13480D01*
X13380Y4973D01*
X13280Y4873D01*
Y4773D01*
X13080Y3873D02*
X13480D01*
X13680Y3674D01*
X13480Y3474D01*
X13080D01*
X13680Y2874D02*
Y3274D01*
X13280Y2874D01*
X13180D01*
X13080Y2974D01*
Y3174D01*
X13180Y3274D01*
D26*
X2080Y15360D02*
X17700D01*
Y1840D02*
Y15360D01*
X2080Y1840D02*
X17700D01*
X2080D02*
Y15360D01*
M02*
