G04 Layer_Physical_Order=2*
G04 Layer_Color=16711680*
%FSLAX24Y24*%
%MOIN*%
G70*
G01*
G75*
%ADD19C,0.0100*%
%ADD22C,0.0250*%
%ADD23C,0.0200*%
%ADD26C,0.0005*%
%ADD27C,0.0787*%
%ADD28C,0.1181*%
%ADD29C,0.0669*%
%ADD30C,0.0394*%
%ADD31C,0.0240*%
%ADD32C,0.0236*%
%ADD33C,0.0300*%
G36*
X12607Y5987D02*
X12668Y5946D01*
X12680Y5943D01*
X12740Y5931D01*
X13711D01*
Y4100D01*
X10810D01*
X10432Y3722D01*
X10409Y3738D01*
X10401Y3739D01*
X9104Y5037D01*
X11330Y7263D01*
X12607Y5987D01*
D02*
G37*
G36*
X17580Y8580D02*
Y1960D01*
X14540D01*
Y3820D01*
X14260Y4100D01*
X14089D01*
Y5931D01*
X16300D01*
X16372Y5946D01*
X16433Y5987D01*
X16474Y6048D01*
X16489Y6120D01*
X16474Y6192D01*
X16433Y6253D01*
X16372Y6294D01*
X16300Y6309D01*
X12818D01*
X11569Y7558D01*
X12365Y8355D01*
X12401Y8408D01*
X12413Y8470D01*
Y9064D01*
X12418Y9071D01*
X12426Y9111D01*
X12428Y9121D01*
X12478Y9116D01*
Y8770D01*
X12478Y8770D01*
X12486Y8727D01*
X12511Y8691D01*
X14022Y7179D01*
X14018Y7160D01*
X14032Y7091D01*
X14072Y7032D01*
X14131Y6992D01*
X14200Y6978D01*
X14269Y6992D01*
X14328Y7032D01*
X14348Y7061D01*
X14398Y7046D01*
Y6949D01*
X14382Y6938D01*
X14342Y6879D01*
X14328Y6810D01*
X14342Y6741D01*
X14382Y6682D01*
X14441Y6642D01*
X14510Y6628D01*
X14579Y6642D01*
X14638Y6682D01*
X14678Y6741D01*
X14692Y6810D01*
X14678Y6879D01*
X14638Y6938D01*
X14622Y6949D01*
Y7410D01*
X14614Y7453D01*
X14589Y7489D01*
X14589Y7489D01*
X14324Y7754D01*
X14341Y7809D01*
X14359Y7812D01*
X14418Y7852D01*
X14458Y7911D01*
X14472Y7980D01*
X14458Y8049D01*
X14418Y8108D01*
X14359Y8148D01*
X14290Y8162D01*
X14271Y8158D01*
X14142Y8286D01*
Y14420D01*
X14140Y14431D01*
X14186Y14455D01*
X14348Y14294D01*
Y8609D01*
X14332Y8598D01*
X14292Y8539D01*
X14278Y8470D01*
X14292Y8401D01*
X14332Y8342D01*
X14391Y8302D01*
X14460Y8288D01*
X14529Y8302D01*
X14588Y8342D01*
X14628Y8401D01*
X14642Y8470D01*
X14628Y8539D01*
X14588Y8598D01*
X14572Y8609D01*
Y14340D01*
X14572Y14340D01*
X14564Y14383D01*
X14539Y14419D01*
X14539Y14419D01*
X14218Y14741D01*
X14222Y14760D01*
X14208Y14829D01*
X14168Y14888D01*
X14109Y14928D01*
X14040Y14942D01*
X13971Y14928D01*
X13912Y14888D01*
X13872Y14829D01*
X13869Y14811D01*
X13814Y14794D01*
X13779Y14829D01*
X13743Y14854D01*
X13700Y14862D01*
X13700Y14862D01*
X13629D01*
X13618Y14878D01*
X13559Y14918D01*
X13490Y14932D01*
X13421Y14918D01*
X13362Y14878D01*
X13322Y14819D01*
X13308Y14750D01*
X13322Y14681D01*
X13362Y14622D01*
X13421Y14582D01*
X13490Y14568D01*
X13559Y14582D01*
X13618Y14622D01*
X13673Y14619D01*
X13918Y14374D01*
Y8240D01*
X13918Y8240D01*
X13920Y8229D01*
X13874Y8205D01*
X13112Y8966D01*
Y12581D01*
X13128Y12592D01*
X13168Y12651D01*
X13182Y12720D01*
X13168Y12789D01*
X13128Y12848D01*
X13069Y12888D01*
X13000Y12902D01*
X12931Y12888D01*
X12872Y12848D01*
X12832Y12789D01*
X12818Y12720D01*
X12832Y12651D01*
X12872Y12592D01*
X12888Y12581D01*
Y8920D01*
X12888Y8920D01*
X12896Y8877D01*
X12921Y8841D01*
X14398Y7364D01*
Y7274D01*
X14348Y7259D01*
X14328Y7288D01*
X14269Y7328D01*
X14200Y7342D01*
X14181Y7338D01*
X12702Y8816D01*
Y11291D01*
X12718Y11302D01*
X12758Y11361D01*
X12772Y11430D01*
X12758Y11499D01*
X12718Y11558D01*
X12659Y11598D01*
X12590Y11612D01*
X12521Y11598D01*
X12462Y11558D01*
X12422Y11499D01*
X12408Y11430D01*
X12422Y11361D01*
X12462Y11302D01*
X12478Y11291D01*
Y9164D01*
X12428Y9159D01*
X12426Y9169D01*
X12418Y9209D01*
X12378Y9268D01*
X12319Y9308D01*
X12250Y9322D01*
X12181Y9308D01*
X12122Y9268D01*
X12082Y9209D01*
X12068Y9140D01*
X12082Y9071D01*
X12087Y9064D01*
Y8538D01*
X11284Y7735D01*
X11248Y7728D01*
X11179Y7681D01*
X11132Y7612D01*
X11129Y7596D01*
X8707Y5173D01*
X7422Y3889D01*
X6602D01*
X6093Y4398D01*
Y7044D01*
X6098Y7051D01*
X6112Y7120D01*
X6098Y7189D01*
X6058Y7248D01*
X5999Y7288D01*
X5930Y7302D01*
X5861Y7288D01*
X5802Y7248D01*
X5762Y7189D01*
X5748Y7120D01*
X5762Y7051D01*
X5767Y7044D01*
Y4330D01*
X5779Y4268D01*
X5815Y4215D01*
X6382Y3647D01*
X6386Y3628D01*
X6427Y3567D01*
X6488Y3526D01*
X6560Y3511D01*
X7500D01*
X7572Y3526D01*
X7633Y3567D01*
X8873Y4806D01*
X10171Y3509D01*
X10172Y3501D01*
X10188Y3478D01*
X9970Y3260D01*
Y3250D01*
X9200D01*
X8950Y3000D01*
Y1960D01*
X2200D01*
Y15240D01*
X4203D01*
X4226Y15195D01*
X4222Y15189D01*
X4208Y15120D01*
X4222Y15051D01*
X4262Y14992D01*
X4320Y14952D01*
X4390Y14938D01*
X4460Y14952D01*
X4518Y14992D01*
X4529Y15008D01*
X9341D01*
X9352Y14992D01*
X9411Y14952D01*
X9480Y14938D01*
X9549Y14952D01*
X9608Y14992D01*
X9648Y15051D01*
X9662Y15120D01*
X9648Y15189D01*
X9644Y15195D01*
X9667Y15240D01*
X17580D01*
Y8580D01*
D02*
G37*
%LPC*%
G36*
X6071Y10679D02*
X5968Y10665D01*
X5872Y10625D01*
X5790Y10562D01*
X5726Y10480D01*
X5687Y10384D01*
X5673Y10281D01*
X5687Y10178D01*
X5726Y10082D01*
X5790Y9999D01*
X5872Y9936D01*
X5968Y9896D01*
X6071Y9883D01*
X6174Y9896D01*
X6270Y9936D01*
X6353Y9999D01*
X6416Y10082D01*
X6456Y10178D01*
X6469Y10281D01*
X6456Y10384D01*
X6416Y10480D01*
X6353Y10562D01*
X6270Y10625D01*
X6174Y10665D01*
X6071Y10679D01*
D02*
G37*
G36*
X4890D02*
X4787Y10665D01*
X4691Y10625D01*
X4609Y10562D01*
X4545Y10480D01*
X4506Y10384D01*
X4492Y10281D01*
X4506Y10178D01*
X4545Y10082D01*
X4609Y9999D01*
X4691Y9936D01*
X4787Y9896D01*
X4890Y9883D01*
X4993Y9896D01*
X5089Y9936D01*
X5171Y9999D01*
X5235Y10082D01*
X5274Y10178D01*
X5288Y10281D01*
X5274Y10384D01*
X5235Y10480D01*
X5171Y10562D01*
X5089Y10625D01*
X4993Y10665D01*
X4890Y10679D01*
D02*
G37*
G36*
X15270Y13562D02*
X15201Y13548D01*
X15142Y13508D01*
X15102Y13449D01*
X15088Y13380D01*
X15102Y13311D01*
X15107Y13304D01*
Y10953D01*
X15023Y10869D01*
X15015Y10868D01*
X14956Y10828D01*
X14917Y10769D01*
X14903Y10700D01*
X14917Y10631D01*
X14956Y10572D01*
X15015Y10532D01*
X15084Y10518D01*
X15154Y10532D01*
X15213Y10572D01*
X15252Y10631D01*
X15254Y10639D01*
X15385Y10770D01*
X15421Y10823D01*
X15433Y10886D01*
Y13304D01*
X15438Y13311D01*
X15452Y13380D01*
X15438Y13449D01*
X15398Y13508D01*
X15339Y13548D01*
X15270Y13562D01*
D02*
G37*
G36*
X2890Y11052D02*
X2821Y11038D01*
X2762Y10998D01*
X2722Y10939D01*
X2721Y10931D01*
X2668Y10924D01*
X2638Y10968D01*
X2580Y11008D01*
X2510Y11022D01*
X2440Y11008D01*
X2382Y10968D01*
X2342Y10909D01*
X2328Y10840D01*
X2342Y10771D01*
X2382Y10712D01*
X2398Y10701D01*
Y6819D01*
X2382Y6808D01*
X2342Y6749D01*
X2328Y6680D01*
X2342Y6611D01*
X2382Y6552D01*
X2440Y6512D01*
X2510Y6498D01*
X2580Y6512D01*
X2638Y6552D01*
X2678Y6611D01*
X2692Y6680D01*
X2678Y6749D01*
X2638Y6808D01*
X2622Y6819D01*
Y10701D01*
X2638Y10712D01*
X2678Y10771D01*
X2679Y10779D01*
X2732Y10786D01*
X2762Y10742D01*
X2778Y10731D01*
Y5099D01*
X2762Y5088D01*
X2722Y5030D01*
X2708Y4960D01*
X2722Y4891D01*
X2762Y4832D01*
X2821Y4792D01*
X2890Y4778D01*
X2959Y4792D01*
X3018Y4832D01*
X3058Y4891D01*
X3072Y4960D01*
X3058Y5030D01*
X3018Y5088D01*
X3002Y5099D01*
Y10731D01*
X3018Y10742D01*
X3058Y10801D01*
X3072Y10870D01*
X3058Y10939D01*
X3018Y10998D01*
X2959Y11038D01*
X2890Y11052D01*
D02*
G37*
G36*
X11010Y14262D02*
X10941Y14248D01*
X10882Y14208D01*
X10842Y14149D01*
X10841Y14141D01*
X10125Y13425D01*
X10089Y13372D01*
X10077Y13310D01*
X10089Y13248D01*
X10117Y13206D01*
Y10966D01*
X10112Y10959D01*
X10098Y10890D01*
X10112Y10821D01*
X10152Y10762D01*
X10211Y10722D01*
X10280Y10708D01*
X10349Y10722D01*
X10408Y10762D01*
X10448Y10821D01*
X10462Y10890D01*
X10448Y10959D01*
X10443Y10966D01*
Y13270D01*
X10441Y13280D01*
X11071Y13911D01*
X11079Y13912D01*
X11138Y13952D01*
X11178Y14011D01*
X11192Y14080D01*
X11178Y14149D01*
X11138Y14208D01*
X11079Y14248D01*
X11010Y14262D01*
D02*
G37*
G36*
X7714Y6980D02*
X7224D01*
X6734D01*
X6745Y6902D01*
X6794Y6782D01*
X6873Y6679D01*
X6976Y6600D01*
X7096Y6551D01*
X7192Y6538D01*
X7207Y6536D01*
Y6485D01*
X7192Y6483D01*
X7106Y6472D01*
X6995Y6426D01*
X6901Y6354D01*
X6828Y6259D01*
X6782Y6148D01*
X6767Y6030D01*
X6782Y5912D01*
X6828Y5801D01*
X6901Y5706D01*
X6995Y5634D01*
X7106Y5588D01*
X7224Y5572D01*
X7343Y5588D01*
X7453Y5634D01*
X7548Y5706D01*
X7620Y5801D01*
X7666Y5912D01*
X7682Y6030D01*
X7666Y6148D01*
X7620Y6259D01*
X7548Y6354D01*
X7453Y6426D01*
X7343Y6472D01*
X7257Y6483D01*
X7241Y6485D01*
Y6536D01*
X7257Y6538D01*
X7353Y6551D01*
X7472Y6600D01*
X7575Y6679D01*
X7654Y6782D01*
X7704Y6902D01*
X7714Y6980D01*
D02*
G37*
G36*
X4560Y4932D02*
X4491Y4918D01*
X4432Y4878D01*
X4392Y4820D01*
X4378Y4750D01*
X4392Y4681D01*
X4432Y4622D01*
X4491Y4582D01*
X4560Y4568D01*
X4629Y4582D01*
X4688Y4622D01*
X4728Y4681D01*
X4742Y4750D01*
X4728Y4820D01*
X4688Y4878D01*
X4629Y4918D01*
X4560Y4932D01*
D02*
G37*
G36*
X7224Y8488D02*
X7106Y8472D01*
X6995Y8426D01*
X6901Y8354D01*
X6828Y8259D01*
X6782Y8148D01*
X6767Y8030D01*
X6782Y7912D01*
X6828Y7801D01*
X6901Y7706D01*
X6995Y7634D01*
X7106Y7588D01*
X7192Y7577D01*
X7207Y7575D01*
Y7524D01*
X7192Y7522D01*
X7096Y7509D01*
X6976Y7460D01*
X6873Y7381D01*
X6794Y7278D01*
X6745Y7158D01*
X6734Y7080D01*
X7224D01*
X7714D01*
X7704Y7158D01*
X7654Y7278D01*
X7575Y7381D01*
X7472Y7460D01*
X7353Y7509D01*
X7257Y7522D01*
X7241Y7524D01*
Y7575D01*
X7257Y7577D01*
X7343Y7588D01*
X7453Y7634D01*
X7548Y7706D01*
X7620Y7801D01*
X7666Y7912D01*
X7682Y8030D01*
X7666Y8148D01*
X7620Y8259D01*
X7548Y8354D01*
X7453Y8426D01*
X7343Y8472D01*
X7224Y8488D01*
D02*
G37*
G36*
X3709Y10679D02*
X3606Y10665D01*
X3510Y10625D01*
X3427Y10562D01*
X3364Y10480D01*
X3324Y10384D01*
X3311Y10281D01*
X3324Y10178D01*
X3364Y10082D01*
X3427Y9999D01*
X3510Y9936D01*
X3606Y9896D01*
X3709Y9883D01*
X3812Y9896D01*
X3908Y9936D01*
X3990Y9999D01*
X4054Y10082D01*
X4093Y10178D01*
X4107Y10281D01*
X4093Y10384D01*
X4054Y10480D01*
X3990Y10562D01*
X3908Y10625D01*
X3812Y10665D01*
X3709Y10679D01*
D02*
G37*
G36*
X9330Y11652D02*
X9261Y11638D01*
X9202Y11598D01*
X9162Y11539D01*
X9148Y11470D01*
X9162Y11401D01*
X9202Y11342D01*
X9238Y11317D01*
Y7579D01*
X9222Y7568D01*
X9182Y7509D01*
X9168Y7440D01*
X9182Y7371D01*
X9222Y7312D01*
X9281Y7272D01*
X9350Y7258D01*
X9419Y7272D01*
X9478Y7312D01*
X9518Y7371D01*
X9532Y7440D01*
X9518Y7509D01*
X9478Y7568D01*
X9462Y7579D01*
Y11347D01*
X9498Y11401D01*
X9512Y11470D01*
X9498Y11539D01*
X9458Y11598D01*
X9399Y11638D01*
X9330Y11652D01*
D02*
G37*
G36*
X14950Y14812D02*
X14881Y14798D01*
X14822Y14758D01*
X14782Y14699D01*
X14768Y14630D01*
X14782Y14561D01*
X14822Y14502D01*
X14881Y14462D01*
X14950Y14448D01*
X14969Y14452D01*
X15818Y13604D01*
Y11879D01*
X15802Y11868D01*
X15762Y11809D01*
X15748Y11740D01*
X15762Y11671D01*
X15802Y11612D01*
X15861Y11572D01*
X15930Y11558D01*
X15999Y11572D01*
X16058Y11612D01*
X16098Y11671D01*
X16112Y11740D01*
X16098Y11809D01*
X16058Y11868D01*
X16042Y11879D01*
Y13650D01*
X16034Y13693D01*
X16009Y13729D01*
X16009Y13729D01*
X15128Y14611D01*
X15132Y14630D01*
X15118Y14699D01*
X15078Y14758D01*
X15019Y14798D01*
X14950Y14812D01*
D02*
G37*
G36*
X4940Y11892D02*
Y11512D01*
X5320D01*
X5312Y11575D01*
X5268Y11680D01*
X5199Y11771D01*
X5108Y11840D01*
X5003Y11884D01*
X4940Y11892D01*
D02*
G37*
G36*
X4890Y13816D02*
X4762Y13804D01*
X4640Y13767D01*
X4527Y13706D01*
X4428Y13625D01*
X4346Y13526D01*
X4286Y13413D01*
X4249Y13290D01*
X4236Y13163D01*
X4249Y13035D01*
X4286Y12912D01*
X4346Y12799D01*
X4428Y12700D01*
X4527Y12619D01*
X4640Y12559D01*
X4762Y12521D01*
X4890Y12509D01*
X5018Y12521D01*
X5140Y12559D01*
X5253Y12619D01*
X5352Y12700D01*
X5434Y12799D01*
X5494Y12912D01*
X5531Y13035D01*
X5544Y13163D01*
X5531Y13290D01*
X5494Y13413D01*
X5434Y13526D01*
X5352Y13625D01*
X5253Y13706D01*
X5140Y13767D01*
X5018Y13804D01*
X4890Y13816D01*
D02*
G37*
G36*
X10220Y15082D02*
X10151Y15068D01*
X10092Y15028D01*
X10052Y14969D01*
X10045Y14934D01*
X9964Y14852D01*
X6679D01*
X6668Y14868D01*
X6609Y14908D01*
X6540Y14922D01*
X6471Y14908D01*
X6412Y14868D01*
X6372Y14809D01*
X6358Y14740D01*
X6372Y14671D01*
X6412Y14612D01*
X6471Y14572D01*
X6540Y14558D01*
X6609Y14572D01*
X6668Y14612D01*
X6679Y14628D01*
X10010D01*
X10010Y14628D01*
X10053Y14636D01*
X10089Y14661D01*
X10159Y14731D01*
X10220Y14718D01*
X10281Y14731D01*
X10361Y14651D01*
X10361Y14651D01*
X10397Y14626D01*
X10440Y14618D01*
X11861D01*
X11872Y14602D01*
X11931Y14562D01*
X12000Y14548D01*
X12069Y14562D01*
X12128Y14602D01*
X12168Y14661D01*
X12182Y14730D01*
X12168Y14799D01*
X12128Y14858D01*
X12069Y14898D01*
X12000Y14912D01*
X11931Y14898D01*
X11872Y14858D01*
X11861Y14842D01*
X10486D01*
X10395Y14934D01*
X10388Y14969D01*
X10348Y15028D01*
X10289Y15068D01*
X10220Y15082D01*
D02*
G37*
G36*
X8760Y13470D02*
X8693Y13461D01*
X8630Y13435D01*
X8577Y13394D01*
X8536Y13340D01*
X8510Y13278D01*
X8501Y13211D01*
X8510Y13144D01*
X8536Y13081D01*
X8577Y13027D01*
X8630Y12986D01*
X8693Y12960D01*
X8760Y12952D01*
X8827Y12960D01*
X8890Y12986D01*
X8943Y13027D01*
X8984Y13081D01*
X9010Y13144D01*
X9019Y13211D01*
X9010Y13278D01*
X8984Y13340D01*
X8943Y13394D01*
X8890Y13435D01*
X8827Y13461D01*
X8760Y13470D01*
D02*
G37*
G36*
X4840Y11892D02*
X4777Y11884D01*
X4672Y11840D01*
X4581Y11771D01*
X4512Y11680D01*
X4468Y11575D01*
X4460Y11512D01*
X4840D01*
Y11892D01*
D02*
G37*
G36*
Y11412D02*
X4460D01*
X4468Y11349D01*
X4512Y11243D01*
X4581Y11153D01*
X4672Y11084D01*
X4777Y11040D01*
X4840Y11032D01*
Y11412D01*
D02*
G37*
G36*
X8760Y11548D02*
X8693Y11540D01*
X8630Y11514D01*
X8577Y11473D01*
X8536Y11419D01*
X8510Y11356D01*
X8501Y11289D01*
X8510Y11222D01*
X8536Y11160D01*
X8577Y11106D01*
X8630Y11065D01*
X8693Y11039D01*
X8760Y11030D01*
X8827Y11039D01*
X8890Y11065D01*
X8943Y11106D01*
X8984Y11160D01*
X9010Y11222D01*
X9019Y11289D01*
X9010Y11356D01*
X8984Y11419D01*
X8943Y11473D01*
X8890Y11514D01*
X8827Y11540D01*
X8760Y11548D01*
D02*
G37*
G36*
X5320Y11412D02*
X4940D01*
Y11032D01*
X5003Y11040D01*
X5108Y11084D01*
X5199Y11153D01*
X5268Y11243D01*
X5312Y11349D01*
X5320Y11412D01*
D02*
G37*
G36*
X6071Y11860D02*
X5968Y11846D01*
X5872Y11807D01*
X5790Y11743D01*
X5726Y11661D01*
X5687Y11565D01*
X5673Y11462D01*
X5687Y11359D01*
X5726Y11263D01*
X5790Y11180D01*
X5872Y11117D01*
X5968Y11077D01*
X6071Y11064D01*
X6174Y11077D01*
X6270Y11117D01*
X6353Y11180D01*
X6416Y11263D01*
X6456Y11359D01*
X6469Y11462D01*
X6456Y11565D01*
X6416Y11661D01*
X6353Y11743D01*
X6270Y11807D01*
X6174Y11846D01*
X6071Y11860D01*
D02*
G37*
G36*
X3709D02*
X3606Y11846D01*
X3510Y11807D01*
X3427Y11743D01*
X3364Y11661D01*
X3324Y11565D01*
X3311Y11462D01*
X3324Y11359D01*
X3364Y11263D01*
X3427Y11180D01*
X3510Y11117D01*
X3606Y11077D01*
X3709Y11064D01*
X3812Y11077D01*
X3908Y11117D01*
X3990Y11180D01*
X4054Y11263D01*
X4093Y11359D01*
X4107Y11462D01*
X4093Y11565D01*
X4054Y11661D01*
X3990Y11743D01*
X3908Y11807D01*
X3812Y11846D01*
X3709Y11860D01*
D02*
G37*
%LPD*%
D19*
X4390Y15120D02*
X9480D01*
X10220Y14900D02*
X10270D01*
X10170D02*
X10220D01*
X10010Y14740D02*
X10170Y14900D01*
X6540Y14740D02*
X10010D01*
X9350Y7440D02*
Y11450D01*
X9330Y11470D02*
X9350Y11450D01*
X2890Y4960D02*
Y10870D01*
X2510Y6680D02*
Y10840D01*
X10440Y14730D02*
X12000D01*
X10270Y14900D02*
X10440Y14730D01*
X15930Y11740D02*
Y13650D01*
X14950Y14630D02*
X15930Y13650D01*
X14460Y8470D02*
Y14340D01*
X14040Y14760D02*
X14460Y14340D01*
X14510Y6810D02*
Y7410D01*
X13000Y8920D02*
X14510Y7410D01*
X13000Y8920D02*
Y12720D01*
X12590Y8770D02*
Y11430D01*
Y8770D02*
X14200Y7160D01*
X14030Y8240D02*
X14290Y7980D01*
X13490Y14750D02*
X13700D01*
X14030Y14420D01*
Y8240D02*
Y14420D01*
D22*
X13900Y3750D02*
Y6120D01*
Y3200D02*
Y3750D01*
X8840Y5040D02*
X11330Y7530D01*
Y7550D01*
X13900Y3200D02*
X14120Y2980D01*
X14190D01*
X11330Y7530D02*
X12740Y6120D01*
X13900D01*
X16300D01*
X6560Y3700D02*
X7500D01*
X8840Y5040D01*
D23*
X10280Y10890D02*
Y13270D01*
X10240Y13310D02*
X10280Y13270D01*
X12250Y8470D02*
Y9140D01*
X11330Y7550D02*
X12250Y8470D01*
X8840Y5040D02*
X8870D01*
X10340Y3570D01*
X5930Y4330D02*
Y7120D01*
X10240Y13310D02*
X11010Y14080D01*
X15084Y10700D02*
X15270Y10886D01*
Y13380D01*
X5930Y4330D02*
X6560Y3700D01*
D26*
X2080Y1840D02*
Y15360D01*
Y1840D02*
X17700D01*
Y15360D01*
X2080D02*
X17700D01*
D27*
X7224Y6030D02*
D03*
Y7030D02*
D03*
Y8030D02*
D03*
D28*
X4890Y13163D02*
D03*
D29*
Y11462D02*
D03*
X3709D02*
D03*
X6071D02*
D03*
Y10281D02*
D03*
X4890D02*
D03*
X3709D02*
D03*
D30*
X8760Y11289D02*
D03*
Y13211D02*
D03*
D31*
X12660Y14850D02*
D03*
X7440Y4270D02*
D03*
X11370Y13960D02*
D03*
X16970Y5890D02*
D03*
X12520Y8100D02*
D03*
X17100Y9340D02*
D03*
X9530Y13820D02*
D03*
X8560Y12400D02*
D03*
X8090Y9660D02*
D03*
X12030Y10020D02*
D03*
X3540Y12990D02*
D03*
X6850Y10320D02*
D03*
X7250Y11810D02*
D03*
X9120Y8360D02*
D03*
X10870Y8530D02*
D03*
X9350Y6520D02*
D03*
X12930Y7500D02*
D03*
X12980Y6720D02*
D03*
X10070Y7430D02*
D03*
X3960Y12320D02*
D03*
X6220Y5840D02*
D03*
X3730Y4890D02*
D03*
X10550Y5640D02*
D03*
X8190Y7710D02*
D03*
X6260Y8360D02*
D03*
X5510Y6670D02*
D03*
X8280Y3540D02*
D03*
X3170Y9210D02*
D03*
X5540Y9350D02*
D03*
X11680Y8690D02*
D03*
X10010Y8320D02*
D03*
X12790Y5330D02*
D03*
X5040Y4320D02*
D03*
X12020Y12310D02*
D03*
X13460Y11620D02*
D03*
X16360Y12570D02*
D03*
X15610Y12120D02*
D03*
X15270Y9800D02*
D03*
X9730Y11090D02*
D03*
X15450Y5470D02*
D03*
X15650Y13160D02*
D03*
D32*
X9480Y15120D02*
D03*
X4390D02*
D03*
X10220Y14900D02*
D03*
X6540Y14740D02*
D03*
X13900Y3750D02*
D03*
X9330Y11470D02*
D03*
X10280Y10890D02*
D03*
X12250Y9140D02*
D03*
X10340Y3570D02*
D03*
X5930Y7120D02*
D03*
X2890Y10870D02*
D03*
Y4960D02*
D03*
X2510Y6680D02*
D03*
Y10840D02*
D03*
X9350Y7440D02*
D03*
X12000Y14730D02*
D03*
X11010Y14080D02*
D03*
X15084Y10700D02*
D03*
X15270Y13380D02*
D03*
X13900Y6120D02*
D03*
X14190Y2980D02*
D03*
X15930Y11740D02*
D03*
X14950Y14630D02*
D03*
X14460Y8470D02*
D03*
X13490Y14750D02*
D03*
X14040Y14760D02*
D03*
X14290Y7980D02*
D03*
X14200Y7160D02*
D03*
X14510Y6810D02*
D03*
X13000Y12720D02*
D03*
X12590Y11430D02*
D03*
X16300Y6120D02*
D03*
X4560Y4750D02*
D03*
X6560Y3700D02*
D03*
D33*
X11330Y7530D02*
D03*
M02*
