G04 Layer_Color=8388736*
%FSLAX24Y24*%
%MOIN*%
G70*
G01*
G75*
%ADD26C,0.0005*%
%ADD40R,0.0354X0.0433*%
%ADD41R,0.0433X0.0354*%
%ADD42O,0.0709X0.0268*%
%ADD43O,0.0315X0.0669*%
%ADD44R,0.0630X0.0689*%
%ADD45R,0.1024X0.0378*%
%ADD46O,0.0197X0.0787*%
%ADD47O,0.0787X0.0197*%
%ADD48R,0.0315X0.0472*%
%ADD49C,0.0866*%
%ADD50C,0.1260*%
%ADD51C,0.0748*%
%ADD52C,0.0472*%
%ADD53C,0.0319*%
%ADD54C,0.0315*%
%ADD55C,0.0379*%
D26*
X2080Y1840D02*
Y15360D01*
Y1840D02*
X17700D01*
Y15360D01*
X2080D02*
X17700D01*
D40*
X10194Y9690D02*
D03*
X10746D02*
D03*
X8566Y14930D02*
D03*
X8014D02*
D03*
X4616Y9230D02*
D03*
X4064D02*
D03*
X15316Y2970D02*
D03*
X14764D02*
D03*
X14996Y4210D02*
D03*
X14444D02*
D03*
X11014Y14850D02*
D03*
X11566D02*
D03*
X15706Y14050D02*
D03*
X15154D02*
D03*
X13009Y8495D02*
D03*
X13560D02*
D03*
X9954Y2780D02*
D03*
X10506D02*
D03*
X5554Y2550D02*
D03*
X6106D02*
D03*
D41*
X2690Y2544D02*
D03*
Y3096D02*
D03*
X10610Y7094D02*
D03*
Y7646D02*
D03*
X10240Y14386D02*
D03*
Y13834D02*
D03*
X10230Y11956D02*
D03*
Y11404D02*
D03*
X14470Y9534D02*
D03*
Y10086D02*
D03*
X5790Y5056D02*
D03*
Y4504D02*
D03*
D42*
X13126Y2746D02*
D03*
Y3002D02*
D03*
Y3258D02*
D03*
Y3514D02*
D03*
X11314Y2746D02*
D03*
Y3002D02*
D03*
Y3258D02*
D03*
Y3514D02*
D03*
D43*
X5060Y7633D02*
D03*
X4560D02*
D03*
X4060D02*
D03*
X3560D02*
D03*
X5060Y5507D02*
D03*
X4560D02*
D03*
X4060D02*
D03*
X3560D02*
D03*
D44*
X11889Y7640D02*
D03*
Y4510D02*
D03*
X13700Y7640D02*
D03*
Y4510D02*
D03*
D45*
X15310Y8780D02*
D03*
X16845D02*
D03*
X15310Y8280D02*
D03*
X16845D02*
D03*
X15310Y7780D02*
D03*
X16845D02*
D03*
X15310Y7280D02*
D03*
X16845D02*
D03*
X15310Y6780D02*
D03*
X16845D02*
D03*
D46*
X11747Y14014D02*
D03*
X11944D02*
D03*
X12141D02*
D03*
X12338D02*
D03*
X12535D02*
D03*
X12732D02*
D03*
X12928D02*
D03*
X13125D02*
D03*
X13322D02*
D03*
X13519D02*
D03*
X13716D02*
D03*
X13913D02*
D03*
Y10826D02*
D03*
X13716D02*
D03*
X13519D02*
D03*
X13322D02*
D03*
X13125D02*
D03*
X12928D02*
D03*
X12732D02*
D03*
X12535D02*
D03*
X12338D02*
D03*
X12141D02*
D03*
X11944D02*
D03*
X11747D02*
D03*
D47*
X14424Y13503D02*
D03*
Y13306D02*
D03*
Y13109D02*
D03*
Y12912D02*
D03*
Y12715D02*
D03*
Y12518D02*
D03*
Y12322D02*
D03*
Y12125D02*
D03*
Y11928D02*
D03*
Y11731D02*
D03*
Y11534D02*
D03*
Y11337D02*
D03*
X11236D02*
D03*
Y11534D02*
D03*
Y11731D02*
D03*
Y11928D02*
D03*
Y12125D02*
D03*
Y12322D02*
D03*
Y12518D02*
D03*
Y12715D02*
D03*
Y12912D02*
D03*
Y13109D02*
D03*
Y13306D02*
D03*
Y13503D02*
D03*
D48*
X4394Y2539D02*
D03*
X3646D02*
D03*
Y3621D02*
D03*
X4020D02*
D03*
X4394D02*
D03*
D49*
X7224Y6030D02*
D03*
Y7030D02*
D03*
Y8030D02*
D03*
D50*
X4890Y13163D02*
D03*
D51*
Y11462D02*
D03*
X3709D02*
D03*
X6071D02*
D03*
Y10281D02*
D03*
X4890D02*
D03*
X3709D02*
D03*
D52*
X8760Y11289D02*
D03*
Y13211D02*
D03*
D53*
X12660Y14850D02*
D03*
X7440Y4270D02*
D03*
X11370Y13960D02*
D03*
X16970Y5890D02*
D03*
X12520Y8100D02*
D03*
X17100Y9340D02*
D03*
X9530Y13820D02*
D03*
X8560Y12400D02*
D03*
X8090Y9660D02*
D03*
X12030Y10020D02*
D03*
X3540Y12990D02*
D03*
X6850Y10320D02*
D03*
X7250Y11810D02*
D03*
X9120Y8360D02*
D03*
X10870Y8530D02*
D03*
X9350Y6520D02*
D03*
X12930Y7500D02*
D03*
X12980Y6720D02*
D03*
X10070Y7430D02*
D03*
X3960Y12320D02*
D03*
X6220Y5840D02*
D03*
X3730Y4890D02*
D03*
X10550Y5640D02*
D03*
X8190Y7710D02*
D03*
X6260Y8360D02*
D03*
X5510Y6670D02*
D03*
X8280Y3540D02*
D03*
X3170Y9210D02*
D03*
X5540Y9350D02*
D03*
X11680Y8690D02*
D03*
X10010Y8320D02*
D03*
X12790Y5330D02*
D03*
X5040Y4320D02*
D03*
X12020Y12310D02*
D03*
X13460Y11620D02*
D03*
X16360Y12570D02*
D03*
X15610Y12120D02*
D03*
X15270Y9800D02*
D03*
X9730Y11090D02*
D03*
X15450Y5470D02*
D03*
X15650Y13160D02*
D03*
D54*
X9480Y15120D02*
D03*
X4390D02*
D03*
X10220Y14900D02*
D03*
X6540Y14740D02*
D03*
X13900Y3750D02*
D03*
X9330Y11470D02*
D03*
X10280Y10890D02*
D03*
X12250Y9140D02*
D03*
X10340Y3570D02*
D03*
X5930Y7120D02*
D03*
X2890Y10870D02*
D03*
Y4960D02*
D03*
X2510Y6680D02*
D03*
Y10840D02*
D03*
X9350Y7440D02*
D03*
X12000Y14730D02*
D03*
X11010Y14080D02*
D03*
X15084Y10700D02*
D03*
X15270Y13380D02*
D03*
X13900Y6120D02*
D03*
X14190Y2980D02*
D03*
X15930Y11740D02*
D03*
X14950Y14630D02*
D03*
X14460Y8470D02*
D03*
X13490Y14750D02*
D03*
X14040Y14760D02*
D03*
X14290Y7980D02*
D03*
X14200Y7160D02*
D03*
X14510Y6810D02*
D03*
X13000Y12720D02*
D03*
X12590Y11430D02*
D03*
X16300Y6120D02*
D03*
X4560Y4750D02*
D03*
X6560Y3700D02*
D03*
D55*
X11330Y7530D02*
D03*
M02*
