M48
;Layer_Color=9474304
;FILE_FORMAT=2:4
INCH,LZ
;TYPE=PLATED
T1F00S00C0.0118
T2F00S00C0.0120
T3F00S00C0.0160
T4F00S00C0.0197
T5F00S00C0.0280
T6F00S00C0.0402
T7F00S00C0.0453
;TYPE=NON_PLATED
T8F00S00C0.1181
%
T01
X00289Y00496
X00456Y00475
X00656Y0037
X01034Y00357
X0139Y00375
X01419Y00298
X0139Y00612
X01451Y00681
X0142Y00716
X01429Y00798
X01446Y00847
X015084Y0107
X01527Y01338
X01495Y01463
X01404Y01476
X01349Y01475
X012Y01473
X01101Y01408
X01017Y0149
X01024Y010735
X00935Y00986
Y00744
X00593Y00712
X00251Y00668
Y01084
X00289Y01087
X01259Y01143
X013Y01272
X01225Y00914
X01593Y01174
X0163Y00612
T02
X00373Y00489
X00622Y00584
X00551Y00667
X00626Y00836
X00554Y00935
X00685Y01032
X00725Y01181
X00806Y00949
X00819Y00771
X00885Y00747
X00853Y00678
X00912Y00836
X01001Y00832
X01007Y00743
X01087Y00853
X01168Y00869
X01203Y01002
X01028Y00955
X01055Y00564
X01279Y00533
X01298Y00672
X01293Y0075
X01545Y00547
X01527Y0098
X01561Y01212
X01346Y01162
X01202Y01231
X00396Y01232
X00354Y01299
X00325Y01371
X00317Y00921
X00828Y00354
X01565Y01316
X01636Y01257
T03
X01133Y00753
T04
X00881Y011579
Y013501
T05
X00749Y00433
T06
X003709Y010281
X00489
X006071
Y011462
X00489
X003709
T07
X007224Y00603
Y00703
Y00803
T08
X00489Y013163
M30
